G04*
G04 #@! TF.GenerationSoftware,Altium Limited,Altium Designer,21.1.1 (26)*
G04*
G04 Layer_Physical_Order=2*
G04 Layer_Color=16711680*
%FSLAX25Y25*%
%MOIN*%
G70*
G04*
G04 #@! TF.SameCoordinates,1B48DBFB-4F0D-4C64-993E-EB7B70E0D2B1*
G04*
G04*
G04 #@! TF.FilePolarity,Positive*
G04*
G01*
G75*
%ADD13C,0.01000*%
%ADD17C,0.01500*%
%ADD52C,0.02000*%
%ADD53C,0.03000*%
%ADD54C,0.07087*%
%ADD55R,0.07087X0.07087*%
%ADD56R,0.07874X0.07874*%
%ADD57C,0.07874*%
%ADD58C,0.08268*%
%ADD59C,0.27559*%
%ADD60C,0.02800*%
G36*
X400000Y100000D02*
X100000D01*
Y350000D01*
X400000D01*
Y100000D01*
D02*
G37*
%LPC*%
G36*
X319500Y346141D02*
X210000D01*
X209181Y345978D01*
X208486Y345514D01*
X201000Y338028D01*
X195014Y344014D01*
X194319Y344478D01*
X193500Y344641D01*
X159500D01*
X158681Y344478D01*
X157986Y344014D01*
X153986Y340014D01*
X153986Y340014D01*
X123613Y309641D01*
X114000D01*
X113181Y309478D01*
X112486Y309014D01*
X102486Y299014D01*
X102022Y298319D01*
X101859Y297500D01*
Y201000D01*
X102022Y200181D01*
X102486Y199486D01*
X108486Y193486D01*
X109181Y193022D01*
X110000Y192859D01*
X148770D01*
X149212Y192093D01*
X150093Y191212D01*
X151173Y190589D01*
X152377Y190266D01*
X153623D01*
X154827Y190589D01*
X155907Y191212D01*
X156788Y192093D01*
X157411Y193173D01*
X157734Y194377D01*
Y195623D01*
X157411Y196827D01*
X156788Y197907D01*
X155907Y198788D01*
X154827Y199411D01*
X153623Y199734D01*
X152377D01*
X151173Y199411D01*
X150093Y198788D01*
X149212Y197907D01*
X148770Y197141D01*
X110887D01*
X106141Y201887D01*
Y296613D01*
X114887Y305359D01*
X124500D01*
X125319Y305522D01*
X126014Y305986D01*
X155500Y335472D01*
X162477Y328495D01*
X162357Y328046D01*
Y326955D01*
X162639Y325901D01*
X163184Y324956D01*
X163956Y324184D01*
X164901Y323639D01*
X165954Y323357D01*
X167045D01*
X168099Y323639D01*
X169044Y324184D01*
X169816Y324956D01*
X170361Y325901D01*
X170643Y326955D01*
Y328046D01*
X170361Y329099D01*
X169816Y330044D01*
X169044Y330816D01*
X168099Y331361D01*
X167045Y331643D01*
X165954D01*
X165505Y331523D01*
X158528Y338500D01*
X160387Y340359D01*
X192613D01*
X199486Y333486D01*
X199486Y333486D01*
X204477Y328495D01*
X204357Y328046D01*
Y326955D01*
X204639Y325901D01*
X205185Y324956D01*
X205956Y324184D01*
X206901Y323639D01*
X207955Y323357D01*
X209046D01*
X210099Y323639D01*
X211044Y324184D01*
X211816Y324956D01*
X212361Y325901D01*
X212643Y326955D01*
Y328046D01*
X212361Y329099D01*
X211816Y330044D01*
X211044Y330816D01*
X210099Y331361D01*
X209046Y331643D01*
X207955D01*
X207505Y331523D01*
X204028Y335000D01*
X210887Y341859D01*
X293859D01*
Y331048D01*
X293456Y330816D01*
X292685Y330044D01*
X292139Y329099D01*
X291857Y328046D01*
Y326955D01*
X292139Y325901D01*
X292685Y324956D01*
X293456Y324184D01*
X294401Y323639D01*
X295455Y323357D01*
X296546D01*
X297599Y323639D01*
X298544Y324184D01*
X299316Y324956D01*
X299861Y325901D01*
X300143Y326955D01*
Y328046D01*
X299861Y329099D01*
X299316Y330044D01*
X298544Y330816D01*
X298141Y331048D01*
Y341859D01*
X318613D01*
X331977Y328495D01*
X331857Y328046D01*
Y326955D01*
X332139Y325901D01*
X332684Y324956D01*
X333456Y324184D01*
X334401Y323639D01*
X335455Y323357D01*
X336545D01*
X337599Y323639D01*
X338544Y324184D01*
X339316Y324956D01*
X339861Y325901D01*
X340143Y326955D01*
Y328046D01*
X339861Y329099D01*
X339316Y330044D01*
X338544Y330816D01*
X337599Y331361D01*
X336545Y331643D01*
X335455D01*
X335005Y331523D01*
X321014Y345514D01*
X320319Y345978D01*
X319500Y346141D01*
D02*
G37*
G36*
X278364Y338425D02*
Y336534D01*
X280255D01*
X279899Y337394D01*
X279223Y338069D01*
X278364Y338425D01*
D02*
G37*
G36*
X277364D02*
X276504Y338069D01*
X275829Y337394D01*
X275473Y336534D01*
X277364D01*
Y338425D01*
D02*
G37*
G36*
X225500Y338391D02*
Y336500D01*
X227391D01*
X227035Y337359D01*
X226360Y338035D01*
X225500Y338391D01*
D02*
G37*
G36*
X224500D02*
X223640Y338035D01*
X222965Y337359D01*
X222609Y336500D01*
X224500D01*
Y338391D01*
D02*
G37*
G36*
X280255Y335534D02*
X278364D01*
Y333644D01*
X279223Y334000D01*
X279899Y334675D01*
X280255Y335534D01*
D02*
G37*
G36*
X277364D02*
X275473D01*
X275829Y334675D01*
X276504Y334000D01*
X277364Y333644D01*
Y335534D01*
D02*
G37*
G36*
X227391Y335500D02*
X225500D01*
Y333609D01*
X226360Y333965D01*
X227035Y334641D01*
X227391Y335500D01*
D02*
G37*
G36*
X224500D02*
X222609D01*
X222965Y334641D01*
X223640Y333965D01*
X224500Y333609D01*
Y335500D01*
D02*
G37*
G36*
X381163Y344779D02*
X380500D01*
Y330500D01*
X394779D01*
Y331163D01*
X394416Y333461D01*
X393697Y335673D01*
X392641Y337746D01*
X391273Y339628D01*
X389628Y341273D01*
X387746Y342641D01*
X385673Y343697D01*
X383461Y344416D01*
X381163Y344779D01*
D02*
G37*
G36*
X379500D02*
X378837D01*
X376539Y344416D01*
X374327Y343697D01*
X372254Y342641D01*
X370372Y341273D01*
X368727Y339628D01*
X367359Y337746D01*
X366303Y335673D01*
X365584Y333461D01*
X365220Y331163D01*
Y330500D01*
X379500D01*
Y344779D01*
D02*
G37*
G36*
X121163D02*
X120500D01*
Y330500D01*
X134780D01*
Y331163D01*
X134416Y333461D01*
X133697Y335673D01*
X132641Y337746D01*
X131273Y339628D01*
X129628Y341273D01*
X127746Y342641D01*
X125673Y343697D01*
X123461Y344416D01*
X121163Y344779D01*
D02*
G37*
G36*
X119500D02*
X118837D01*
X116539Y344416D01*
X114327Y343697D01*
X112254Y342641D01*
X110372Y341273D01*
X108727Y339628D01*
X107359Y337746D01*
X106303Y335673D01*
X105584Y333461D01*
X105220Y331163D01*
Y330500D01*
X119500D01*
Y344779D01*
D02*
G37*
G36*
X278500Y331391D02*
Y329500D01*
X280391D01*
X280035Y330360D01*
X279360Y331035D01*
X278500Y331391D01*
D02*
G37*
G36*
X277500D02*
X276641Y331035D01*
X275965Y330360D01*
X275609Y329500D01*
X277500D01*
Y331391D01*
D02*
G37*
G36*
X225500D02*
Y329500D01*
X227391D01*
X227035Y330360D01*
X226360Y331035D01*
X225500Y331391D01*
D02*
G37*
G36*
X280391Y328500D02*
X278500D01*
Y326609D01*
X279360Y326965D01*
X280035Y327641D01*
X280391Y328500D01*
D02*
G37*
G36*
X277500D02*
X275609D01*
X275965Y327641D01*
X276641Y326965D01*
X277500Y326609D01*
Y328500D01*
D02*
G37*
G36*
X227391D02*
X225500D01*
Y326609D01*
X226360Y326965D01*
X227035Y327641D01*
X227391Y328500D01*
D02*
G37*
G36*
X222643Y331643D02*
X214357D01*
Y323357D01*
X222423Y323357D01*
X222498Y323263D01*
X222498D01*
X222498Y323263D01*
Y323263D01*
X222771Y322890D01*
X222609Y322500D01*
X224500D01*
Y324391D01*
X223640Y324035D01*
X223143Y323537D01*
X222643Y323745D01*
X222643Y323763D01*
X222643Y323763D01*
X222643Y323765D01*
Y327256D01*
X223143Y327463D01*
X223640Y326965D01*
X224500Y326609D01*
Y329000D01*
Y331391D01*
X223640Y331035D01*
X223143Y330537D01*
X222643Y330745D01*
Y331643D01*
D02*
G37*
G36*
X350143D02*
X341857D01*
Y323357D01*
X350143D01*
Y331643D01*
D02*
G37*
G36*
X310143D02*
X301857D01*
Y323357D01*
X310143D01*
Y331643D01*
D02*
G37*
G36*
X180643D02*
X172357D01*
Y323357D01*
X180643D01*
Y331643D01*
D02*
G37*
G36*
X278500Y324391D02*
Y322500D01*
X280391D01*
X280035Y323359D01*
X279360Y324035D01*
X278500Y324391D01*
D02*
G37*
G36*
X277500D02*
X276641Y324035D01*
X275965Y323359D01*
X275609Y322500D01*
X277500D01*
Y324391D01*
D02*
G37*
G36*
X225500D02*
Y322500D01*
X227391D01*
X227035Y323359D01*
X226360Y324035D01*
X225500Y324391D01*
D02*
G37*
G36*
X280391Y321500D02*
X278500D01*
Y319609D01*
X279360Y319965D01*
X280035Y320640D01*
X280391Y321500D01*
D02*
G37*
G36*
X277500D02*
X275609D01*
X275965Y320640D01*
X276641Y319965D01*
X277500Y319609D01*
Y321500D01*
D02*
G37*
G36*
X227391D02*
X225500D01*
Y319609D01*
X226360Y319965D01*
X227035Y320640D01*
X227391Y321500D01*
D02*
G37*
G36*
X224500D02*
X222609D01*
X222965Y320640D01*
X223640Y319965D01*
X224500Y319609D01*
Y321500D01*
D02*
G37*
G36*
X394779Y329500D02*
X380500D01*
Y315220D01*
X381163D01*
X383461Y315584D01*
X385673Y316303D01*
X387746Y317359D01*
X389628Y318727D01*
X391273Y320372D01*
X392641Y322254D01*
X393697Y324327D01*
X394416Y326539D01*
X394779Y328837D01*
Y329500D01*
D02*
G37*
G36*
X379500D02*
X365220D01*
Y328837D01*
X365584Y326539D01*
X366303Y324327D01*
X367359Y322254D01*
X368727Y320372D01*
X370372Y318727D01*
X372254Y317359D01*
X374327Y316303D01*
X376539Y315584D01*
X378837Y315220D01*
X379500D01*
Y329500D01*
D02*
G37*
G36*
X134780D02*
X120500D01*
Y315220D01*
X121163D01*
X123461Y315584D01*
X125673Y316303D01*
X127746Y317359D01*
X129628Y318727D01*
X131273Y320372D01*
X132641Y322254D01*
X133697Y324327D01*
X134416Y326539D01*
X134780Y328837D01*
Y329500D01*
D02*
G37*
G36*
X119500D02*
X105220D01*
Y328837D01*
X105584Y326539D01*
X106303Y324327D01*
X107359Y322254D01*
X108727Y320372D01*
X110372Y318727D01*
X112254Y317359D01*
X114327Y316303D01*
X116539Y315584D01*
X118837Y315220D01*
X119500D01*
Y329500D01*
D02*
G37*
G36*
X241500Y316891D02*
Y315000D01*
X243391D01*
X243035Y315860D01*
X242359Y316535D01*
X241500Y316891D01*
D02*
G37*
G36*
X240500D02*
X239640Y316535D01*
X238965Y315860D01*
X238609Y315000D01*
X240500D01*
Y316891D01*
D02*
G37*
G36*
X243391Y314000D02*
X241500D01*
Y312109D01*
X242359Y312465D01*
X243035Y313141D01*
X243391Y314000D01*
D02*
G37*
G36*
X240500D02*
X238609D01*
X238965Y313141D01*
X239640Y312465D01*
X240500Y312109D01*
Y314000D01*
D02*
G37*
G36*
X350143Y311643D02*
X341857D01*
Y303357D01*
X350143D01*
Y311643D01*
D02*
G37*
G36*
X336545D02*
X335455D01*
X334401Y311361D01*
X333456Y310816D01*
X332684Y310044D01*
X332139Y309099D01*
X331857Y308046D01*
Y306955D01*
X332139Y305901D01*
X332684Y304956D01*
X333456Y304185D01*
X334401Y303639D01*
X335455Y303357D01*
X336545D01*
X337599Y303639D01*
X338544Y304185D01*
X339316Y304956D01*
X339861Y305901D01*
X340143Y306955D01*
Y308046D01*
X339861Y309099D01*
X339316Y310044D01*
X338544Y310816D01*
X337599Y311361D01*
X336545Y311643D01*
D02*
G37*
G36*
X310143D02*
X301857D01*
Y303357D01*
X310143D01*
Y311643D01*
D02*
G37*
G36*
X222643D02*
X214357D01*
Y303357D01*
X222643D01*
Y311643D01*
D02*
G37*
G36*
X209046D02*
X207955D01*
X206901Y311361D01*
X205956Y310816D01*
X205185Y310044D01*
X204639Y309099D01*
X204357Y308046D01*
Y306955D01*
X204639Y305901D01*
X205185Y304956D01*
X205956Y304185D01*
X206901Y303639D01*
X207955Y303357D01*
X209046D01*
X210099Y303639D01*
X211044Y304185D01*
X211816Y304956D01*
X212361Y305901D01*
X212643Y306955D01*
Y308046D01*
X212361Y309099D01*
X211816Y310044D01*
X211044Y310816D01*
X210099Y311361D01*
X209046Y311643D01*
D02*
G37*
G36*
X180643D02*
X172357D01*
Y303357D01*
X180643D01*
Y311643D01*
D02*
G37*
G36*
X167045D02*
X165954D01*
X164901Y311361D01*
X163956Y310816D01*
X163184Y310044D01*
X162639Y309099D01*
X162357Y308046D01*
Y306955D01*
X162639Y305901D01*
X163184Y304956D01*
X163956Y304185D01*
X164901Y303639D01*
X165954Y303357D01*
X167045D01*
X168099Y303639D01*
X169044Y304185D01*
X169816Y304956D01*
X170361Y305901D01*
X170643Y306955D01*
Y308046D01*
X170361Y309099D01*
X169816Y310044D01*
X169044Y310816D01*
X168099Y311361D01*
X167045Y311643D01*
D02*
G37*
G36*
X235000Y291391D02*
Y289500D01*
X236891D01*
X236535Y290359D01*
X235859Y291035D01*
X235000Y291391D01*
D02*
G37*
G36*
X234000D02*
X233140Y291035D01*
X232465Y290359D01*
X232109Y289500D01*
X234000D01*
Y291391D01*
D02*
G37*
G36*
X129123Y296734D02*
X127877D01*
X126673Y296411D01*
X125593Y295788D01*
X124712Y294907D01*
X124089Y293827D01*
X123766Y292623D01*
Y291377D01*
X124089Y290173D01*
X124712Y289093D01*
X125593Y288212D01*
X126673Y287589D01*
X127877Y287266D01*
X129123D01*
X130327Y287589D01*
X131407Y288212D01*
X132288Y289093D01*
X132911Y290173D01*
X133234Y291377D01*
Y292623D01*
X132911Y293827D01*
X132288Y294907D01*
X131407Y295788D01*
X130327Y296411D01*
X129123Y296734D01*
D02*
G37*
G36*
X114123D02*
X112877D01*
X111673Y296411D01*
X110593Y295788D01*
X109712Y294907D01*
X109089Y293827D01*
X108766Y292623D01*
Y291377D01*
X109089Y290173D01*
X109712Y289093D01*
X110593Y288212D01*
X111673Y287589D01*
X112877Y287266D01*
X114123D01*
X115327Y287589D01*
X116407Y288212D01*
X117288Y289093D01*
X117911Y290173D01*
X118234Y291377D01*
Y292623D01*
X117911Y293827D01*
X117288Y294907D01*
X116407Y295788D01*
X115327Y296411D01*
X114123Y296734D01*
D02*
G37*
G36*
X236891Y288500D02*
X235000D01*
Y286609D01*
X235859Y286965D01*
X236535Y287641D01*
X236891Y288500D01*
D02*
G37*
G36*
X234000D02*
X232109D01*
X232465Y287641D01*
X233140Y286965D01*
X234000Y286609D01*
Y288500D01*
D02*
G37*
G36*
X386123Y295234D02*
X384877D01*
X383673Y294911D01*
X382593Y294288D01*
X381712Y293407D01*
X381089Y292327D01*
X380766Y291123D01*
Y289877D01*
X381089Y288673D01*
X381712Y287593D01*
X382593Y286712D01*
X383673Y286089D01*
X384877Y285766D01*
X386123D01*
X387327Y286089D01*
X388407Y286712D01*
X389288Y287593D01*
X389911Y288673D01*
X390234Y289877D01*
Y291123D01*
X389911Y292327D01*
X389288Y293407D01*
X388407Y294288D01*
X387327Y294911D01*
X386123Y295234D01*
D02*
G37*
G36*
X368623D02*
X367377D01*
X366173Y294911D01*
X365093Y294288D01*
X364212Y293407D01*
X363589Y292327D01*
X363266Y291123D01*
Y289877D01*
X363589Y288673D01*
X364212Y287593D01*
X365093Y286712D01*
X366173Y286089D01*
X367377Y285766D01*
X368623D01*
X369827Y286089D01*
X370907Y286712D01*
X371788Y287593D01*
X372411Y288673D01*
X372734Y289877D01*
Y291123D01*
X372411Y292327D01*
X371788Y293407D01*
X370907Y294288D01*
X369827Y294911D01*
X368623Y295234D01*
D02*
G37*
G36*
X235000Y285891D02*
Y284000D01*
X236891D01*
X236535Y284859D01*
X235859Y285535D01*
X235000Y285891D01*
D02*
G37*
G36*
X234000D02*
X233140Y285535D01*
X232465Y284859D01*
X232109Y284000D01*
X234000D01*
Y285891D01*
D02*
G37*
G36*
X236891Y283000D02*
X235000D01*
Y281109D01*
X235859Y281465D01*
X236535Y282140D01*
X236891Y283000D01*
D02*
G37*
G36*
X234000D02*
X232109D01*
X232465Y282140D01*
X233140Y281465D01*
X234000Y281109D01*
Y283000D01*
D02*
G37*
G36*
X296546Y311643D02*
X295455D01*
X294401Y311361D01*
X293456Y310816D01*
X292685Y310044D01*
X292139Y309099D01*
X291857Y308046D01*
Y306955D01*
X292139Y305901D01*
X292685Y304956D01*
X293456Y304185D01*
X294369Y303658D01*
Y300233D01*
X294493Y299609D01*
X294847Y299080D01*
X303040Y290886D01*
Y286347D01*
X294171Y277478D01*
X283044D01*
X282979Y277542D01*
X282244Y277847D01*
X281449D01*
X280714Y277542D01*
X280151Y276979D01*
X279847Y276244D01*
Y275449D01*
X280151Y274713D01*
X280714Y274151D01*
X281449Y273847D01*
X282244D01*
X282979Y274151D01*
X283044Y274215D01*
X294847D01*
X295471Y274339D01*
X296000Y274693D01*
X305825Y284518D01*
X306179Y285047D01*
X306303Y285672D01*
Y291562D01*
X306179Y292186D01*
X305825Y292715D01*
X297631Y300909D01*
Y303658D01*
X298544Y304185D01*
X299316Y304956D01*
X299861Y305901D01*
X300143Y306955D01*
Y308046D01*
X299861Y309099D01*
X299316Y310044D01*
X298544Y310816D01*
X297599Y311361D01*
X296546Y311643D01*
D02*
G37*
G36*
X259500Y278891D02*
Y277000D01*
X261391D01*
X261035Y277859D01*
X260360Y278535D01*
X259500Y278891D01*
D02*
G37*
G36*
X258500D02*
X257641Y278535D01*
X256965Y277859D01*
X256609Y277000D01*
X258500D01*
Y278891D01*
D02*
G37*
G36*
X261391Y276000D02*
X259500D01*
Y274109D01*
X260360Y274465D01*
X261035Y275141D01*
X261391Y276000D01*
D02*
G37*
G36*
X258500D02*
X256609D01*
X256965Y275141D01*
X257641Y274465D01*
X258500Y274109D01*
Y276000D01*
D02*
G37*
G36*
X111000Y275391D02*
Y273500D01*
X112891D01*
X112535Y274359D01*
X111860Y275035D01*
X111000Y275391D01*
D02*
G37*
G36*
X110000D02*
X109141Y275035D01*
X108465Y274359D01*
X108109Y273500D01*
X110000D01*
Y275391D01*
D02*
G37*
G36*
X112891Y272500D02*
X111000D01*
Y270609D01*
X111860Y270965D01*
X112535Y271640D01*
X112891Y272500D01*
D02*
G37*
G36*
X110000D02*
X108109D01*
X108465Y271640D01*
X109141Y270965D01*
X110000Y270609D01*
Y272500D01*
D02*
G37*
G36*
X270000Y272391D02*
Y270500D01*
X271891D01*
X271535Y271359D01*
X270860Y272035D01*
X270000Y272391D01*
D02*
G37*
G36*
X269000D02*
X268141Y272035D01*
X267465Y271359D01*
X267109Y270500D01*
X269000D01*
Y272391D01*
D02*
G37*
G36*
X121506Y271439D02*
Y269549D01*
X123397D01*
X123040Y270408D01*
X122365Y271083D01*
X121506Y271439D01*
D02*
G37*
G36*
X120506D02*
X119646Y271083D01*
X118971Y270408D01*
X118615Y269549D01*
X120506D01*
Y271439D01*
D02*
G37*
G36*
X279000Y271391D02*
Y269500D01*
X280891D01*
X280535Y270359D01*
X279859Y271035D01*
X279000Y271391D01*
D02*
G37*
G36*
X278000D02*
X277140Y271035D01*
X276465Y270359D01*
X276109Y269500D01*
X278000D01*
Y271391D01*
D02*
G37*
G36*
X271891Y269500D02*
X270000D01*
Y267609D01*
X270860Y267965D01*
X271535Y268640D01*
X271891Y269500D01*
D02*
G37*
G36*
X269000D02*
X267109D01*
X267465Y268640D01*
X268141Y267965D01*
X269000Y267609D01*
Y269500D01*
D02*
G37*
G36*
X123397Y268548D02*
X121506D01*
Y266658D01*
X122365Y267014D01*
X123040Y267689D01*
X123397Y268548D01*
D02*
G37*
G36*
X120506D02*
X118615D01*
X118971Y267689D01*
X119646Y267014D01*
X120506Y266658D01*
Y268548D01*
D02*
G37*
G36*
X280891Y268500D02*
X279000D01*
Y266609D01*
X279859Y266965D01*
X280535Y267640D01*
X280891Y268500D01*
D02*
G37*
G36*
X278000D02*
X276109D01*
X276465Y267640D01*
X277140Y266965D01*
X278000Y266609D01*
Y268500D01*
D02*
G37*
G36*
X227899Y286428D02*
X227104D01*
X226368Y286123D01*
X225806Y285561D01*
X225501Y284826D01*
Y284030D01*
X225806Y283295D01*
X226368Y282732D01*
X226378Y282728D01*
Y267965D01*
X215409Y256995D01*
X215398Y257000D01*
X214602D01*
X213867Y256696D01*
X213304Y256133D01*
X213000Y255398D01*
Y254602D01*
X213304Y253867D01*
X213867Y253305D01*
X214602Y253000D01*
X215398D01*
X216133Y253305D01*
X216695Y253867D01*
X217000Y254602D01*
Y255398D01*
X216995Y255409D01*
X228293Y266707D01*
X228536Y267071D01*
X228622Y267500D01*
X228622Y267500D01*
Y282727D01*
X228634Y282732D01*
X229197Y283295D01*
X229501Y284030D01*
Y284826D01*
X229197Y285561D01*
X228634Y286123D01*
X227899Y286428D01*
D02*
G37*
G36*
X297398Y264000D02*
X296602D01*
X295867Y263696D01*
X295304Y263133D01*
X295000Y262398D01*
Y261602D01*
X295304Y260867D01*
X295867Y260304D01*
X295879Y260300D01*
Y256465D01*
X287035Y247621D01*
X276500D01*
X276500Y247622D01*
X276071Y247536D01*
X275707Y247293D01*
X275707Y247293D01*
X269707Y241293D01*
X269621Y241165D01*
X269122Y241317D01*
Y243035D01*
X276965Y250879D01*
X286500D01*
X286500Y250878D01*
X286929Y250964D01*
X287293Y251207D01*
X292591Y256505D01*
X292602Y256500D01*
X293398D01*
X294133Y256804D01*
X294695Y257367D01*
X295000Y258102D01*
Y258898D01*
X294695Y259633D01*
X294133Y260195D01*
X293398Y260500D01*
X292602D01*
X291867Y260195D01*
X291304Y259633D01*
X291000Y258898D01*
Y258102D01*
X291005Y258091D01*
X286035Y253121D01*
X276500D01*
X276500Y253122D01*
X276071Y253036D01*
X275707Y252793D01*
X275707Y252793D01*
X267207Y244293D01*
X267122Y244165D01*
X266621Y244317D01*
Y246035D01*
X274465Y253878D01*
X284000D01*
X284000Y253878D01*
X284429Y253964D01*
X284793Y254207D01*
X287091Y256505D01*
X287102Y256500D01*
X287898D01*
X288633Y256804D01*
X289195Y257367D01*
X289500Y258102D01*
Y258898D01*
X289195Y259633D01*
X288633Y260195D01*
X287898Y260500D01*
X287102D01*
X286367Y260195D01*
X285805Y259633D01*
X285500Y258898D01*
Y258102D01*
X285505Y258091D01*
X283535Y256121D01*
X274000D01*
X274000Y256122D01*
X273571Y256036D01*
X273207Y255793D01*
X273207Y255793D01*
X264707Y247293D01*
X264621Y247165D01*
X264122Y247317D01*
Y250035D01*
X271725Y257639D01*
X280411D01*
X280416Y257627D01*
X280978Y257065D01*
X281714Y256760D01*
X282509D01*
X283244Y257065D01*
X283807Y257627D01*
X284111Y258362D01*
Y259158D01*
X283807Y259893D01*
X283244Y260456D01*
X282509Y260760D01*
X281714D01*
X280978Y260456D01*
X280416Y259893D01*
X280411Y259882D01*
X271260D01*
X271260Y259882D01*
X270831Y259796D01*
X270467Y259553D01*
X262207Y251293D01*
X261964Y250929D01*
X261878Y250500D01*
X261878Y250500D01*
Y218965D01*
X261252Y218338D01*
X260314D01*
X260182Y218678D01*
X260167Y218838D01*
X260696Y219367D01*
X261000Y220102D01*
Y220898D01*
X260696Y221633D01*
X260133Y222196D01*
X259398Y222500D01*
X258602D01*
X257867Y222196D01*
X257305Y221633D01*
X257300Y221621D01*
X256791D01*
X256691Y222122D01*
X257133Y222305D01*
X257696Y222867D01*
X258000Y223602D01*
Y224398D01*
X257696Y225133D01*
X257133Y225695D01*
X256398Y226000D01*
X255602D01*
X254867Y225695D01*
X254305Y225133D01*
X254300Y225121D01*
X246170D01*
X246149Y225172D01*
X245587Y225734D01*
X244852Y226039D01*
X244056D01*
X243321Y225734D01*
X242758Y225172D01*
X242454Y224437D01*
Y223641D01*
X242758Y222906D01*
X243321Y222343D01*
X243857Y222122D01*
X243757Y221621D01*
X241167D01*
X240601Y222187D01*
Y222898D01*
X240297Y223633D01*
X239734Y224196D01*
X238999Y224500D01*
X238203D01*
X237468Y224196D01*
X236906Y223633D01*
X236601Y222898D01*
Y222102D01*
X236906Y221367D01*
X237468Y220805D01*
X238203Y220500D01*
X238999D01*
X239082Y220534D01*
X239909Y219707D01*
X239909Y219707D01*
X240273Y219464D01*
X240702Y219378D01*
X240703Y219378D01*
X241052D01*
X241184Y219038D01*
X241199Y218879D01*
X240670Y218349D01*
X240365Y217614D01*
Y216819D01*
X240670Y216084D01*
X241232Y215521D01*
X241968Y215216D01*
X242763D01*
X243498Y215521D01*
X244061Y216084D01*
X244066Y216095D01*
X261717D01*
X261717Y216095D01*
X261823Y216116D01*
X262069Y215655D01*
X260035Y213621D01*
X244200D01*
X244196Y213633D01*
X243633Y214195D01*
X242898Y214500D01*
X242102D01*
X241367Y214195D01*
X240805Y213633D01*
X240500Y212898D01*
Y212102D01*
X240743Y211515D01*
X240552Y211116D01*
X240451Y211015D01*
X240245D01*
X240195Y211133D01*
X239633Y211696D01*
X238898Y212000D01*
X238102D01*
X237367Y211696D01*
X236805Y211133D01*
X236500Y210398D01*
Y209602D01*
X236805Y208867D01*
X237269Y208403D01*
X237253Y207986D01*
X237199Y207833D01*
X236867Y207696D01*
X236304Y207133D01*
X236000Y206398D01*
Y205602D01*
X236304Y204867D01*
X236867Y204305D01*
X237602Y204000D01*
X238398D01*
X238400Y204001D01*
X238683Y203577D01*
X238465Y203360D01*
X238109Y202500D01*
X242891D01*
X242535Y203360D01*
X241860Y204035D01*
X240977Y204400D01*
X241029Y204878D01*
X262500D01*
X262500Y204878D01*
X262929Y204964D01*
X263293Y205207D01*
X271293Y213207D01*
X271293Y213207D01*
X271536Y213571D01*
X271622Y214000D01*
X271621Y214000D01*
Y229650D01*
X272105Y229779D01*
X272212Y229593D01*
X273093Y228712D01*
X274173Y228089D01*
X275377Y227766D01*
X276623D01*
X277827Y228089D01*
X278907Y228712D01*
X279788Y229593D01*
X280411Y230673D01*
X280734Y231877D01*
Y233123D01*
X280411Y234327D01*
X279788Y235407D01*
X278907Y236288D01*
X277827Y236911D01*
X276623Y237234D01*
X275377D01*
X274173Y236911D01*
X273093Y236288D01*
X272212Y235407D01*
X272105Y235221D01*
X271621Y235350D01*
Y240035D01*
X276965Y245378D01*
X287500D01*
X287500Y245378D01*
X287929Y245464D01*
X288293Y245707D01*
X297793Y255207D01*
X297793Y255207D01*
X298036Y255571D01*
X298122Y256000D01*
X298122Y256000D01*
Y260300D01*
X298133Y260304D01*
X298695Y260867D01*
X299000Y261602D01*
Y262398D01*
X298695Y263133D01*
X298133Y263696D01*
X297398Y264000D01*
D02*
G37*
G36*
X153623Y259234D02*
X152377D01*
X151173Y258911D01*
X150093Y258288D01*
X149212Y257407D01*
X148589Y256327D01*
X148266Y255123D01*
Y253877D01*
X148589Y252673D01*
X149212Y251593D01*
X150093Y250712D01*
X151173Y250089D01*
X152377Y249766D01*
X153623D01*
X154827Y250089D01*
X155907Y250712D01*
X156788Y251593D01*
X157411Y252673D01*
X157734Y253877D01*
Y255123D01*
X157411Y256327D01*
X156788Y257407D01*
X155907Y258288D01*
X154827Y258911D01*
X153623Y259234D01*
D02*
G37*
G36*
X227000Y248891D02*
Y247000D01*
X228891D01*
X228535Y247860D01*
X227859Y248535D01*
X227000Y248891D01*
D02*
G37*
G36*
X226000D02*
X225141Y248535D01*
X224465Y247860D01*
X224109Y247000D01*
X226000D01*
Y248891D01*
D02*
G37*
G36*
X228891Y246000D02*
X227000D01*
Y244109D01*
X227859Y244465D01*
X228535Y245141D01*
X228891Y246000D01*
D02*
G37*
G36*
X226000D02*
X224109D01*
X224465Y245141D01*
X225141Y244465D01*
X226000Y244109D01*
Y246000D01*
D02*
G37*
G36*
X168500Y243391D02*
Y241500D01*
X170391D01*
X170035Y242359D01*
X169360Y243035D01*
X168500Y243391D01*
D02*
G37*
G36*
X167500D02*
X166640Y243035D01*
X165965Y242359D01*
X165609Y241500D01*
X167500D01*
Y243391D01*
D02*
G37*
G36*
X251000Y241891D02*
Y240000D01*
X252891D01*
X252535Y240860D01*
X251859Y241535D01*
X251000Y241891D01*
D02*
G37*
G36*
X250000D02*
X249141Y241535D01*
X248465Y240860D01*
X248109Y240000D01*
X250000D01*
Y241891D01*
D02*
G37*
G36*
X170391Y240500D02*
X168500D01*
Y238609D01*
X169360Y238965D01*
X170035Y239640D01*
X170391Y240500D01*
D02*
G37*
G36*
X167500D02*
X165609D01*
X165965Y239640D01*
X166640Y238965D01*
X167500Y238609D01*
Y240500D01*
D02*
G37*
G36*
X252891Y239000D02*
X251000D01*
Y237109D01*
X251859Y237465D01*
X252535Y238141D01*
X252891Y239000D01*
D02*
G37*
G36*
X250000D02*
X248109D01*
X248465Y238141D01*
X249141Y237465D01*
X250000Y237109D01*
Y239000D01*
D02*
G37*
G36*
X244000Y232891D02*
Y231000D01*
X245891D01*
X245535Y231859D01*
X244860Y232535D01*
X244000Y232891D01*
D02*
G37*
G36*
X243000D02*
X242141Y232535D01*
X241465Y231859D01*
X241109Y231000D01*
X243000D01*
Y232891D01*
D02*
G37*
G36*
X167500Y230891D02*
Y229000D01*
X169391D01*
X169035Y229859D01*
X168359Y230535D01*
X167500Y230891D01*
D02*
G37*
G36*
X166500D02*
X165640Y230535D01*
X164965Y229859D01*
X164609Y229000D01*
X166500D01*
Y230891D01*
D02*
G37*
G36*
X134500D02*
Y229000D01*
X136391D01*
X136035Y229859D01*
X135360Y230535D01*
X134500Y230891D01*
D02*
G37*
G36*
X133500D02*
X132641Y230535D01*
X131965Y229859D01*
X131609Y229000D01*
X133500D01*
Y230891D01*
D02*
G37*
G36*
X117760Y230551D02*
Y228660D01*
X119651D01*
X119295Y229520D01*
X118620Y230195D01*
X117760Y230551D01*
D02*
G37*
G36*
X116760D02*
X115901Y230195D01*
X115225Y229520D01*
X114869Y228660D01*
X116760D01*
Y230551D01*
D02*
G37*
G36*
X151500Y230391D02*
Y228500D01*
X153391D01*
X153035Y229360D01*
X152359Y230035D01*
X151500Y230391D01*
D02*
G37*
G36*
X150500D02*
X149641Y230035D01*
X148965Y229360D01*
X148609Y228500D01*
X150500D01*
Y230391D01*
D02*
G37*
G36*
X245891Y230000D02*
X244000D01*
Y228109D01*
X244860Y228465D01*
X245535Y229140D01*
X245891Y230000D01*
D02*
G37*
G36*
X243000D02*
X241109D01*
X241465Y229140D01*
X242141Y228465D01*
X243000Y228109D01*
Y230000D01*
D02*
G37*
G36*
X292623Y237234D02*
X291377D01*
X290173Y236911D01*
X289093Y236288D01*
X288212Y235407D01*
X287589Y234327D01*
X287266Y233123D01*
Y231877D01*
X287589Y230673D01*
X288212Y229593D01*
X289093Y228712D01*
X290173Y228089D01*
X291377Y227766D01*
X292623D01*
X293827Y228089D01*
X294907Y228712D01*
X295788Y229593D01*
X296411Y230673D01*
X296734Y231877D01*
Y233123D01*
X296411Y234327D01*
X295788Y235407D01*
X294907Y236288D01*
X293827Y236911D01*
X292623Y237234D01*
D02*
G37*
G36*
X169391Y228000D02*
X167500D01*
Y226109D01*
X168359Y226465D01*
X169035Y227140D01*
X169391Y228000D01*
D02*
G37*
G36*
X166500D02*
X164609D01*
X164965Y227140D01*
X165640Y226465D01*
X166500Y226109D01*
Y228000D01*
D02*
G37*
G36*
X136391D02*
X134500D01*
Y226109D01*
X135360Y226465D01*
X136035Y227140D01*
X136391Y228000D01*
D02*
G37*
G36*
X133500D02*
X131609D01*
X131965Y227140D01*
X132641Y226465D01*
X133500Y226109D01*
Y228000D01*
D02*
G37*
G36*
X119651Y227660D02*
X117760D01*
Y225770D01*
X118620Y226126D01*
X119295Y226801D01*
X119651Y227660D01*
D02*
G37*
G36*
X116760D02*
X114869D01*
X115225Y226801D01*
X115901Y226126D01*
X116760Y225770D01*
Y227660D01*
D02*
G37*
G36*
X153391Y227500D02*
X151500D01*
Y225609D01*
X152359Y225965D01*
X153035Y226641D01*
X153391Y227500D01*
D02*
G37*
G36*
X150500D02*
X148609D01*
X148965Y226641D01*
X149641Y225965D01*
X150500Y225609D01*
Y227500D01*
D02*
G37*
G36*
X198830Y246577D02*
X198034D01*
X197299Y246273D01*
X196736Y245710D01*
X196432Y244975D01*
Y244179D01*
X196736Y243444D01*
X197299Y242882D01*
X197310Y242877D01*
Y238397D01*
X194707Y235793D01*
X194464Y235429D01*
X194378Y235000D01*
X194378Y235000D01*
Y229965D01*
X182933Y218519D01*
X182379Y218672D01*
X182355Y218769D01*
X193293Y229707D01*
X193293Y229707D01*
X193536Y230071D01*
X193622Y230500D01*
X193622Y230500D01*
Y242300D01*
X193633Y242304D01*
X194195Y242867D01*
X194500Y243602D01*
Y244398D01*
X194195Y245133D01*
X193633Y245695D01*
X192898Y246000D01*
X192102D01*
X191367Y245695D01*
X190805Y245133D01*
X190500Y244398D01*
Y243602D01*
X190805Y242867D01*
X191367Y242304D01*
X191378Y242300D01*
Y230965D01*
X180207Y219793D01*
X179964Y219429D01*
X179878Y219000D01*
X179878Y219000D01*
Y207000D01*
X179878Y207000D01*
X179964Y206571D01*
X180207Y206207D01*
X184207Y202207D01*
X184207Y202207D01*
X184571Y201964D01*
X185000Y201878D01*
X195800D01*
X195805Y201867D01*
X196367Y201305D01*
X196506Y200706D01*
X196469Y200631D01*
X183197D01*
X183133Y200695D01*
X182398Y201000D01*
X181602D01*
X180867Y200695D01*
X180803Y200631D01*
X175197D01*
X175133Y200695D01*
X174398Y201000D01*
X173602D01*
X172867Y200695D01*
X172304Y200133D01*
X172000Y199398D01*
Y198602D01*
X172304Y197867D01*
X172867Y197304D01*
X173602Y197000D01*
X174398D01*
X175133Y197304D01*
X175197Y197369D01*
X180803D01*
X180867Y197304D01*
X181602Y197000D01*
X182398D01*
X183133Y197304D01*
X183197Y197369D01*
X196803D01*
X196867Y197304D01*
X197602Y197000D01*
X198398D01*
X199133Y197304D01*
X199696Y197867D01*
X200000Y198602D01*
Y199398D01*
X199696Y200133D01*
X199133Y200695D01*
X198801Y200833D01*
X198747Y200986D01*
X198731Y201403D01*
X199196Y201867D01*
X199500Y202602D01*
Y203398D01*
X199196Y204133D01*
X198731Y204597D01*
X198747Y205014D01*
X198801Y205167D01*
X199133Y205305D01*
X199696Y205867D01*
X200000Y206602D01*
Y207398D01*
X199696Y208133D01*
X199133Y208696D01*
X198398Y209000D01*
X197602D01*
X196867Y208696D01*
X196305Y208133D01*
X196300Y208121D01*
X194855D01*
X194663Y208583D01*
X199458Y213379D01*
X211126D01*
X211333Y212878D01*
X210916Y212462D01*
X210560Y211602D01*
X215342D01*
X214986Y212462D01*
X214311Y213137D01*
X213688Y213395D01*
X213550Y213964D01*
X216091Y216505D01*
X216102Y216500D01*
X216898D01*
X217633Y216805D01*
X218196Y217367D01*
X218500Y218102D01*
Y218898D01*
X218196Y219633D01*
X217633Y220196D01*
X216898Y220500D01*
X216102D01*
X215367Y220196D01*
X214805Y219633D01*
X214500Y218898D01*
Y218853D01*
X214001Y218851D01*
X213696Y219586D01*
X213134Y220149D01*
X212399Y220453D01*
X211603D01*
X210868Y220149D01*
X210305Y219586D01*
X210301Y219575D01*
X196953D01*
X196953Y219575D01*
X196524Y219489D01*
X196160Y219246D01*
X196160Y219246D01*
X190909Y213995D01*
X190898Y214000D01*
X190102D01*
X189367Y213696D01*
X188804Y213133D01*
X188500Y212398D01*
Y211602D01*
X188804Y210867D01*
X189367Y210304D01*
X189154Y209865D01*
X188948Y209950D01*
X188152D01*
X187417Y209646D01*
X186855Y209083D01*
X186550Y208348D01*
Y207552D01*
X186768Y207025D01*
X186345Y206742D01*
X184622Y208465D01*
Y217035D01*
X196293Y228707D01*
X196293Y228707D01*
X196536Y229071D01*
X196622Y229500D01*
Y234535D01*
X199225Y237139D01*
X199225Y237139D01*
X199468Y237503D01*
X199554Y237932D01*
X199554Y237932D01*
Y242877D01*
X199565Y242882D01*
X200127Y243444D01*
X200432Y244179D01*
Y244975D01*
X200127Y245710D01*
X199565Y246273D01*
X198830Y246577D01*
D02*
G37*
G36*
X169500Y218391D02*
Y216500D01*
X171391D01*
X171035Y217359D01*
X170360Y218035D01*
X169500Y218391D01*
D02*
G37*
G36*
X168500D02*
X167640Y218035D01*
X166965Y217359D01*
X166609Y216500D01*
X168500D01*
Y218391D01*
D02*
G37*
G36*
X113500D02*
Y216500D01*
X115391D01*
X115035Y217359D01*
X114359Y218035D01*
X113500Y218391D01*
D02*
G37*
G36*
X112500D02*
X111641Y218035D01*
X110965Y217359D01*
X110609Y216500D01*
X112500D01*
Y218391D01*
D02*
G37*
G36*
X365506Y217000D02*
X364710D01*
X363975Y216695D01*
X363911Y216631D01*
X332716D01*
X332092Y216507D01*
X332082Y216500D01*
X331602D01*
X330867Y216196D01*
X330803Y216131D01*
X299697D01*
X299633Y216196D01*
X298898Y216500D01*
X298102D01*
X297367Y216196D01*
X297294Y216123D01*
X288789D01*
X288734Y216179D01*
X287998Y216483D01*
X287203D01*
X286468Y216179D01*
X285905Y215616D01*
X285601Y214881D01*
Y214085D01*
X285905Y213350D01*
X286468Y212788D01*
X287203Y212483D01*
X287998D01*
X288734Y212788D01*
X288806Y212860D01*
X297311D01*
X297367Y212805D01*
X298102Y212500D01*
X298898D01*
X299633Y212805D01*
X299697Y212869D01*
X307294D01*
Y194141D01*
X307230Y194077D01*
X306925Y193342D01*
Y192546D01*
X307230Y191811D01*
X307294Y191747D01*
Y176101D01*
X300824Y169631D01*
X287697D01*
X287633Y169695D01*
X286898Y170000D01*
X286102D01*
X285367Y169695D01*
X284805Y169133D01*
X284500Y168398D01*
Y167602D01*
X284805Y166867D01*
X285367Y166305D01*
X286102Y166000D01*
X286898D01*
X287633Y166305D01*
X287697Y166369D01*
X301500D01*
X302124Y166493D01*
X302654Y166847D01*
X310079Y174272D01*
X310432Y174801D01*
X310556Y175425D01*
Y191747D01*
X310621Y191811D01*
X310925Y192546D01*
Y193342D01*
X310621Y194077D01*
X310556Y194141D01*
Y212869D01*
X330803D01*
X330867Y212805D01*
X331602Y212500D01*
X332398D01*
X333133Y212805D01*
X333696Y213367D01*
X333696Y213369D01*
X363911D01*
X363975Y213304D01*
X364710Y213000D01*
X365506D01*
X366241Y213304D01*
X366305Y213369D01*
X372824D01*
X378369Y207824D01*
Y202197D01*
X378305Y202133D01*
X378000Y201398D01*
Y200602D01*
X378305Y199867D01*
X378867Y199304D01*
X379602Y199000D01*
X380398D01*
X381133Y199304D01*
X381696Y199867D01*
X382000Y200602D01*
Y201398D01*
X381696Y202133D01*
X381631Y202197D01*
Y208500D01*
X381507Y209124D01*
X381153Y209653D01*
X374654Y216154D01*
X374124Y216507D01*
X373500Y216631D01*
X366305D01*
X366241Y216695D01*
X365506Y217000D01*
D02*
G37*
G36*
X171391Y215500D02*
X169500D01*
Y213609D01*
X170360Y213965D01*
X171035Y214640D01*
X171391Y215500D01*
D02*
G37*
G36*
X168500D02*
X166609D01*
X166965Y214640D01*
X167640Y213965D01*
X168500Y213609D01*
Y215500D01*
D02*
G37*
G36*
X115391D02*
X113500D01*
Y213609D01*
X114359Y213965D01*
X115035Y214640D01*
X115391Y215500D01*
D02*
G37*
G36*
X112500D02*
X110609D01*
X110965Y214640D01*
X111641Y213965D01*
X112500Y213609D01*
Y215500D01*
D02*
G37*
G36*
X124500Y214391D02*
Y212500D01*
X126391D01*
X126035Y213359D01*
X125359Y214035D01*
X124500Y214391D01*
D02*
G37*
G36*
X123500D02*
X122641Y214035D01*
X121965Y213359D01*
X121609Y212500D01*
X123500D01*
Y214391D01*
D02*
G37*
G36*
X223898Y273500D02*
X223102D01*
X222367Y273196D01*
X221804Y272633D01*
X221500Y271898D01*
Y271102D01*
X221651Y270737D01*
X210207Y259293D01*
X209964Y258929D01*
X209878Y258500D01*
X209878Y258500D01*
Y242500D01*
X209878Y242500D01*
X209964Y242071D01*
X210207Y241707D01*
X214707Y237207D01*
X214707Y237207D01*
X215071Y236964D01*
X215500Y236878D01*
X215500Y236878D01*
X223535D01*
X229379Y231035D01*
Y210291D01*
X228878Y210191D01*
X228696Y210633D01*
X228133Y211195D01*
X228121Y211200D01*
Y229000D01*
X228122Y229000D01*
X228036Y229429D01*
X227793Y229793D01*
X227793Y229793D01*
X222293Y235293D01*
X221929Y235536D01*
X221500Y235622D01*
X221500Y235622D01*
X213965D01*
X208121Y241465D01*
Y260035D01*
X217492Y269406D01*
X217493Y269406D01*
X217518Y269445D01*
X217573Y269500D01*
X217898D01*
X218633Y269805D01*
X219196Y270367D01*
X219500Y271102D01*
Y271898D01*
X219196Y272633D01*
X218633Y273196D01*
X217898Y273500D01*
X217102D01*
X216367Y273196D01*
X215805Y272633D01*
X215500Y271898D01*
Y271102D01*
X215651Y270737D01*
X206207Y261293D01*
X205964Y260929D01*
X205878Y260500D01*
X205878Y260500D01*
Y241000D01*
X205878Y241000D01*
X205964Y240571D01*
X206207Y240207D01*
X212707Y233707D01*
X212707Y233707D01*
X213071Y233464D01*
X213500Y233378D01*
X213500Y233379D01*
X221035D01*
X225879Y228536D01*
Y211200D01*
X225867Y211195D01*
X225305Y210633D01*
X225000Y209898D01*
Y209102D01*
X225305Y208367D01*
X225867Y207804D01*
X226602Y207500D01*
X227398D01*
X228133Y207804D01*
X228696Y208367D01*
X228878Y208809D01*
X229379Y208709D01*
Y207965D01*
X226714Y205300D01*
X224700D01*
X224695Y205311D01*
X224133Y205874D01*
X223398Y206178D01*
X222602D01*
X221867Y205874D01*
X221304Y205311D01*
X221000Y204576D01*
Y203781D01*
X221304Y203045D01*
X221867Y202483D01*
X222602Y202178D01*
X223398D01*
X224133Y202483D01*
X224695Y203045D01*
X224700Y203057D01*
X227178D01*
X227178Y203057D01*
X227607Y203142D01*
X227971Y203385D01*
X231293Y206707D01*
X231293Y206707D01*
X231536Y207071D01*
X231622Y207500D01*
X231622Y207500D01*
Y231500D01*
X231622Y231500D01*
X231536Y231929D01*
X231293Y232293D01*
X231293Y232293D01*
X224793Y238793D01*
X224429Y239036D01*
X224000Y239122D01*
X224000Y239122D01*
X215965D01*
X212122Y242965D01*
Y258035D01*
X223493Y269406D01*
X223518Y269445D01*
X223573Y269500D01*
X223898D01*
X224633Y269805D01*
X225196Y270367D01*
X225500Y271102D01*
Y271898D01*
X225196Y272633D01*
X224633Y273196D01*
X223898Y273500D01*
D02*
G37*
G36*
X126391Y211500D02*
X124500D01*
Y209609D01*
X125359Y209965D01*
X126035Y210641D01*
X126391Y211500D01*
D02*
G37*
G36*
X123500D02*
X121609D01*
X121965Y210641D01*
X122641Y209965D01*
X123500Y209609D01*
Y211500D01*
D02*
G37*
G36*
X215342Y210602D02*
X213451D01*
Y208712D01*
X214311Y209068D01*
X214986Y209743D01*
X215342Y210602D01*
D02*
G37*
G36*
X212451D02*
X210560D01*
X210916Y209743D01*
X211592Y209068D01*
X212451Y208712D01*
Y210602D01*
D02*
G37*
G36*
X374168Y204000D02*
X373308Y203644D01*
X372633Y202969D01*
X372332Y202242D01*
X371806Y202205D01*
X371535Y202859D01*
X370860Y203535D01*
X370000Y203891D01*
Y201500D01*
Y199109D01*
X370860Y199465D01*
X371535Y200141D01*
X371836Y200868D01*
X372362Y200904D01*
X372633Y200250D01*
X373308Y199575D01*
X374168Y199219D01*
Y201610D01*
Y204000D01*
D02*
G37*
G36*
X375168D02*
Y202110D01*
X377058D01*
X376702Y202969D01*
X376027Y203644D01*
X375168Y204000D01*
D02*
G37*
G36*
X369000Y203891D02*
X368141Y203535D01*
X367465Y202859D01*
X367109Y202000D01*
X369000D01*
Y203891D01*
D02*
G37*
G36*
X360001Y202530D02*
Y200639D01*
X361892D01*
X361536Y201499D01*
X360860Y202174D01*
X360001Y202530D01*
D02*
G37*
G36*
X359001D02*
X358141Y202174D01*
X357466Y201499D01*
X357110Y200639D01*
X359001D01*
Y202530D01*
D02*
G37*
G36*
X242891Y201500D02*
X241000D01*
Y199609D01*
X241860Y199965D01*
X242535Y200641D01*
X242891Y201500D01*
D02*
G37*
G36*
X240000D02*
X238109D01*
X238465Y200641D01*
X239141Y199965D01*
X240000Y199609D01*
Y201500D01*
D02*
G37*
G36*
X377058Y201110D02*
X375168D01*
Y199219D01*
X376027Y199575D01*
X376702Y200250D01*
X377058Y201110D01*
D02*
G37*
G36*
X369000Y201000D02*
X367109D01*
X367465Y200141D01*
X368141Y199465D01*
X369000Y199109D01*
Y201000D01*
D02*
G37*
G36*
X361892Y199639D02*
X360001D01*
Y197749D01*
X360860Y198105D01*
X361536Y198780D01*
X361892Y199639D01*
D02*
G37*
G36*
X359001D02*
X357110D01*
X357466Y198780D01*
X358141Y198105D01*
X359001Y197749D01*
Y199639D01*
D02*
G37*
G36*
X193000Y196391D02*
Y194500D01*
X194891D01*
X194535Y195360D01*
X193860Y196035D01*
X193000Y196391D01*
D02*
G37*
G36*
X192000D02*
X191140Y196035D01*
X190465Y195360D01*
X190109Y194500D01*
X192000D01*
Y196391D01*
D02*
G37*
G36*
X194891Y193500D02*
X193000D01*
Y191609D01*
X193860Y191965D01*
X194535Y192640D01*
X194891Y193500D01*
D02*
G37*
G36*
X192000D02*
X190109D01*
X190465Y192640D01*
X191140Y191965D01*
X192000Y191609D01*
Y193500D01*
D02*
G37*
G36*
X213500Y191391D02*
Y189500D01*
X215391D01*
X215035Y190359D01*
X214359Y191035D01*
X213500Y191391D01*
D02*
G37*
G36*
X212500D02*
X211641Y191035D01*
X210965Y190359D01*
X210609Y189500D01*
X212500D01*
Y191391D01*
D02*
G37*
G36*
X321000Y190391D02*
Y188500D01*
X322891D01*
X322535Y189359D01*
X321860Y190035D01*
X321000Y190391D01*
D02*
G37*
G36*
X320000D02*
X319141Y190035D01*
X318465Y189359D01*
X318109Y188500D01*
X320000D01*
Y190391D01*
D02*
G37*
G36*
X212500Y188500D02*
X210609D01*
X210965Y187641D01*
X211641Y186965D01*
X212500Y186609D01*
Y188500D01*
D02*
G37*
G36*
X322891Y187500D02*
X321000D01*
Y185609D01*
X321860Y185965D01*
X322535Y186641D01*
X322891Y187500D01*
D02*
G37*
G36*
X320000D02*
X318109D01*
X318465Y186641D01*
X319141Y185965D01*
X320000Y185609D01*
Y187500D01*
D02*
G37*
G36*
X249000Y186891D02*
Y185000D01*
X250891D01*
X250535Y185860D01*
X249859Y186535D01*
X249000Y186891D01*
D02*
G37*
G36*
X248000D02*
X247141Y186535D01*
X246465Y185860D01*
X246109Y185000D01*
X248000D01*
Y186891D01*
D02*
G37*
G36*
X216000D02*
Y185000D01*
X217891D01*
X217535Y185860D01*
X216860Y186535D01*
X216000Y186891D01*
D02*
G37*
G36*
X215391Y188500D02*
X213500D01*
Y186609D01*
X213514Y186615D01*
X213797Y186191D01*
X213465Y185860D01*
X213109Y185000D01*
X215000D01*
Y186891D01*
X214986Y186885D01*
X214703Y187309D01*
X215035Y187641D01*
X215391Y188500D01*
D02*
G37*
G36*
X250891Y184000D02*
X249000D01*
Y182109D01*
X249859Y182465D01*
X250535Y183141D01*
X250891Y184000D01*
D02*
G37*
G36*
X248000D02*
X246109D01*
X246465Y183141D01*
X247141Y182465D01*
X248000Y182109D01*
Y184000D01*
D02*
G37*
G36*
X217891D02*
X216000D01*
Y182109D01*
X216860Y182465D01*
X217535Y183141D01*
X217891Y184000D01*
D02*
G37*
G36*
X215000D02*
X213109D01*
X213465Y183141D01*
X214141Y182465D01*
X215000Y182109D01*
Y184000D01*
D02*
G37*
G36*
X186500Y178499D02*
Y176608D01*
X188391D01*
X188035Y177468D01*
X187359Y178143D01*
X186500Y178499D01*
D02*
G37*
G36*
X185500D02*
X184641Y178143D01*
X183965Y177468D01*
X183609Y176608D01*
X185500D01*
Y178499D01*
D02*
G37*
G36*
X317500Y176891D02*
Y175000D01*
X319391D01*
X319035Y175859D01*
X318359Y176535D01*
X317500Y176891D01*
D02*
G37*
G36*
X316500D02*
X315640Y176535D01*
X314965Y175859D01*
X314609Y175000D01*
X316500D01*
Y176891D01*
D02*
G37*
G36*
X282123Y183734D02*
X280877D01*
X279673Y183411D01*
X278593Y182788D01*
X277712Y181907D01*
X277089Y180827D01*
X276766Y179623D01*
Y178377D01*
X277089Y177173D01*
X277712Y176093D01*
X278593Y175212D01*
X279673Y174589D01*
X280877Y174266D01*
X282123D01*
X283327Y174589D01*
X284407Y175212D01*
X285288Y176093D01*
X285911Y177173D01*
X286234Y178377D01*
Y179623D01*
X285911Y180827D01*
X285288Y181907D01*
X284407Y182788D01*
X283327Y183411D01*
X282123Y183734D01*
D02*
G37*
G36*
X267123D02*
X265877D01*
X264673Y183411D01*
X263593Y182788D01*
X262712Y181907D01*
X262089Y180827D01*
X261766Y179623D01*
Y178377D01*
X262089Y177173D01*
X262712Y176093D01*
X263593Y175212D01*
X264673Y174589D01*
X265877Y174266D01*
X267123D01*
X268327Y174589D01*
X269407Y175212D01*
X270288Y176093D01*
X270911Y177173D01*
X271234Y178377D01*
Y179623D01*
X270911Y180827D01*
X270288Y181907D01*
X269407Y182788D01*
X268327Y183411D01*
X267123Y183734D01*
D02*
G37*
G36*
X188391Y175608D02*
X186500D01*
Y173718D01*
X187359Y174074D01*
X188035Y174749D01*
X188391Y175608D01*
D02*
G37*
G36*
X185500D02*
X183609D01*
X183965Y174749D01*
X184641Y174074D01*
X185500Y173718D01*
Y175608D01*
D02*
G37*
G36*
X319391Y174000D02*
X317500D01*
Y172109D01*
X318359Y172465D01*
X319035Y173141D01*
X319391Y174000D01*
D02*
G37*
G36*
X316500D02*
X314609D01*
X314965Y173141D01*
X315640Y172465D01*
X316500Y172109D01*
Y174000D01*
D02*
G37*
G36*
X118000Y172391D02*
Y170500D01*
X119891D01*
X119535Y171360D01*
X118860Y172035D01*
X118000Y172391D01*
D02*
G37*
G36*
X117000D02*
X116140Y172035D01*
X115465Y171360D01*
X115109Y170500D01*
X117000D01*
Y172391D01*
D02*
G37*
G36*
X135000Y171891D02*
Y170000D01*
X136891D01*
X136535Y170860D01*
X135860Y171535D01*
X135000Y171891D01*
D02*
G37*
G36*
X134000D02*
X133141Y171535D01*
X132465Y170860D01*
X132109Y170000D01*
X134000D01*
Y171891D01*
D02*
G37*
G36*
X151000Y171391D02*
Y169500D01*
X152891D01*
X152535Y170360D01*
X151859Y171035D01*
X151000Y171391D01*
D02*
G37*
G36*
X150000D02*
X149141Y171035D01*
X148465Y170360D01*
X148109Y169500D01*
X150000D01*
Y171391D01*
D02*
G37*
G36*
X119891Y169500D02*
X118000D01*
Y167609D01*
X118860Y167965D01*
X119535Y168640D01*
X119891Y169500D01*
D02*
G37*
G36*
X117000D02*
X115109D01*
X115465Y168640D01*
X116140Y167965D01*
X117000Y167609D01*
Y169500D01*
D02*
G37*
G36*
X136891Y169000D02*
X135000D01*
Y167109D01*
X135860Y167465D01*
X136535Y168140D01*
X136891Y169000D01*
D02*
G37*
G36*
X134000D02*
X132109D01*
X132465Y168140D01*
X133141Y167465D01*
X134000Y167109D01*
Y169000D01*
D02*
G37*
G36*
X152891Y168500D02*
X151000D01*
Y166609D01*
X151859Y166965D01*
X152535Y167640D01*
X152891Y168500D01*
D02*
G37*
G36*
X150000D02*
X148109D01*
X148465Y167640D01*
X149141Y166965D01*
X150000Y166609D01*
Y168500D01*
D02*
G37*
G36*
X171398Y184500D02*
X170602D01*
X169867Y184195D01*
X169305Y183633D01*
X169000Y182898D01*
Y182102D01*
X169305Y181367D01*
X169867Y180805D01*
X169878Y180800D01*
Y170000D01*
X169878Y170000D01*
X169964Y169571D01*
X170207Y169207D01*
X180707Y158707D01*
X180707Y158707D01*
X181071Y158464D01*
X181500Y158378D01*
X215000D01*
X215000Y158378D01*
X215429Y158464D01*
X215793Y158707D01*
X220040Y162954D01*
X220673Y162589D01*
X221877Y162266D01*
X223123D01*
X224327Y162589D01*
X225407Y163212D01*
X226288Y164093D01*
X226911Y165173D01*
X227234Y166377D01*
Y167623D01*
X226911Y168827D01*
X226288Y169907D01*
X225407Y170788D01*
X224327Y171411D01*
X223123Y171734D01*
X221877D01*
X220673Y171411D01*
X219593Y170788D01*
X218712Y169907D01*
X218089Y168827D01*
X217766Y167623D01*
Y166377D01*
X218089Y165173D01*
X218454Y164540D01*
X214535Y160622D01*
X181965D01*
X172122Y170465D01*
Y180800D01*
X172133Y180805D01*
X172696Y181367D01*
X173000Y182102D01*
Y182898D01*
X172696Y183633D01*
X172133Y184195D01*
X171398Y184500D01*
D02*
G37*
G36*
X207898Y185000D02*
X207102D01*
X206367Y184695D01*
X205804Y184133D01*
X205500Y183398D01*
Y182602D01*
X205804Y181867D01*
X206367Y181305D01*
X206379Y181300D01*
Y171600D01*
X205673Y171411D01*
X204593Y170788D01*
X203712Y169907D01*
X203089Y168827D01*
X202766Y167623D01*
Y166377D01*
X203089Y165173D01*
X203712Y164093D01*
X204593Y163212D01*
X205673Y162589D01*
X206877Y162266D01*
X208123D01*
X209327Y162589D01*
X210407Y163212D01*
X211288Y164093D01*
X211911Y165173D01*
X212234Y166377D01*
Y167623D01*
X211911Y168827D01*
X211288Y169907D01*
X210407Y170788D01*
X209327Y171411D01*
X208622Y171600D01*
Y181300D01*
X208633Y181305D01*
X209195Y181867D01*
X209500Y182602D01*
Y183398D01*
X209195Y184133D01*
X208633Y184695D01*
X207898Y185000D01*
D02*
G37*
G36*
X363623Y162234D02*
X362377D01*
X361173Y161911D01*
X360093Y161288D01*
X359212Y160407D01*
X358589Y159327D01*
X358266Y158123D01*
Y156877D01*
X358589Y155673D01*
X359212Y154593D01*
X360093Y153712D01*
X361173Y153089D01*
X362377Y152766D01*
X363623D01*
X364827Y153089D01*
X365907Y153712D01*
X366788Y154593D01*
X367411Y155673D01*
X367734Y156877D01*
Y158123D01*
X367411Y159327D01*
X366788Y160407D01*
X365907Y161288D01*
X364827Y161911D01*
X363623Y162234D01*
D02*
G37*
G36*
X138123D02*
X136877D01*
X135673Y161911D01*
X134593Y161288D01*
X133712Y160407D01*
X133089Y159327D01*
X132766Y158123D01*
Y156877D01*
X133089Y155673D01*
X133712Y154593D01*
X134593Y153712D01*
X135673Y153089D01*
X136877Y152766D01*
X138123D01*
X139327Y153089D01*
X140407Y153712D01*
X141288Y154593D01*
X141911Y155673D01*
X142234Y156877D01*
Y158123D01*
X141911Y159327D01*
X141288Y160407D01*
X140407Y161288D01*
X139327Y161911D01*
X138123Y162234D01*
D02*
G37*
G36*
X363623Y146234D02*
X362377D01*
X361173Y145911D01*
X360093Y145288D01*
X359212Y144407D01*
X358589Y143327D01*
X358266Y142123D01*
Y140877D01*
X358589Y139673D01*
X359212Y138593D01*
X360093Y137712D01*
X361173Y137089D01*
X362377Y136766D01*
X363623D01*
X364827Y137089D01*
X365907Y137712D01*
X366788Y138593D01*
X367411Y139673D01*
X367734Y140877D01*
Y142123D01*
X367411Y143327D01*
X366788Y144407D01*
X365907Y145288D01*
X364827Y145911D01*
X363623Y146234D01*
D02*
G37*
G36*
X138123D02*
X136877D01*
X135673Y145911D01*
X134593Y145288D01*
X133712Y144407D01*
X133089Y143327D01*
X132766Y142123D01*
Y140877D01*
X133089Y139673D01*
X133712Y138593D01*
X134593Y137712D01*
X135673Y137089D01*
X136877Y136766D01*
X138123D01*
X139327Y137089D01*
X140407Y137712D01*
X141288Y138593D01*
X141911Y139673D01*
X142234Y140877D01*
Y142123D01*
X141911Y143327D01*
X141288Y144407D01*
X140407Y145288D01*
X139327Y145911D01*
X138123Y146234D01*
D02*
G37*
G36*
X381163Y134780D02*
X380500D01*
Y120500D01*
X394779D01*
Y121163D01*
X394416Y123461D01*
X393697Y125673D01*
X392641Y127746D01*
X391273Y129628D01*
X389628Y131273D01*
X387746Y132641D01*
X385673Y133697D01*
X383461Y134416D01*
X381163Y134780D01*
D02*
G37*
G36*
X379500D02*
X378837D01*
X376539Y134416D01*
X374327Y133697D01*
X372254Y132641D01*
X370372Y131273D01*
X368727Y129628D01*
X367359Y127746D01*
X366303Y125673D01*
X365584Y123461D01*
X365220Y121163D01*
Y120500D01*
X379500D01*
Y134780D01*
D02*
G37*
G36*
X344705Y124937D02*
X344555D01*
Y120500D01*
X348992D01*
Y120650D01*
X348656Y121906D01*
X348006Y123031D01*
X347087Y123951D01*
X345961Y124601D01*
X344705Y124937D01*
D02*
G37*
G36*
X343555D02*
X343405D01*
X342149Y124601D01*
X341024Y123951D01*
X340105Y123031D01*
X339455Y121906D01*
X339118Y120650D01*
Y120500D01*
X343555D01*
Y124937D01*
D02*
G37*
G36*
X216020D02*
X215870D01*
Y120500D01*
X220307D01*
Y120650D01*
X219971Y121906D01*
X219321Y123031D01*
X218402Y123951D01*
X217276Y124601D01*
X216020Y124937D01*
D02*
G37*
G36*
X214870D02*
X214720D01*
X213464Y124601D01*
X212339Y123951D01*
X211420Y123031D01*
X210770Y121906D01*
X210433Y120650D01*
Y120500D01*
X214870D01*
Y124937D01*
D02*
G37*
G36*
X121163Y134780D02*
X120500D01*
Y120500D01*
X134780D01*
Y121163D01*
X134416Y123461D01*
X133697Y125673D01*
X132641Y127746D01*
X131273Y129628D01*
X129628Y131273D01*
X127746Y132641D01*
X125673Y133697D01*
X123461Y134416D01*
X121163Y134780D01*
D02*
G37*
G36*
X119500D02*
X118837D01*
X116539Y134416D01*
X114327Y133697D01*
X112254Y132641D01*
X110372Y131273D01*
X108727Y129628D01*
X107359Y127746D01*
X106303Y125673D01*
X105584Y123461D01*
X105220Y121163D01*
Y120500D01*
X119500D01*
Y134780D01*
D02*
G37*
G36*
X324967Y124537D02*
X323773D01*
X322619Y124228D01*
X321584Y123630D01*
X320740Y122786D01*
X320142Y121751D01*
X319833Y120597D01*
Y119403D01*
X320142Y118249D01*
X320740Y117214D01*
X321584Y116369D01*
X322619Y115772D01*
X323773Y115463D01*
X324967D01*
X326121Y115772D01*
X327156Y116369D01*
X328001Y117214D01*
X328598Y118249D01*
X328907Y119403D01*
Y120597D01*
X328598Y121751D01*
X328001Y122786D01*
X327156Y123630D01*
X326121Y124228D01*
X324967Y124537D01*
D02*
G37*
G36*
X305282D02*
X304088D01*
X302934Y124228D01*
X301899Y123630D01*
X301055Y122786D01*
X300457Y121751D01*
X300148Y120597D01*
Y119403D01*
X300457Y118249D01*
X301055Y117214D01*
X301899Y116369D01*
X302934Y115772D01*
X304088Y115463D01*
X305282D01*
X306436Y115772D01*
X307471Y116369D01*
X308315Y117214D01*
X308913Y118249D01*
X309222Y119403D01*
Y120597D01*
X308913Y121751D01*
X308315Y122786D01*
X307471Y123630D01*
X306436Y124228D01*
X305282Y124537D01*
D02*
G37*
G36*
X289537D02*
X280463D01*
Y115463D01*
X289537D01*
Y124537D01*
D02*
G37*
G36*
X196282D02*
X195088D01*
X193934Y124228D01*
X192899Y123630D01*
X192054Y122786D01*
X191457Y121751D01*
X191148Y120597D01*
Y119403D01*
X191457Y118249D01*
X191709Y117813D01*
X181396Y107500D01*
X181102D01*
X180367Y107195D01*
X179805Y106633D01*
X179500Y105898D01*
Y105102D01*
X179805Y104367D01*
X180367Y103805D01*
X181102Y103500D01*
X181898D01*
X182633Y103805D01*
X183195Y104367D01*
X183500Y105102D01*
Y105711D01*
X193698Y115909D01*
X193934Y115772D01*
X195088Y115463D01*
X196282D01*
X197436Y115772D01*
X198471Y116369D01*
X199316Y117214D01*
X199913Y118249D01*
X200222Y119403D01*
Y120597D01*
X199913Y121751D01*
X199316Y122786D01*
X198471Y123630D01*
X197436Y124228D01*
X196282Y124537D01*
D02*
G37*
G36*
X176597D02*
X175403D01*
X174249Y124228D01*
X173214Y123630D01*
X172370Y122786D01*
X171772Y121751D01*
X171463Y120597D01*
Y119403D01*
X171772Y118249D01*
X172370Y117214D01*
X173214Y116369D01*
X174249Y115772D01*
X175403Y115463D01*
X176597D01*
X177751Y115772D01*
X178786Y116369D01*
X179630Y117214D01*
X180228Y118249D01*
X180537Y119403D01*
Y120597D01*
X180228Y121751D01*
X179630Y122786D01*
X178786Y123630D01*
X177751Y124228D01*
X176597Y124537D01*
D02*
G37*
G36*
X160852D02*
X151778D01*
Y115463D01*
X160852D01*
Y124537D01*
D02*
G37*
G36*
X348992Y119500D02*
X344555D01*
Y115063D01*
X344705D01*
X345961Y115399D01*
X347087Y116049D01*
X348006Y116969D01*
X348656Y118094D01*
X348992Y119350D01*
Y119500D01*
D02*
G37*
G36*
X343555D02*
X339118D01*
Y119350D01*
X339455Y118094D01*
X340105Y116969D01*
X341024Y116049D01*
X342149Y115399D01*
X343405Y115063D01*
X343555D01*
Y119500D01*
D02*
G37*
G36*
X220307D02*
X215870D01*
Y115063D01*
X216020D01*
X217276Y115399D01*
X218402Y116049D01*
X219321Y116969D01*
X219971Y118094D01*
X220307Y119350D01*
Y119500D01*
D02*
G37*
G36*
X214870D02*
X210433D01*
Y119350D01*
X210770Y118094D01*
X211420Y116969D01*
X212339Y116049D01*
X213464Y115399D01*
X214720Y115063D01*
X214870D01*
Y119500D01*
D02*
G37*
G36*
X394779D02*
X380500D01*
Y105220D01*
X381163D01*
X383461Y105584D01*
X385673Y106303D01*
X387746Y107359D01*
X389628Y108727D01*
X391273Y110372D01*
X392641Y112254D01*
X393697Y114327D01*
X394416Y116539D01*
X394779Y118837D01*
Y119500D01*
D02*
G37*
G36*
X379500D02*
X365220D01*
Y118837D01*
X365584Y116539D01*
X366303Y114327D01*
X367359Y112254D01*
X368727Y110372D01*
X370372Y108727D01*
X372254Y107359D01*
X374327Y106303D01*
X376539Y105584D01*
X378837Y105220D01*
X379500D01*
Y119500D01*
D02*
G37*
G36*
X134780D02*
X120500D01*
Y105220D01*
X121163D01*
X123461Y105584D01*
X125673Y106303D01*
X127746Y107359D01*
X129628Y108727D01*
X131273Y110372D01*
X132641Y112254D01*
X133697Y114327D01*
X134416Y116539D01*
X134780Y118837D01*
Y119500D01*
D02*
G37*
G36*
X119500D02*
X105220D01*
Y118837D01*
X105584Y116539D01*
X106303Y114327D01*
X107359Y112254D01*
X108727Y110372D01*
X110372Y108727D01*
X112254Y107359D01*
X114327Y106303D01*
X116539Y105584D01*
X118837Y105220D01*
X119500D01*
Y119500D01*
D02*
G37*
%LPD*%
G36*
X266621Y216328D02*
X266645Y216231D01*
X260035Y209622D01*
X242965D01*
X242586Y210000D01*
X242793Y210500D01*
X242898D01*
X243633Y210805D01*
X244196Y211367D01*
X244200Y211379D01*
X260500D01*
X260500Y211378D01*
X260929Y211464D01*
X261293Y211707D01*
X266067Y216481D01*
X266621Y216328D01*
D02*
G37*
G36*
X210305Y217320D02*
X210868Y216758D01*
X211603Y216453D01*
X212160D01*
X212367Y215953D01*
X212035Y215621D01*
X198994D01*
X198565Y215536D01*
X198201Y215293D01*
X198201Y215293D01*
X191979Y209072D01*
X190250D01*
X190245Y209083D01*
X189683Y209646D01*
X189897Y210085D01*
X190102Y210000D01*
X190898D01*
X191633Y210304D01*
X192195Y210867D01*
X192500Y211602D01*
Y212398D01*
X192495Y212409D01*
X197418Y217332D01*
X210301D01*
X210305Y217320D01*
D02*
G37*
D13*
X227500Y267500D02*
Y284426D01*
X227501Y284428D01*
X215000Y255000D02*
X227500Y267500D01*
X262500Y206000D02*
X270500Y214000D01*
Y240500D01*
X276500Y246500D01*
X238000Y206000D02*
X262500D01*
X260500Y208500D02*
X268000Y216000D01*
X242500Y208500D02*
X260500D01*
X268000Y216000D02*
Y243500D01*
X265500Y217500D02*
Y246500D01*
X260500Y212500D02*
X265500Y217500D01*
X241344Y209656D02*
X242500Y208500D01*
X276500Y246500D02*
X287500D01*
X274000Y255000D02*
X284000D01*
X265500Y246500D02*
X274000Y255000D01*
X263000Y250500D02*
X271260Y258760D01*
X282111D01*
X263000Y218500D02*
Y250500D01*
X268000Y243500D02*
X276500Y252000D01*
X286500D01*
X261717Y217216D02*
X263000Y218500D01*
X286500Y252000D02*
X293000Y258500D01*
X284000Y255000D02*
X287500Y258500D01*
Y246500D02*
X297000Y256000D01*
Y262000D01*
X238500Y210000D02*
X238844Y209656D01*
X241344D01*
X242500Y212500D02*
X260500D01*
X242365Y217216D02*
X261717D01*
X207000Y260500D02*
X216699Y270199D01*
X207000Y241000D02*
X213500Y234500D01*
X207000Y241000D02*
Y260500D01*
X221500Y234500D02*
X227000Y229000D01*
X213500Y234500D02*
X221500D01*
X230500Y207500D02*
Y231500D01*
X215500Y238000D02*
X224000D01*
X230500Y231500D01*
X227178Y204178D02*
X230500Y207500D01*
X223000Y204178D02*
X227178D01*
X227000Y209500D02*
Y229000D01*
X192444Y207950D02*
X198994Y214500D01*
X212500D02*
X216500Y218500D01*
X198994Y214500D02*
X212500D01*
X188550Y207950D02*
X192444D01*
X190500Y212000D02*
X196953Y218453D01*
X212001D01*
X238702Y222500D02*
X240702Y220500D01*
X238601Y222500D02*
X238702D01*
X240702Y220500D02*
X259000D01*
X244493Y224000D02*
X256000D01*
X244454Y224039D02*
X244493Y224000D01*
X183500Y217500D02*
X195500Y229500D01*
X183500Y208000D02*
Y217500D01*
Y208000D02*
X186500Y205000D01*
X195500Y229500D02*
Y235000D01*
X192500Y230500D02*
Y244000D01*
X181000Y219000D02*
X192500Y230500D01*
X181000Y207000D02*
Y219000D01*
X195500Y235000D02*
X198432Y237932D01*
Y244577D01*
X191756Y205000D02*
X193756Y207000D01*
X186500Y205000D02*
X191756D01*
X193756Y207000D02*
X198000D01*
X181000D02*
X185000Y203000D01*
X197500D01*
X216699Y270199D02*
Y270212D01*
X217500Y271013D02*
Y271500D01*
X216699Y270212D02*
X217500Y271013D01*
X223500D02*
Y271500D01*
X222699Y270199D02*
Y270212D01*
X211000Y242500D02*
Y258500D01*
X222699Y270212D02*
X223500Y271013D01*
X211000Y258500D02*
X222699Y270199D01*
X211000Y242500D02*
X215500Y238000D01*
X171000Y170000D02*
Y182500D01*
Y170000D02*
X181500Y159500D01*
X215000D01*
X222500Y167000D01*
X207500D02*
Y183000D01*
D17*
X181500Y105500D02*
Y105657D01*
X195685Y119843D01*
Y120000D01*
D52*
X308925Y192944D02*
Y214425D01*
X286500Y168000D02*
X301500D01*
X308925Y175425D01*
Y192944D01*
X174000Y199000D02*
X182000D01*
X198000D01*
X309000Y214500D02*
X332000D01*
X298500D02*
X309000D01*
X308925Y214425D02*
X309000Y214500D01*
X287609Y214492D02*
X298492D01*
X287601Y214483D02*
X287609Y214492D01*
X298492D02*
X298500Y214500D01*
X332217D02*
X332716Y215000D01*
X332000Y214500D02*
X332217D01*
X332716Y215000D02*
X365108D01*
X373500D01*
X380000Y208500D01*
Y201000D02*
Y208500D01*
X296000Y300233D02*
Y307500D01*
Y300233D02*
X304672Y291562D01*
X294847Y275847D02*
X304672Y285672D01*
Y291562D01*
X281846Y275847D02*
X294847D01*
D53*
X295000Y344000D02*
X319500D01*
X210000D02*
X295000D01*
X296000Y327500D02*
Y343000D01*
X295000Y344000D02*
X296000Y343000D01*
X201000Y335000D02*
X208500Y327500D01*
X193500Y342500D02*
X201000Y335000D01*
X319500Y344000D02*
X336000Y327500D01*
X201000Y335000D02*
X210000Y344000D01*
X155500Y338500D02*
X159500Y342500D01*
X124500Y307500D02*
X155500Y338500D01*
X166500Y327500D01*
Y327500D02*
Y327500D01*
X159500Y342500D02*
X193500D01*
X114000Y307500D02*
X124500D01*
X104000Y297500D02*
X114000Y307500D01*
X104000Y201000D02*
Y297500D01*
X110000Y195000D02*
X153000D01*
X104000Y201000D02*
X110000Y195000D01*
D54*
X296000Y327500D02*
D03*
Y307500D02*
D03*
X336000Y327500D02*
D03*
Y307500D02*
D03*
X208500Y327500D02*
D03*
Y307500D02*
D03*
X166500Y327500D02*
D03*
Y307500D02*
D03*
D55*
X306000Y327500D02*
D03*
Y307500D02*
D03*
X346000Y327500D02*
D03*
Y307500D02*
D03*
X218500Y327500D02*
D03*
Y307500D02*
D03*
X176500Y327500D02*
D03*
Y307500D02*
D03*
D56*
X156315Y120000D02*
D03*
X285000D02*
D03*
D57*
X176000D02*
D03*
X195685D02*
D03*
X215370D02*
D03*
X304685D02*
D03*
X324370D02*
D03*
X344055D02*
D03*
D58*
X222500Y167000D02*
D03*
X207500D02*
D03*
X363000Y157500D02*
D03*
Y141500D02*
D03*
X137500Y157500D02*
D03*
Y141500D02*
D03*
X292000Y232500D02*
D03*
X276000D02*
D03*
X113500Y292000D02*
D03*
X128500D02*
D03*
X281500Y179000D02*
D03*
X266500D02*
D03*
X368000Y290500D02*
D03*
X385500D02*
D03*
X153000Y195000D02*
D03*
Y254500D02*
D03*
D59*
X120000Y330000D02*
D03*
X380000D02*
D03*
Y120000D02*
D03*
X120000D02*
D03*
D60*
X286500Y168000D02*
D03*
X250500Y239500D02*
D03*
X227501Y284428D02*
D03*
X174000Y199000D02*
D03*
X182000D02*
D03*
X198000D02*
D03*
X308925Y192944D02*
D03*
X287601Y214483D02*
D03*
X213000Y189000D02*
D03*
X238000Y206000D02*
D03*
X238500Y210000D02*
D03*
X227000Y209500D02*
D03*
X198000Y207000D02*
D03*
X243500Y230500D02*
D03*
X226500Y246500D02*
D03*
X238601Y222500D02*
D03*
X212001Y218453D02*
D03*
X197500Y203000D02*
D03*
X216500Y218500D02*
D03*
X244454Y224039D02*
D03*
X212951Y211102D02*
D03*
X240500Y202000D02*
D03*
X223000Y204178D02*
D03*
X242500Y212500D02*
D03*
X242365Y217216D02*
D03*
X259000Y220500D02*
D03*
X256000Y224000D02*
D03*
X188550Y207950D02*
D03*
X198432Y244577D02*
D03*
X192500Y244000D02*
D03*
X223500Y271500D02*
D03*
X217500D02*
D03*
X297000Y262000D02*
D03*
X293000Y258500D02*
D03*
X287500D02*
D03*
X282111Y258760D02*
D03*
X281846Y275847D02*
D03*
X171000Y182500D02*
D03*
X207500Y183000D02*
D03*
X113000Y216000D02*
D03*
X110500Y273000D02*
D03*
X190500Y212000D02*
D03*
X186000Y176108D02*
D03*
X365108Y215000D02*
D03*
X332000Y214500D02*
D03*
X298500D02*
D03*
X248500Y184500D02*
D03*
X317000Y174500D02*
D03*
X320500Y188000D02*
D03*
X374668Y201610D02*
D03*
X369500Y201500D02*
D03*
X359501Y200139D02*
D03*
X380000Y201000D02*
D03*
X181500Y105500D02*
D03*
X259000Y276500D02*
D03*
X269500Y270000D02*
D03*
X278500Y269000D02*
D03*
X234500Y289000D02*
D03*
Y283500D02*
D03*
X241000Y314500D02*
D03*
X225000Y322000D02*
D03*
Y329000D02*
D03*
Y336000D02*
D03*
X278000Y322000D02*
D03*
Y329000D02*
D03*
X277864Y336034D02*
D03*
X215000Y255000D02*
D03*
X121006Y269049D02*
D03*
X117260Y228160D02*
D03*
X134000Y228500D02*
D03*
X151000Y228000D02*
D03*
X168000Y241000D02*
D03*
X167000Y228500D02*
D03*
X169000Y216000D02*
D03*
X192500Y194000D02*
D03*
X215500Y184500D02*
D03*
X124000Y212000D02*
D03*
X117500Y170000D02*
D03*
X134500Y169500D02*
D03*
X150500Y169000D02*
D03*
M02*
