G04*
G04 #@! TF.GenerationSoftware,Altium Limited,Altium Designer,21.1.1 (26)*
G04*
G04 Layer_Color=16711935*
%FSLAX25Y25*%
%MOIN*%
G70*
G04*
G04 #@! TF.SameCoordinates,1B48DBFB-4F0D-4C64-993E-EB7B70E0D2B1*
G04*
G04*
G04 #@! TF.FilePolarity,Negative*
G04*
G01*
G75*
%ADD33C,0.07887*%
%ADD34R,0.07887X0.07887*%
%ADD35R,0.08674X0.08674*%
%ADD36C,0.08674*%
%ADD37C,0.09068*%
%ADD38C,0.28359*%
D33*
X296000Y327500D02*
D03*
Y307500D02*
D03*
X336000Y327500D02*
D03*
Y307500D02*
D03*
X208500Y327500D02*
D03*
Y307500D02*
D03*
X166500Y327500D02*
D03*
Y307500D02*
D03*
D34*
X306000Y327500D02*
D03*
Y307500D02*
D03*
X346000Y327500D02*
D03*
Y307500D02*
D03*
X218500Y327500D02*
D03*
Y307500D02*
D03*
X176500Y327500D02*
D03*
Y307500D02*
D03*
D35*
X156315Y120000D02*
D03*
X285000D02*
D03*
D36*
X176000D02*
D03*
X195685D02*
D03*
X215370D02*
D03*
X304685D02*
D03*
X324370D02*
D03*
X344055D02*
D03*
D37*
X222500Y167000D02*
D03*
X207500D02*
D03*
X363000Y157500D02*
D03*
Y141500D02*
D03*
X137500Y157500D02*
D03*
Y141500D02*
D03*
X292000Y232500D02*
D03*
X276000D02*
D03*
X113500Y292000D02*
D03*
X128500D02*
D03*
X281500Y179000D02*
D03*
X266500D02*
D03*
X368000Y290500D02*
D03*
X385500D02*
D03*
X153000Y195000D02*
D03*
Y254500D02*
D03*
D38*
X120000Y330000D02*
D03*
X380000D02*
D03*
Y120000D02*
D03*
X120000D02*
D03*
M02*
