M48
;Layer_Color=9474304
;FILE_FORMAT=2:5
INCH,LZ
;TYPE=PLATED
T1F00S00C0.01400
T2F00S00C0.04331
T3F00S00C0.04724
T4F00S00C0.06299
T5F00S00C0.13780
%
T01
X01815Y01055
X0317Y01745
X03205Y0188
X0332Y02145
X0365108Y0215
X03695Y02015
X0374668Y020161
X038Y0201
X0359501Y0200139
X0308925Y0192944
X02985Y02145
X0287601Y0214483
X0259Y02205
X0256Y0224
X0244454Y0224039
X0238601Y02225
X0242365Y0217216
X02425Y02125
X02385Y021
X0238Y0206
X02405Y0202
X0223Y0204178
X0227Y02095
X0212951Y0211102
X0212001Y0218453
X02165Y02185
X0198Y0207
X01975Y0203
X0198Y0199
X01925Y0194
X0182Y0199
X0174
X0171Y01825
X0186Y0176108
X02075Y0183
X02155Y01845
X0213Y0189
X02485Y01845
X02435Y02305
X02505Y02395
X02265Y02465
X0215Y0255
X02175Y02715
X02235
X0227501Y0284428
X02345Y02835
Y0289
X0259Y02765
X02695Y027
X02785Y0269
X0281846Y0275847
X0282111Y025876
X02875Y02585
X0293
X0297Y0262
X02865Y0168
X018855Y020795
X01905Y0212
X0169Y0216
X0167Y02285
X0168Y0241
X01925Y0244
X0198432Y0244577
X0151Y0228
X0134Y02285
X011726Y022816
X0113Y0216
X0124Y0212
X01175Y017
X01345Y01695
X01505Y0169
X0121006Y0269049
X01105Y0273
X0225Y0322
Y0329
Y0336
X0241Y03145
X0278Y0322
Y0329
X0277864Y0336034
T02
X0336Y03075
X0346
X0306
X0296
X02185
X02085
X01765
X01665
Y03275
X01765
X02085
X02185
X0296
X0306
X0336
X0346
T03
X0156315Y012
X0176
X0195685
X021537
X0285
X0304685
X032437
X0344055
T04
X01375Y01415
X0363
Y01575
X0368Y02905
X03855
X0292Y02325
X0276
X02815Y0179
X02665
X02225Y0167
X02075
X01375Y01575
X0153Y0195
Y02545
X01285Y0292
X01135
T05
X012Y012
X038
X012Y033
X038
M30
