G04*
G04 #@! TF.GenerationSoftware,Altium Limited,Altium Designer,21.1.1 (26)*
G04*
G04 Layer_Color=8388736*
%FSLAX25Y25*%
%MOIN*%
G70*
G04*
G04 #@! TF.SameCoordinates,1B48DBFB-4F0D-4C64-993E-EB7B70E0D2B1*
G04*
G04*
G04 #@! TF.FilePolarity,Negative*
G04*
G01*
G75*
%ADD20O,0.06312X0.01981*%
%ADD21O,0.01981X0.06312*%
%ADD22R,0.03753X0.04343*%
%ADD23R,0.04540X0.04540*%
%ADD24R,0.04540X0.04540*%
%ADD25R,0.05131X0.06706*%
%ADD26O,0.06312X0.02572*%
%ADD27O,0.03162X0.06509*%
G04:AMPARAMS|DCode=28|XSize=37.92mil|YSize=102.49mil|CornerRadius=11.48mil|HoleSize=0mil|Usage=FLASHONLY|Rotation=0.000|XOffset=0mil|YOffset=0mil|HoleType=Round|Shape=RoundedRectangle|*
%AMROUNDEDRECTD28*
21,1,0.03792,0.07953,0,0,0.0*
21,1,0.01496,0.10249,0,0,0.0*
1,1,0.02296,0.00748,-0.03976*
1,1,0.02296,-0.00748,-0.03976*
1,1,0.02296,-0.00748,0.03976*
1,1,0.02296,0.00748,0.03976*
%
%ADD28ROUNDEDRECTD28*%
%ADD29R,0.09265X0.04343*%
%ADD30R,0.09265X0.13398*%
%ADD31R,0.04343X0.05918*%
%ADD32R,0.04343X0.02769*%
%ADD33C,0.07887*%
%ADD34R,0.07887X0.07887*%
%ADD35R,0.08674X0.08674*%
%ADD36C,0.08674*%
%ADD37C,0.09068*%
%ADD38C,0.28359*%
D20*
X205559Y232764D02*
D03*
Y230795D02*
D03*
Y228827D02*
D03*
Y226858D02*
D03*
Y224890D02*
D03*
Y222921D02*
D03*
Y220953D02*
D03*
Y218984D02*
D03*
Y217016D02*
D03*
Y215047D02*
D03*
Y213079D02*
D03*
Y211110D02*
D03*
Y209142D02*
D03*
Y207173D02*
D03*
Y205205D02*
D03*
Y203236D02*
D03*
X250441D02*
D03*
Y205205D02*
D03*
Y207173D02*
D03*
Y209142D02*
D03*
Y211110D02*
D03*
Y213079D02*
D03*
Y215047D02*
D03*
Y217016D02*
D03*
Y218984D02*
D03*
Y220953D02*
D03*
Y222921D02*
D03*
Y224890D02*
D03*
Y226858D02*
D03*
Y228827D02*
D03*
Y230795D02*
D03*
Y232764D02*
D03*
D21*
X213236Y195559D02*
D03*
X215205D02*
D03*
X217173D02*
D03*
X219142D02*
D03*
X221110D02*
D03*
X223079D02*
D03*
X225047D02*
D03*
X227016D02*
D03*
X228984D02*
D03*
X230953D02*
D03*
X232921D02*
D03*
X234890D02*
D03*
X236858D02*
D03*
X238827D02*
D03*
X240795D02*
D03*
X242764D02*
D03*
Y240441D02*
D03*
X240795D02*
D03*
X238827D02*
D03*
X236858D02*
D03*
X234890D02*
D03*
X232921D02*
D03*
X230953D02*
D03*
X228984D02*
D03*
X227016D02*
D03*
X225047D02*
D03*
X223079D02*
D03*
X221110D02*
D03*
X219142D02*
D03*
X217173D02*
D03*
X215205D02*
D03*
X213236D02*
D03*
D22*
X298000Y160799D02*
D03*
Y173201D02*
D03*
X161000Y177201D02*
D03*
Y164799D02*
D03*
D23*
X220153Y184500D02*
D03*
X226847D02*
D03*
X242846D02*
D03*
X236154D02*
D03*
X250153Y244000D02*
D03*
X256846D02*
D03*
X269153Y214500D02*
D03*
X275847D02*
D03*
X309347Y207000D02*
D03*
X302654D02*
D03*
X309347Y214500D02*
D03*
X302654D02*
D03*
X342846Y207000D02*
D03*
X336154D02*
D03*
X342846Y214500D02*
D03*
X336154D02*
D03*
X376346Y207000D02*
D03*
X369654D02*
D03*
X244847Y157500D02*
D03*
X238154D02*
D03*
X255654D02*
D03*
X262347D02*
D03*
X266653Y329000D02*
D03*
X273346D02*
D03*
Y336000D02*
D03*
X266653D02*
D03*
X237347Y329000D02*
D03*
X230654D02*
D03*
X273346Y322000D02*
D03*
X266653D02*
D03*
X230654D02*
D03*
X237347D02*
D03*
X230654Y336000D02*
D03*
X237347D02*
D03*
Y343000D02*
D03*
X230654D02*
D03*
X266653D02*
D03*
X273346D02*
D03*
X320346Y193000D02*
D03*
X313653D02*
D03*
X188347Y194000D02*
D03*
X181653D02*
D03*
X376346Y214500D02*
D03*
X369654D02*
D03*
X275847Y207000D02*
D03*
X269153D02*
D03*
X179847Y241000D02*
D03*
X173153D02*
D03*
X214653Y250500D02*
D03*
X221346D02*
D03*
X179847Y216000D02*
D03*
X173153D02*
D03*
D24*
X274000Y275847D02*
D03*
Y269153D02*
D03*
X241000Y303153D02*
D03*
Y309846D02*
D03*
X230500Y274847D02*
D03*
Y268154D02*
D03*
D25*
X255000Y141000D02*
D03*
X245000D02*
D03*
X255000Y105961D02*
D03*
X245000D02*
D03*
D26*
X264114Y265925D02*
D03*
Y268484D02*
D03*
Y271043D02*
D03*
Y273602D02*
D03*
Y276161D02*
D03*
Y278720D02*
D03*
Y281279D02*
D03*
Y283839D02*
D03*
Y286398D02*
D03*
Y288957D02*
D03*
Y291516D02*
D03*
Y294075D02*
D03*
X240886Y265925D02*
D03*
Y268484D02*
D03*
Y271043D02*
D03*
Y273602D02*
D03*
Y276161D02*
D03*
Y278720D02*
D03*
Y281279D02*
D03*
Y283839D02*
D03*
Y286398D02*
D03*
Y288957D02*
D03*
Y291516D02*
D03*
Y294075D02*
D03*
D27*
X324500Y181728D02*
D03*
X319500D02*
D03*
X314500D02*
D03*
X309500D02*
D03*
X324500Y160272D02*
D03*
X319500D02*
D03*
X314500D02*
D03*
X309500D02*
D03*
X192500Y182728D02*
D03*
X187500D02*
D03*
X182500D02*
D03*
X177500D02*
D03*
X192500Y161272D02*
D03*
X187500D02*
D03*
X182500D02*
D03*
X177500D02*
D03*
D28*
X379500Y192854D02*
D03*
X374500D02*
D03*
X369500D02*
D03*
X364500D02*
D03*
X359500D02*
D03*
X379500Y177500D02*
D03*
X374500D02*
D03*
X369500D02*
D03*
X364500D02*
D03*
X359500D02*
D03*
D29*
X115484Y212055D02*
D03*
Y203000D02*
D03*
Y193945D02*
D03*
X113484Y269055D02*
D03*
Y260000D02*
D03*
Y250945D02*
D03*
D30*
X138516Y203000D02*
D03*
X136516Y260000D02*
D03*
D31*
X134043Y233500D02*
D03*
X126957D02*
D03*
X134043Y175362D02*
D03*
X126957D02*
D03*
X150543D02*
D03*
X143457D02*
D03*
X151043Y233500D02*
D03*
X143957D02*
D03*
X117543Y175362D02*
D03*
X110457D02*
D03*
X117543Y233500D02*
D03*
X110457D02*
D03*
D32*
X180929Y225941D02*
D03*
Y231059D02*
D03*
X172071Y228500D02*
D03*
D33*
X296000Y327500D02*
D03*
Y307500D02*
D03*
X336000Y327500D02*
D03*
Y307500D02*
D03*
X208500Y327500D02*
D03*
Y307500D02*
D03*
X166500Y327500D02*
D03*
Y307500D02*
D03*
D34*
X306000Y327500D02*
D03*
Y307500D02*
D03*
X346000Y327500D02*
D03*
Y307500D02*
D03*
X218500Y327500D02*
D03*
Y307500D02*
D03*
X176500Y327500D02*
D03*
Y307500D02*
D03*
D35*
X156315Y120000D02*
D03*
X285000D02*
D03*
D36*
X176000D02*
D03*
X195685D02*
D03*
X215370D02*
D03*
X304685D02*
D03*
X324370D02*
D03*
X344055D02*
D03*
D37*
X222500Y167000D02*
D03*
X207500D02*
D03*
X363000Y157500D02*
D03*
Y141500D02*
D03*
X137500Y157500D02*
D03*
Y141500D02*
D03*
X292000Y232500D02*
D03*
X276000D02*
D03*
X113500Y292000D02*
D03*
X128500D02*
D03*
X281500Y179000D02*
D03*
X266500D02*
D03*
X368000Y290500D02*
D03*
X385500D02*
D03*
X153000Y195000D02*
D03*
Y254500D02*
D03*
D38*
X120000Y330000D02*
D03*
X380000D02*
D03*
Y120000D02*
D03*
X120000D02*
D03*
M02*
