G04*
G04 #@! TF.GenerationSoftware,Altium Limited,Altium Designer,21.1.1 (26)*
G04*
G04 Layer_Physical_Order=1*
G04 Layer_Color=255*
%FSLAX25Y25*%
%MOIN*%
G70*
G04*
G04 #@! TF.SameCoordinates,1B48DBFB-4F0D-4C64-993E-EB7B70E0D2B1*
G04*
G04*
G04 #@! TF.FilePolarity,Positive*
G04*
G01*
G75*
%ADD13C,0.01000*%
%ADD17C,0.01500*%
%ADD39O,0.05512X0.01181*%
%ADD40O,0.01181X0.05512*%
%ADD41R,0.02953X0.03543*%
%ADD42R,0.03740X0.03740*%
%ADD43R,0.03740X0.03740*%
%ADD44R,0.04331X0.05906*%
%ADD45O,0.05512X0.01772*%
%ADD46O,0.02362X0.05709*%
G04:AMPARAMS|DCode=47|XSize=29.92mil|YSize=94.49mil|CornerRadius=7.48mil|HoleSize=0mil|Usage=FLASHONLY|Rotation=0.000|XOffset=0mil|YOffset=0mil|HoleType=Round|Shape=RoundedRectangle|*
%AMROUNDEDRECTD47*
21,1,0.02992,0.07953,0,0,0.0*
21,1,0.01496,0.09449,0,0,0.0*
1,1,0.01496,0.00748,-0.03976*
1,1,0.01496,-0.00748,-0.03976*
1,1,0.01496,-0.00748,0.03976*
1,1,0.01496,0.00748,0.03976*
%
%ADD47ROUNDEDRECTD47*%
%ADD48R,0.08465X0.03543*%
%ADD49R,0.08465X0.12598*%
%ADD50R,0.03543X0.05118*%
%ADD51R,0.03543X0.01968*%
%ADD52C,0.02000*%
%ADD53C,0.03000*%
%ADD54C,0.07087*%
%ADD55R,0.07087X0.07087*%
%ADD56R,0.07874X0.07874*%
%ADD57C,0.07874*%
%ADD58C,0.08268*%
%ADD59C,0.27559*%
%ADD60C,0.02800*%
D13*
X245500Y240965D02*
Y246500D01*
X237000Y255000D02*
X245500Y246500D01*
X215000Y255000D02*
X237000D01*
X212000Y258500D02*
X238000D01*
X248500Y248000D02*
X258500D01*
X238000Y258500D02*
X248500Y248000D01*
X239000Y261000D02*
X249000Y251000D01*
X209000Y261000D02*
X239000D01*
X249000Y251000D02*
X260000D01*
X250000Y254000D02*
X261500D01*
X240500Y263500D02*
X250000Y254000D01*
X206500Y263500D02*
X240500D01*
X245500Y240965D02*
X249465Y237000D01*
X249500D02*
X250441Y236059D01*
X249465Y237000D02*
X249500D01*
X250500Y239500D02*
Y243653D01*
X250153Y244000D02*
X250500Y243653D01*
X221346Y250500D02*
X222000Y249847D01*
Y247311D02*
Y249847D01*
Y247311D02*
X223156Y246156D01*
X221537Y290392D02*
X227501Y284428D01*
X221108Y290392D02*
X221537D01*
X235500Y298000D02*
X237000Y299500D01*
X240414D01*
X235500Y295000D02*
Y298000D01*
Y295000D02*
X236425Y294075D01*
X240414Y299500D02*
X241000Y300086D01*
Y303153D01*
X236425Y294075D02*
X240886D01*
X226847Y184500D02*
X236154D01*
X159000Y236000D02*
X159500Y235500D01*
X196458D02*
X199229Y232729D01*
X159500Y235500D02*
X196458D01*
X179847Y216000D02*
X194000D01*
X274476Y208370D02*
X275847Y207000D01*
X274476Y208370D02*
Y210024D01*
X273500Y211000D02*
X274476Y210024D01*
X270000Y212586D02*
Y213653D01*
Y212586D02*
X271586Y211000D01*
X273500D01*
X269153Y214500D02*
X270000Y213653D01*
X215205Y191205D02*
Y195559D01*
X213000Y189000D02*
X215205Y191205D01*
X229500Y203000D02*
X235000D01*
X238000Y206000D01*
X235000Y213500D02*
X238500Y210000D01*
X225500Y213500D02*
X235000D01*
X222000Y210000D02*
X225500Y213500D01*
X222000Y207000D02*
Y210000D01*
X219142Y195559D02*
Y204142D01*
X222000Y207000D01*
X219000Y208000D02*
Y211500D01*
X213236Y195559D02*
Y202236D01*
X219000Y208000D01*
X224000Y216500D02*
X238500D01*
X219000Y211500D02*
X224000Y216500D01*
X227000Y204222D02*
Y209500D01*
X217000Y213500D02*
X222500Y219000D01*
X217000Y210000D02*
Y213500D01*
X222500Y219000D02*
X240582D01*
X221145Y240476D02*
Y244145D01*
X230953Y230149D02*
Y240441D01*
X215205Y244705D02*
X216000Y245500D01*
X216500Y218500D02*
X219142Y221142D01*
X240000Y226500D02*
X242407Y224093D01*
X230953Y230149D02*
X238601Y222500D01*
X221110Y240441D02*
X221145Y240476D01*
X217173Y223173D02*
Y240441D01*
X219790Y245500D02*
X221145Y244145D01*
X216000Y245500D02*
X219790D01*
X238827Y190827D02*
Y195559D01*
X241827Y190827D02*
X242764Y191764D01*
X215205Y240441D02*
Y244705D01*
X205559Y211110D02*
X212943D01*
X212453Y218453D02*
X217173Y223173D01*
X221145Y244145D02*
X223156Y246156D01*
X242764Y235764D02*
Y240441D01*
X243761Y230761D02*
X250406D01*
X240500Y202000D02*
X240761Y201739D01*
X250406Y230761D02*
X250441Y230795D01*
X219142Y221142D02*
Y240441D01*
X223079Y200300D02*
X227000Y204222D01*
X223156Y246156D02*
X226156D01*
X200138Y205170D02*
X205524D01*
X240000Y226500D02*
Y233000D01*
X242407Y224093D02*
X244400D01*
X215205Y195559D02*
X215239Y195594D01*
X226156Y246156D02*
X226500Y246500D01*
X223079Y195559D02*
Y200300D01*
X198000Y207000D02*
X198139Y207139D01*
X243500Y230500D02*
X243761Y230761D01*
X212001Y218453D02*
X212453D01*
X199229Y232729D02*
X205524D01*
X238827Y190827D02*
X241827D01*
X197968Y203000D02*
X200138Y205170D01*
X250441Y232764D02*
Y236059D01*
X244400Y224093D02*
X244454Y224039D01*
X240000Y233000D02*
X242764Y235764D01*
X225047Y195559D02*
X225082Y195594D01*
X242764Y191764D02*
Y195559D01*
X240761Y195594D02*
Y201739D01*
Y195594D02*
X240795Y195559D01*
X225082Y195594D02*
Y198582D01*
X229500Y203000D01*
X221110Y195559D02*
Y201967D01*
X223000Y203857D01*
Y204178D01*
X238500Y216500D02*
X242500Y212500D01*
X205559Y203236D02*
X210236D01*
X217000Y210000D01*
X240582Y219000D02*
X242365Y217216D01*
X197500Y203000D02*
X197968D01*
X205524Y207139D02*
X205559Y207173D01*
X205524Y205170D02*
X205559Y205205D01*
X198139Y207139D02*
X205524D01*
X212943Y211110D02*
X212951Y211102D01*
X205524Y232729D02*
X205559Y232764D01*
X311000Y200500D02*
X317500Y207000D01*
X254421Y213079D02*
X267000Y200500D01*
X311000D01*
X341500Y198000D02*
X350500Y207000D01*
X266500Y198000D02*
X341500D01*
X253424Y211076D02*
X266500Y198000D01*
X250476Y211076D02*
X253424D01*
X250441Y211110D02*
X250476Y211076D01*
X267500Y203000D02*
X278500D01*
X255453Y215047D02*
X267500Y203000D01*
X250441Y215047D02*
X255453D01*
X268523Y207631D02*
X269153Y207000D01*
X250441Y217016D02*
X256984D01*
X266369Y207631D01*
X268523D01*
X259000Y220500D02*
X261500Y218000D01*
X381000D01*
X388000Y211000D01*
X263500Y220500D02*
X382000D01*
X256000Y224000D02*
X260000D01*
X263500Y220500D01*
X184450Y207950D02*
X188550D01*
X177500Y201000D02*
X184450Y207950D01*
X195000Y192000D02*
Y207500D01*
X190500Y212000D02*
X195000Y207500D01*
X192500Y189500D02*
X195000Y192000D01*
X272000Y227000D02*
X286500D01*
X265000Y234000D02*
X272000Y227000D01*
X265000Y234000D02*
Y246000D01*
X261500Y254000D02*
X268500Y247000D01*
Y240000D02*
Y247000D01*
X260000Y251000D02*
X265000Y246000D01*
X204500Y251000D02*
X212000Y258500D01*
X192500Y249500D02*
X206500Y263500D01*
X198432Y244577D02*
X198500Y244645D01*
Y250500D01*
X209000Y261000D01*
X286500Y227000D02*
X292000Y232500D01*
X192500Y244000D02*
Y249500D01*
X268500Y240000D02*
X276000Y232500D01*
X223500Y277000D02*
X225000Y278500D01*
X223500Y271500D02*
Y277000D01*
X217500Y271500D02*
Y276000D01*
X225000Y278500D02*
X233654D01*
X235993Y276161D02*
X240886D01*
X233654Y278500D02*
X235993Y276161D01*
X217500Y276000D02*
X222000Y280500D01*
X233964D02*
X235744Y278720D01*
X222000Y280500D02*
X233964D01*
X301500Y251000D02*
Y277000D01*
X276134Y232634D02*
X283134D01*
X301500Y251000D01*
X276000Y232500D02*
X276134Y232634D01*
X305000Y245500D02*
Y278500D01*
X292000Y232500D02*
X305000Y245500D01*
X289463Y294037D02*
X305000Y278500D01*
X264152Y294037D02*
X289463D01*
X287000Y291500D02*
X301500Y277000D01*
X268446Y291500D02*
X287000D01*
X284543Y288957D02*
X297000Y276500D01*
Y262000D02*
Y276500D01*
X264114Y288957D02*
X284543D01*
X293000Y258500D02*
Y276000D01*
X282602Y286398D02*
X293000Y276000D01*
X264114Y286398D02*
X282602D01*
X287500Y258601D02*
X289500Y260601D01*
Y275500D01*
X287500Y258500D02*
Y258601D01*
X264114Y283839D02*
X281161D01*
X289500Y275500D01*
X282111Y258760D02*
X286500Y263149D01*
Y275000D01*
X264114Y281279D02*
X280221D01*
X286500Y275000D01*
X264114Y294075D02*
X264152Y294037D01*
X268430Y291516D02*
X268446Y291500D01*
X264114Y291516D02*
X268430D01*
X177272Y182500D02*
X177500Y182728D01*
X171000Y182500D02*
X177272D01*
X192500Y182728D02*
X192772Y183000D01*
X207500D01*
X273346Y336000D02*
Y343000D01*
X230654Y336000D02*
Y343000D01*
X177500Y182728D02*
Y201000D01*
X192500Y182728D02*
Y189500D01*
X194000Y216000D02*
X200858Y209142D01*
X205559D01*
X235744Y278720D02*
X240886D01*
X278500Y203000D02*
X282500Y207000D01*
X302654D01*
X350500D02*
X369654D01*
X317500D02*
X336154D01*
X250441Y213079D02*
X254421D01*
X261000Y232500D02*
Y245500D01*
X258500Y248000D02*
X261000Y245500D01*
X204500Y241000D02*
Y251000D01*
X269000Y224500D02*
X384500D01*
X261000Y232500D02*
X269000Y224500D01*
X250441Y232764D02*
X255000D01*
X256846Y234610D01*
Y244000D01*
X384500Y224500D02*
X396500Y212500D01*
Y182500D02*
Y212500D01*
X384000Y170000D02*
X396500Y182500D01*
X361000Y170000D02*
X384000D01*
X359500Y171500D02*
X361000Y170000D01*
X359500Y171500D02*
Y177500D01*
X266500Y222500D02*
X383000D01*
X260173Y228827D02*
X266500Y222500D01*
X383000D02*
X394000Y211500D01*
X382000Y220500D02*
X391000Y211500D01*
X388000Y193000D02*
Y211000D01*
X371500Y186000D02*
X381000D01*
X388000Y193000D01*
X383500Y184000D02*
X391000Y191500D01*
Y211500D01*
X381910Y178410D02*
X394000Y190500D01*
Y211500D01*
X379500Y177500D02*
X380410Y178410D01*
X381910D01*
X376000Y184000D02*
X383500D01*
X369500D02*
X371500Y186000D01*
X374952Y182952D02*
X376000Y184000D01*
X374500Y177500D02*
X374952Y177952D01*
Y182952D01*
X369500Y177500D02*
Y184000D01*
X250441Y228827D02*
X260173D01*
X256500Y243653D02*
X256846Y244000D01*
X242846Y184500D02*
X248500D01*
X236154Y188154D02*
X238827Y190827D01*
X236154Y184500D02*
Y188154D01*
X217173Y191827D02*
Y195559D01*
X220000Y189000D02*
X225500D01*
X217173Y191827D02*
X220000Y189000D01*
X225500D02*
X226847Y187654D01*
Y184500D02*
Y187654D01*
X262500Y188000D02*
X272500D01*
X281500Y179000D01*
X257000Y193500D02*
Y201000D01*
Y193500D02*
X262500Y188000D01*
X250441Y203236D02*
X254764D01*
X257000Y201000D01*
X246705Y205205D02*
X250441D01*
X244500Y203000D02*
X246705Y205205D01*
X244500Y201000D02*
Y203000D01*
Y201000D02*
X266500Y179000D01*
X374500Y201442D02*
X374668Y201610D01*
X374500Y192854D02*
Y201442D01*
X369500Y192854D02*
Y201500D01*
X359500Y200138D02*
X359501Y200139D01*
X359500Y192854D02*
Y200138D01*
X379750Y193104D02*
Y200750D01*
X380000Y201000D01*
X379500Y192854D02*
X379750Y193104D01*
X259000Y276500D02*
X259191Y276309D01*
X263966D02*
X264114Y276161D01*
X259191Y276309D02*
X263966D01*
X269126Y270000D02*
X269500D01*
X264114Y271043D02*
X268083D01*
X269126Y270000D01*
X264262Y278573D02*
X267620D01*
X270346Y275847D01*
X264114Y278720D02*
X264262Y278573D01*
X268102Y273602D02*
X270346Y275847D01*
X274000D01*
X264114Y273602D02*
X268102D01*
X274000Y269153D02*
X274153Y269000D01*
X278500D01*
X234500Y289000D02*
X237016Y291516D01*
X240886D01*
X234500Y289000D02*
X234522Y288978D01*
X240864D02*
X240886Y288957D01*
X234522Y288978D02*
X240864D01*
X234691Y283691D02*
X240738D01*
X240886Y283839D01*
X234500Y283500D02*
X234691Y283691D01*
X234500Y283500D02*
X236720Y281279D01*
X240886D01*
X236783Y271043D02*
X240886D01*
X240886Y271043D01*
X233894Y268154D02*
X236783Y271043D01*
X230500Y268154D02*
X233894D01*
X234717Y274847D02*
X235961Y273602D01*
X230500Y274847D02*
X234717D01*
X235961Y273602D02*
X240886D01*
X241000Y309846D02*
Y314500D01*
X225000Y322000D02*
X230654D01*
X225000Y329000D02*
X230654D01*
X225000Y336000D02*
X230654D01*
X273346Y322000D02*
X278000D01*
X273346Y329000D02*
X278000D01*
X277830Y336000D02*
X277864Y336034D01*
X273346Y336000D02*
X277830D01*
X197110Y224890D02*
X205559D01*
X190941Y231059D02*
X197110Y224890D01*
X180929Y231059D02*
X190941D01*
X211953Y220953D02*
X213500Y222500D01*
X205559Y220953D02*
X211953D01*
X213500Y222500D02*
Y232000D01*
X204500Y241000D02*
X213500Y232000D01*
X179847Y241000D02*
X204500D01*
X214653Y250500D02*
X215000Y250847D01*
Y255000D01*
X213236Y240441D02*
Y245736D01*
X214653Y247153D01*
Y250500D01*
X215500Y184500D02*
X220153D01*
X134043Y175362D02*
X134500Y174906D01*
D17*
X310000Y171000D02*
X320000D01*
X291000Y180000D02*
X301000D01*
X310000Y171000D01*
X283000Y172000D02*
X291000Y180000D01*
X273500Y172000D02*
X283000D01*
X266500Y179000D02*
X273500Y172000D01*
X262347Y144153D02*
Y157500D01*
X238154Y145153D02*
Y157500D01*
X232000Y307500D02*
Y312000D01*
X194500Y301500D02*
X226000D01*
X232000Y307500D01*
X306000D02*
Y327500D01*
X289000Y324500D02*
Y330500D01*
X280000Y315500D02*
X289000Y324500D01*
Y330500D02*
X293000Y334500D01*
X267241Y317759D02*
X269500Y315500D01*
X280000D01*
X267241Y317759D02*
Y321412D01*
X266653Y322000D02*
X267241Y321412D01*
X293000Y334500D02*
X303500D01*
X305585Y332415D01*
Y327915D02*
X306000Y327500D01*
X305585Y327915D02*
Y332415D01*
X339500Y339500D02*
X346000Y333000D01*
X293000Y339500D02*
X339500D01*
X285000Y347500D02*
X293000Y339500D01*
X346000Y327500D02*
Y333000D01*
Y307500D02*
Y327500D01*
X267807Y347500D02*
X285000D01*
X325500Y307500D02*
X334000Y299000D01*
X306000Y307500D02*
X325500D01*
X334000Y299000D02*
X352000D01*
X356500Y294500D01*
Y288000D02*
X364500Y280000D01*
X356500Y288000D02*
Y294500D01*
X364500Y280000D02*
X375000D01*
X385500Y290500D01*
X347000Y306500D02*
X359000D01*
X346000Y307500D02*
X347000Y306500D01*
X359000D02*
X368000Y297500D01*
Y290500D02*
Y297500D01*
X218500Y337000D02*
Y343500D01*
Y327500D02*
Y337000D01*
X165500D02*
X218500D01*
X159000Y330500D02*
X165500Y337000D01*
X159000Y316500D02*
Y330500D01*
X153500Y311000D02*
X159000Y316500D01*
X132500Y311000D02*
X153500D01*
X113500Y292000D02*
X132500Y311000D01*
X176177Y307177D02*
X176500Y307500D01*
X176177Y302423D02*
Y307177D01*
X173253Y299500D02*
X176177Y302423D01*
X136000Y299500D02*
X173253D01*
X128500Y292000D02*
X136000Y299500D01*
X291831Y187500D02*
X308000D01*
X283331Y179000D02*
X291831Y187500D01*
X308000D02*
X309500Y186000D01*
X320000Y171000D02*
X324500Y175500D01*
X309500Y181728D02*
Y186000D01*
X324500Y175500D02*
Y181728D01*
X281500Y179000D02*
X283331D01*
X137500Y157500D02*
X148500Y146500D01*
Y114500D02*
Y146500D01*
Y114500D02*
X151000Y112000D01*
X168000D01*
X137500Y112000D02*
Y141500D01*
Y112000D02*
X144000Y105500D01*
X181500D01*
X168000Y112000D02*
X176000Y120000D01*
Y120000D01*
X196539Y105961D02*
X245000D01*
X182500Y120000D02*
X196539Y105961D01*
X176000Y120000D02*
X182500D01*
X176000D02*
Y128500D01*
X319500Y149000D02*
Y160272D01*
Y132500D02*
Y149000D01*
X354500D01*
X363000Y157500D01*
Y141500D02*
X371500Y150000D01*
Y161500D01*
X366000Y167000D02*
X371500Y161500D01*
X316000Y167000D02*
X366000D01*
X314500Y160272D02*
Y165500D01*
X316000Y167000D01*
X279500Y111000D02*
X289000D01*
X273000Y117500D02*
Y133500D01*
Y117500D02*
X279500Y111000D01*
X262347Y144153D02*
X273000Y133500D01*
X234500Y141500D02*
X238154Y145153D01*
X234500Y133500D02*
Y141500D01*
X204185Y128500D02*
X229500D01*
X234500Y133500D01*
X195685Y120000D02*
X204185Y128500D01*
X195685Y120000D02*
X195685D01*
X171500Y133000D02*
Y163243D01*
Y133000D02*
X176000Y128500D01*
X171500Y163243D02*
X177257Y169000D01*
X186000D02*
X187500Y167500D01*
X177257Y169000D02*
X186000D01*
X187500Y161272D02*
Y167500D01*
X297000Y119000D02*
Y126000D01*
X289000Y111000D02*
X297000Y119000D01*
Y126000D02*
X300870Y129870D01*
X314500D01*
X182500Y133185D02*
Y161272D01*
Y133185D02*
X195685Y120000D01*
X255000Y105961D02*
X290646D01*
X304685Y120000D01*
X323500Y128500D02*
X329000D01*
X332000Y125500D01*
X319500Y132500D02*
X323500Y128500D01*
X332000Y118000D02*
Y125500D01*
X326500Y112500D02*
X332000Y118000D01*
X312705Y120000D02*
X320205Y112500D01*
X304685Y120000D02*
X312705D01*
X320205Y112500D02*
X326500D01*
X314500Y129870D02*
X324370Y120000D01*
X314500Y129870D02*
Y160272D01*
X266653Y346346D02*
X267807Y347500D01*
X266653Y343000D02*
Y346346D01*
X261500Y336000D02*
X266653D01*
X253500Y270965D02*
Y328000D01*
X261500Y336000D01*
X263000Y322000D02*
X266653D01*
X256000Y315000D02*
X263000Y322000D01*
X256000Y272000D02*
Y315000D01*
X250500Y269965D02*
Y328000D01*
X237347Y336000D02*
X242500D01*
X250500Y328000D01*
X248000Y271000D02*
Y315000D01*
X241088Y321912D02*
X248000Y315000D01*
X237434Y321912D02*
X241088D01*
X237347Y322000D02*
X237434Y321912D01*
X253500Y270965D02*
X258539Y265925D01*
X256000Y272000D02*
X259464Y268536D01*
X240886Y268484D02*
X240915Y268455D01*
X240886Y265925D02*
X240915Y265955D01*
X245455Y268455D02*
X248000Y271000D01*
X246490Y265955D02*
X250500Y269965D01*
X240915Y265955D02*
X246490D01*
X240915Y268455D02*
X245455D01*
X258539Y265925D02*
X264114D01*
X259464Y268536D02*
X264062D01*
X264114Y268484D01*
X237347Y317347D02*
Y322000D01*
Y329000D01*
X232000Y312000D02*
X237347Y317347D01*
X188500Y307500D02*
X194500Y301500D01*
X176500Y307500D02*
X188500D01*
X237347Y343000D02*
Y346654D01*
X236000Y348000D02*
X237347Y346654D01*
X223000Y348000D02*
X236000D01*
X218500Y343500D02*
X223000Y348000D01*
X266653Y322000D02*
Y329000D01*
Y336000D02*
Y343000D01*
X237347Y336000D02*
Y343000D01*
X218500Y307500D02*
Y327500D01*
X176500Y307500D02*
Y327500D01*
D39*
X205559Y232764D02*
D03*
Y230795D02*
D03*
Y228827D02*
D03*
Y226858D02*
D03*
Y224890D02*
D03*
Y222921D02*
D03*
Y220953D02*
D03*
Y218984D02*
D03*
Y217016D02*
D03*
Y215047D02*
D03*
Y213079D02*
D03*
Y211110D02*
D03*
Y209142D02*
D03*
Y207173D02*
D03*
Y205205D02*
D03*
Y203236D02*
D03*
X250441D02*
D03*
Y205205D02*
D03*
Y207173D02*
D03*
Y209142D02*
D03*
Y211110D02*
D03*
Y213079D02*
D03*
Y215047D02*
D03*
Y217016D02*
D03*
Y218984D02*
D03*
Y220953D02*
D03*
Y222921D02*
D03*
Y224890D02*
D03*
Y226858D02*
D03*
Y228827D02*
D03*
Y230795D02*
D03*
Y232764D02*
D03*
D40*
X213236Y195559D02*
D03*
X215205D02*
D03*
X217173D02*
D03*
X219142D02*
D03*
X221110D02*
D03*
X223079D02*
D03*
X225047D02*
D03*
X227016D02*
D03*
X228984D02*
D03*
X230953D02*
D03*
X232921D02*
D03*
X234890D02*
D03*
X236858D02*
D03*
X238827D02*
D03*
X240795D02*
D03*
X242764D02*
D03*
Y240441D02*
D03*
X240795D02*
D03*
X238827D02*
D03*
X236858D02*
D03*
X234890D02*
D03*
X232921D02*
D03*
X230953D02*
D03*
X228984D02*
D03*
X227016D02*
D03*
X225047D02*
D03*
X223079D02*
D03*
X221110D02*
D03*
X219142D02*
D03*
X217173D02*
D03*
X215205D02*
D03*
X213236D02*
D03*
D41*
X298000Y160799D02*
D03*
Y173201D02*
D03*
X161000Y177201D02*
D03*
Y164799D02*
D03*
D42*
X220153Y184500D02*
D03*
X226847D02*
D03*
X242846D02*
D03*
X236154D02*
D03*
X250153Y244000D02*
D03*
X256846D02*
D03*
X269153Y214500D02*
D03*
X275847D02*
D03*
X309347Y207000D02*
D03*
X302654D02*
D03*
X309347Y214500D02*
D03*
X302654D02*
D03*
X342846Y207000D02*
D03*
X336154D02*
D03*
X342846Y214500D02*
D03*
X336154D02*
D03*
X376346Y207000D02*
D03*
X369654D02*
D03*
X244847Y157500D02*
D03*
X238154D02*
D03*
X255654D02*
D03*
X262347D02*
D03*
X266653Y329000D02*
D03*
X273346D02*
D03*
Y336000D02*
D03*
X266653D02*
D03*
X237347Y329000D02*
D03*
X230654D02*
D03*
X273346Y322000D02*
D03*
X266653D02*
D03*
X230654D02*
D03*
X237347D02*
D03*
X230654Y336000D02*
D03*
X237347D02*
D03*
Y343000D02*
D03*
X230654D02*
D03*
X266653D02*
D03*
X273346D02*
D03*
X320346Y193000D02*
D03*
X313653D02*
D03*
X188347Y194000D02*
D03*
X181653D02*
D03*
X376346Y214500D02*
D03*
X369654D02*
D03*
X275847Y207000D02*
D03*
X269153D02*
D03*
X179847Y241000D02*
D03*
X173153D02*
D03*
X214653Y250500D02*
D03*
X221346D02*
D03*
X179847Y216000D02*
D03*
X173153D02*
D03*
D43*
X274000Y275847D02*
D03*
Y269153D02*
D03*
X241000Y303153D02*
D03*
Y309846D02*
D03*
X230500Y274847D02*
D03*
Y268154D02*
D03*
D44*
X255000Y141000D02*
D03*
X245000D02*
D03*
X255000Y105961D02*
D03*
X245000D02*
D03*
D45*
X264114Y265925D02*
D03*
Y268484D02*
D03*
Y271043D02*
D03*
Y273602D02*
D03*
Y276161D02*
D03*
Y278720D02*
D03*
Y281279D02*
D03*
Y283839D02*
D03*
Y286398D02*
D03*
Y288957D02*
D03*
Y291516D02*
D03*
Y294075D02*
D03*
X240886Y265925D02*
D03*
Y268484D02*
D03*
Y271043D02*
D03*
Y273602D02*
D03*
Y276161D02*
D03*
Y278720D02*
D03*
Y281279D02*
D03*
Y283839D02*
D03*
Y286398D02*
D03*
Y288957D02*
D03*
Y291516D02*
D03*
Y294075D02*
D03*
D46*
X324500Y181728D02*
D03*
X319500D02*
D03*
X314500D02*
D03*
X309500D02*
D03*
X324500Y160272D02*
D03*
X319500D02*
D03*
X314500D02*
D03*
X309500D02*
D03*
X192500Y182728D02*
D03*
X187500D02*
D03*
X182500D02*
D03*
X177500D02*
D03*
X192500Y161272D02*
D03*
X187500D02*
D03*
X182500D02*
D03*
X177500D02*
D03*
D47*
X379500Y192854D02*
D03*
X374500D02*
D03*
X369500D02*
D03*
X364500D02*
D03*
X359500D02*
D03*
X379500Y177500D02*
D03*
X374500D02*
D03*
X369500D02*
D03*
X364500D02*
D03*
X359500D02*
D03*
D48*
X115484Y212055D02*
D03*
Y203000D02*
D03*
Y193945D02*
D03*
X113484Y269055D02*
D03*
Y260000D02*
D03*
Y250945D02*
D03*
D49*
X138516Y203000D02*
D03*
X136516Y260000D02*
D03*
D50*
X134043Y233500D02*
D03*
X126957D02*
D03*
X134043Y175362D02*
D03*
X126957D02*
D03*
X150543D02*
D03*
X143457D02*
D03*
X151043Y233500D02*
D03*
X143957D02*
D03*
X117543Y175362D02*
D03*
X110457D02*
D03*
X117543Y233500D02*
D03*
X110457D02*
D03*
D51*
X180929Y225941D02*
D03*
Y231059D02*
D03*
X172071Y228500D02*
D03*
D52*
X260500Y168000D02*
X286500D01*
X249000Y179500D02*
X260500Y168000D01*
X255327Y157173D02*
X255654Y157500D01*
X255327Y141327D02*
Y157173D01*
X255000Y141000D02*
X255327Y141327D01*
X244923Y141077D02*
Y157423D01*
Y141077D02*
X245000Y141000D01*
X244847Y157500D02*
X244923Y157423D01*
X226500Y181500D02*
X228500Y179500D01*
X249000D01*
X221108Y290392D02*
X233870Y303153D01*
X211500Y280784D02*
X221108Y290392D01*
X190000Y255000D02*
X211500Y276500D01*
Y280784D01*
X165500Y255000D02*
X190000D01*
X166500Y220500D02*
X180929D01*
X233870Y303153D02*
X241000D01*
X159000Y248500D02*
X165500Y255000D01*
X164000Y218000D02*
X166500Y220500D01*
X164000Y209000D02*
Y218000D01*
Y209000D02*
X174000Y199000D01*
X181646Y194007D02*
Y198430D01*
X182000Y198784D01*
Y199000D01*
X198000D02*
X211500Y185500D01*
Y182500D02*
Y185500D01*
Y182500D02*
X214500Y179500D01*
X224500D01*
X226500Y181500D01*
Y184153D01*
X226847Y184500D01*
X181646Y194007D02*
X182500Y193154D01*
X159000Y236000D02*
Y248500D01*
Y228000D02*
Y236000D01*
X180128Y219699D02*
X180929Y220500D01*
X180128Y216281D02*
Y219699D01*
X179847Y216000D02*
X180128Y216281D01*
X180929Y220500D02*
Y225941D01*
X159000Y228000D02*
X166500Y220500D01*
X153000Y254500D02*
X159000Y248500D01*
X308925Y192944D02*
X308981Y193000D01*
X313653D01*
X287584Y214500D02*
X287601Y214483D01*
X275847Y214500D02*
X287584D01*
X274000Y275847D02*
X281846D01*
X113000Y212827D02*
X113827Y212000D01*
X124000D01*
X113000Y212827D02*
Y216000D01*
X110500Y269827D02*
Y273000D01*
X111272Y269055D02*
X120999D01*
X110500Y269827D02*
X111272Y269055D01*
X187431Y177755D02*
Y182659D01*
X186000Y176325D02*
X187431Y177755D01*
X186000Y176108D02*
Y176325D01*
X187431Y182659D02*
X187500Y182728D01*
X365108Y215000D02*
X365261Y214847D01*
X369130Y214500D02*
X369654D01*
X368783Y214847D02*
X369130Y214500D01*
X365261Y214847D02*
X368783D01*
X332000Y214500D02*
X336154D01*
X298500D02*
X302654D01*
X317000Y174500D02*
X319500Y177000D01*
Y181728D01*
X320423Y188077D02*
Y192923D01*
Y188077D02*
X320500Y188000D01*
X320346Y193000D02*
X320423Y192923D01*
X376346Y207000D02*
Y214500D01*
X342846Y207000D02*
Y214500D01*
X309347Y207000D02*
Y214500D01*
X313500Y187500D02*
Y192847D01*
X313653Y193000D01*
X314500Y181728D02*
Y186500D01*
X313500Y187500D02*
X314500Y186500D01*
X127000Y203000D02*
X138516D01*
X115484D02*
X127000D01*
X126957Y175362D02*
Y202957D01*
X127000Y203000D01*
X120999Y269055D02*
X121006Y269049D01*
X117260Y228160D02*
Y233217D01*
X117543Y233500D01*
X134000Y228500D02*
X134043Y228543D01*
Y233500D01*
X151022Y233478D02*
X151043Y233500D01*
X151022Y228022D02*
Y233478D01*
X151000Y228000D02*
X151022Y228022D01*
X168000Y241000D02*
X173153D01*
X167000Y228500D02*
X172071D01*
X169000Y216000D02*
X173153D01*
X192423Y194077D02*
X192500Y194000D01*
X188423Y194077D02*
X192423D01*
X187569Y193223D02*
X188347Y194000D01*
X188423Y194077D01*
X182500Y182728D02*
Y193154D01*
X138516Y190984D02*
Y203000D01*
Y190984D02*
X143457Y186043D01*
Y175362D02*
Y186043D01*
X139006Y202509D02*
X145491D01*
X138516Y203000D02*
X139006Y202509D01*
X145491D02*
X153000Y195000D01*
X117500Y170000D02*
Y175319D01*
X117543Y175362D01*
X134500Y169500D02*
Y174906D01*
X150500Y175319D02*
X150543Y175362D01*
X150500Y169000D02*
Y175319D01*
D53*
X294520Y173500D02*
X296541D01*
X292000Y170980D02*
X294520Y173500D01*
X292000Y166000D02*
Y170980D01*
X255000Y163000D02*
X289000D01*
X292000Y166000D01*
X243000Y175000D02*
X255000Y163000D01*
X296000Y307500D02*
Y327500D01*
X108500Y193945D02*
Y224000D01*
X110457Y225957D01*
Y233500D01*
Y239957D01*
X113484Y250945D02*
X113500Y250929D01*
Y243000D02*
Y250929D01*
X110457Y239957D02*
X113500Y243000D01*
X111024Y250945D02*
X113484D01*
X153000Y165000D02*
X155500Y167500D01*
Y174500D01*
X113500Y165000D02*
X153000D01*
X110457Y168043D02*
X113500Y165000D01*
X110457Y168043D02*
Y175362D01*
X160976Y176929D02*
X161000Y176953D01*
X155500Y174500D02*
X157929Y176929D01*
X160976D01*
X161000Y176953D02*
Y177201D01*
X297976Y173472D02*
X298000Y173449D01*
Y173201D02*
Y173449D01*
X296568Y173472D02*
X297976D01*
X296541Y173500D02*
X296568Y173472D01*
X298000Y152000D02*
Y160799D01*
X200000Y175000D02*
X243000D01*
X197500Y172500D02*
X200000Y175000D01*
X161000Y177201D02*
X177799D01*
X182500Y172500D02*
X197500D01*
X177799Y177201D02*
X182500Y172500D01*
X161000Y150000D02*
Y164799D01*
X156315Y120000D02*
Y145315D01*
X161000Y150000D01*
X285000Y139000D02*
X298000Y152000D01*
X285000Y120000D02*
Y139000D01*
X336000Y307500D02*
Y327500D01*
X208500Y307500D02*
Y327500D01*
X166500Y307500D02*
Y327500D01*
X136516Y249484D02*
Y260000D01*
X143957Y233500D02*
Y242043D01*
X136516Y249484D02*
X143957Y242043D01*
X127000Y260000D02*
X136516D01*
X113484D02*
X127000D01*
X126957Y233500D02*
Y259957D01*
X127000Y260000D01*
X104500Y191000D02*
X107445Y193945D01*
X115484D01*
X104500Y177500D02*
Y191000D01*
Y177500D02*
X106500Y175500D01*
X110319D01*
X110457Y175362D01*
X151790Y254500D02*
X153000D01*
X136516Y260000D02*
X146290D01*
X151790Y254500D01*
D54*
X296000Y327500D02*
D03*
Y307500D02*
D03*
X336000Y327500D02*
D03*
Y307500D02*
D03*
X208500Y327500D02*
D03*
Y307500D02*
D03*
X166500Y327500D02*
D03*
Y307500D02*
D03*
D55*
X306000Y327500D02*
D03*
Y307500D02*
D03*
X346000Y327500D02*
D03*
Y307500D02*
D03*
X218500Y327500D02*
D03*
Y307500D02*
D03*
X176500Y327500D02*
D03*
Y307500D02*
D03*
D56*
X156315Y120000D02*
D03*
X285000D02*
D03*
D57*
X176000D02*
D03*
X195685D02*
D03*
X215370D02*
D03*
X304685D02*
D03*
X324370D02*
D03*
X344055D02*
D03*
D58*
X222500Y167000D02*
D03*
X207500D02*
D03*
X363000Y157500D02*
D03*
Y141500D02*
D03*
X137500Y157500D02*
D03*
Y141500D02*
D03*
X292000Y232500D02*
D03*
X276000D02*
D03*
X113500Y292000D02*
D03*
X128500D02*
D03*
X281500Y179000D02*
D03*
X266500D02*
D03*
X368000Y290500D02*
D03*
X385500D02*
D03*
X153000Y195000D02*
D03*
Y254500D02*
D03*
D59*
X120000Y330000D02*
D03*
X380000D02*
D03*
Y120000D02*
D03*
X120000D02*
D03*
D60*
X286500Y168000D02*
D03*
X250500Y239500D02*
D03*
X227501Y284428D02*
D03*
X174000Y199000D02*
D03*
X182000D02*
D03*
X198000D02*
D03*
X308925Y192944D02*
D03*
X287601Y214483D02*
D03*
X213000Y189000D02*
D03*
X238000Y206000D02*
D03*
X238500Y210000D02*
D03*
X227000Y209500D02*
D03*
X198000Y207000D02*
D03*
X243500Y230500D02*
D03*
X226500Y246500D02*
D03*
X238601Y222500D02*
D03*
X212001Y218453D02*
D03*
X197500Y203000D02*
D03*
X216500Y218500D02*
D03*
X244454Y224039D02*
D03*
X212951Y211102D02*
D03*
X240500Y202000D02*
D03*
X223000Y204178D02*
D03*
X242500Y212500D02*
D03*
X242365Y217216D02*
D03*
X259000Y220500D02*
D03*
X256000Y224000D02*
D03*
X188550Y207950D02*
D03*
X198432Y244577D02*
D03*
X192500Y244000D02*
D03*
X223500Y271500D02*
D03*
X217500D02*
D03*
X297000Y262000D02*
D03*
X293000Y258500D02*
D03*
X287500D02*
D03*
X282111Y258760D02*
D03*
X281846Y275847D02*
D03*
X171000Y182500D02*
D03*
X207500Y183000D02*
D03*
X113000Y216000D02*
D03*
X110500Y273000D02*
D03*
X190500Y212000D02*
D03*
X186000Y176108D02*
D03*
X365108Y215000D02*
D03*
X332000Y214500D02*
D03*
X298500D02*
D03*
X248500Y184500D02*
D03*
X317000Y174500D02*
D03*
X320500Y188000D02*
D03*
X374668Y201610D02*
D03*
X369500Y201500D02*
D03*
X359501Y200139D02*
D03*
X380000Y201000D02*
D03*
X181500Y105500D02*
D03*
X259000Y276500D02*
D03*
X269500Y270000D02*
D03*
X278500Y269000D02*
D03*
X234500Y289000D02*
D03*
Y283500D02*
D03*
X241000Y314500D02*
D03*
X225000Y322000D02*
D03*
Y329000D02*
D03*
Y336000D02*
D03*
X278000Y322000D02*
D03*
Y329000D02*
D03*
X277864Y336034D02*
D03*
X215000Y255000D02*
D03*
X121006Y269049D02*
D03*
X117260Y228160D02*
D03*
X134000Y228500D02*
D03*
X151000Y228000D02*
D03*
X168000Y241000D02*
D03*
X167000Y228500D02*
D03*
X169000Y216000D02*
D03*
X192500Y194000D02*
D03*
X215500Y184500D02*
D03*
X124000Y212000D02*
D03*
X117500Y170000D02*
D03*
X134500Y169500D02*
D03*
X150500Y169000D02*
D03*
M02*
