G04*
G04 #@! TF.GenerationSoftware,Altium Limited,Altium Designer,21.1.1 (26)*
G04*
G04 Layer_Color=65535*
%FSLAX25Y25*%
%MOIN*%
G70*
G04*
G04 #@! TF.SameCoordinates,1B48DBFB-4F0D-4C64-993E-EB7B70E0D2B1*
G04*
G04*
G04 #@! TF.FilePolarity,Positive*
G04*
G01*
G75*
%ADD10C,0.00984*%
%ADD11C,0.02362*%
%ADD12C,0.00394*%
%ADD13C,0.01000*%
%ADD14C,0.00787*%
%ADD15C,0.01200*%
%ADD16C,0.01300*%
%ADD17C,0.01500*%
%ADD18C,0.00800*%
%ADD19R,0.09449X0.01968*%
G36*
X392500Y226000D02*
X322500D01*
Y238000D01*
X392500D01*
Y226000D01*
D02*
G37*
%LPC*%
G36*
X344928Y235026D02*
D01*
X343388Y234596D01*
Y233860D01*
X342798D01*
Y235026D01*
D01*
D01*
Y230008D01*
D01*
Y232777D01*
X343388D01*
Y231389D01*
X343394Y231271D01*
X343401Y231153D01*
X343422Y231049D01*
X343443Y230945D01*
X343471Y230855D01*
X343506Y230772D01*
X343540Y230695D01*
X343575Y230626D01*
X343603Y230563D01*
X343637Y230515D01*
X343672Y230466D01*
X343700Y230432D01*
X343721Y230397D01*
X343741Y230376D01*
X343748Y230369D01*
X343755Y230362D01*
X343825Y230300D01*
X343908Y230244D01*
X343984Y230196D01*
X344068Y230161D01*
X344241Y230092D01*
X344401Y230050D01*
X344477Y230036D01*
X344547Y230029D01*
X344616Y230022D01*
X344671Y230015D01*
X344713Y230008D01*
X342798D01*
X345712D01*
X344900D01*
X345011Y230015D01*
X345109Y230022D01*
X345192Y230036D01*
X345261Y230043D01*
X345317Y230050D01*
X345345Y230057D01*
X345358D01*
X345442Y230071D01*
X345518Y230092D01*
X345581Y230105D01*
X345629Y230119D01*
X345664Y230133D01*
X345692Y230140D01*
X345706Y230147D01*
X345712D01*
Y231244D01*
Y231237D01*
X345636Y231209D01*
X345560Y231188D01*
X345497Y231174D01*
X345435Y231167D01*
X345386Y231160D01*
X345352Y231153D01*
X345317D01*
X345247Y231160D01*
X345192Y231174D01*
X345136Y231202D01*
X345095Y231230D01*
X345025Y231306D01*
X344977Y231403D01*
X344949Y231493D01*
X344935Y231570D01*
X344928Y231597D01*
Y231625D01*
Y231639D01*
Y231646D01*
Y232777D01*
X345712D01*
Y233860D01*
X344928D01*
Y235026D01*
D02*
G37*
G36*
X353770Y233950D02*
X353700D01*
X353561Y233943D01*
X353437Y233922D01*
X353319Y233895D01*
X353215Y233867D01*
X353138Y233839D01*
X353076Y233811D01*
X353034Y233790D01*
X353027Y233784D01*
X353020D01*
X352916Y233721D01*
X352826Y233645D01*
X352743Y233575D01*
X352673Y233506D01*
X352618Y233443D01*
X352576Y233395D01*
X352548Y233360D01*
X352541Y233346D01*
X352527D01*
Y233860D01*
X350966Y233860D01*
Y228370D01*
X355199Y228370D01*
Y232097D01*
Y232090D01*
X355192Y232250D01*
X355186Y232402D01*
X355165Y232548D01*
X355137Y232680D01*
X355109Y232805D01*
X355075Y232916D01*
X355040Y233020D01*
X355005Y233110D01*
X354970Y233194D01*
X354936Y233263D01*
X354901Y233326D01*
X354873Y233374D01*
X354845Y233416D01*
X354825Y233443D01*
X354818Y233457D01*
X354811Y233464D01*
X354734Y233548D01*
X354651Y233624D01*
X354561Y233686D01*
X354471Y233749D01*
X354380Y233790D01*
X354290Y233832D01*
X354200Y233867D01*
X354110Y233888D01*
X354027Y233909D01*
X353950Y233922D01*
X353881Y233936D01*
X353818Y233943D01*
X353770Y233950D01*
D02*
G37*
G36*
X369808D02*
X368573D01*
X368441Y233943D01*
X368309Y233922D01*
X368191Y233895D01*
X368094Y233860D01*
X368004Y233825D01*
X367941Y233798D01*
X367900Y233777D01*
X367893Y233770D01*
X367886D01*
X367775Y233693D01*
X367677Y233617D01*
X367587Y233534D01*
X367518Y233451D01*
X367462Y233381D01*
X367421Y233326D01*
X367393Y233284D01*
X367386Y233277D01*
Y233270D01*
X367372D01*
Y233860D01*
X365811D01*
Y230099D01*
X367372D01*
Y232243D01*
X367379Y232333D01*
X367393Y232410D01*
X367407Y232479D01*
X367428Y232534D01*
X367448Y232583D01*
X367469Y232618D01*
X367476Y232639D01*
X367483Y232645D01*
X367532Y232701D01*
X367580Y232736D01*
X367629Y232763D01*
X367685Y232784D01*
X367726Y232798D01*
X367761Y232805D01*
X367795D01*
X367879Y232798D01*
X367948Y232784D01*
X368004Y232756D01*
X368052Y232729D01*
X368087Y232701D01*
X368115Y232673D01*
X368129Y232659D01*
X368136Y232652D01*
X368170Y232590D01*
X368198Y232507D01*
X368219Y232423D01*
X368233Y232340D01*
X368240Y232264D01*
X368247Y232201D01*
Y232160D01*
Y232153D01*
Y232146D01*
Y230099D01*
X369808D01*
Y232527D01*
X369794Y232666D01*
X369780Y232791D01*
X369753Y232902D01*
X369725Y233013D01*
X369697Y233110D01*
X369655Y233208D01*
X369614Y233291D01*
X369524Y233443D01*
X369420Y233568D01*
X369308Y233673D01*
X369190Y233756D01*
X369072Y233818D01*
X368961Y233867D01*
X368857Y233902D01*
X368767Y233929D01*
X368684Y233943D01*
X368628Y233950D01*
X369808D01*
D02*
G37*
G36*
X385263Y233922D02*
X384286D01*
X385034D01*
X384910Y233915D01*
X384792Y233895D01*
X384681Y233860D01*
X384590Y233832D01*
X384521Y233798D01*
X384465Y233763D01*
X384431Y233742D01*
X384417Y233735D01*
X384327Y233659D01*
X384243Y233575D01*
X384174Y233485D01*
X384118Y233395D01*
X384070Y233319D01*
X384042Y233256D01*
X384021Y233214D01*
X384014Y233208D01*
Y233201D01*
X384000D01*
Y233860D01*
X382439D01*
Y233922D01*
Y230099D01*
X385263D01*
Y233874D01*
X385187Y233902D01*
X385111Y233915D01*
X385083Y233922D01*
X385263D01*
D02*
G37*
G36*
X338037Y233950D02*
X334962D01*
D01*
X336725D01*
X336572Y233943D01*
X336427Y233936D01*
X336295Y233922D01*
X336170Y233895D01*
X336052Y233874D01*
X335941Y233846D01*
X335844Y233811D01*
X335760Y233784D01*
X335677Y233749D01*
X335615Y233721D01*
X335552Y233686D01*
X335504Y233666D01*
X335469Y233645D01*
X335441Y233624D01*
X335427Y233617D01*
X335420Y233610D01*
X335337Y233541D01*
X335268Y233471D01*
X335205Y233402D01*
X335157Y233326D01*
X335108Y233242D01*
X335073Y233166D01*
X335018Y233020D01*
X334990Y232888D01*
X334976Y232833D01*
X334969Y232784D01*
X334962Y232743D01*
Y232756D01*
Y232687D01*
X334969Y232534D01*
X334997Y232402D01*
X335032Y232284D01*
X335073Y232187D01*
X335115Y232104D01*
X335150Y232049D01*
X335177Y232014D01*
X335184Y232000D01*
X335282Y231910D01*
X335393Y231826D01*
X335518Y231757D01*
X335635Y231695D01*
X335747Y231646D01*
X335788Y231625D01*
X335830Y231611D01*
X335865Y231597D01*
X335892Y231591D01*
X335906Y231584D01*
X335913D01*
X335996Y231556D01*
X336066Y231535D01*
X336135Y231507D01*
X336191Y231486D01*
X336288Y231452D01*
X336357Y231424D01*
X336413Y231396D01*
X336448Y231382D01*
X336461Y231375D01*
X336468Y231368D01*
X336503Y231341D01*
X336531Y231320D01*
X336552Y231292D01*
X336565Y231264D01*
X336579Y231223D01*
Y231216D01*
Y231209D01*
X336572Y231167D01*
X336559Y231133D01*
X336538Y231098D01*
X336510Y231070D01*
X336434Y231028D01*
X336350Y231001D01*
X336260Y230987D01*
X336191Y230980D01*
X336156Y230973D01*
X336114D01*
X336024Y230980D01*
X335934Y230987D01*
X335740Y231021D01*
X335545Y231070D01*
X335365Y231133D01*
X335282Y231160D01*
X335205Y231188D01*
X335136Y231216D01*
X335080Y231237D01*
X335032Y231257D01*
X334990Y231271D01*
X334969Y231285D01*
X334962D01*
D01*
Y230182D01*
X335053Y230154D01*
X335157Y230133D01*
X335254Y230112D01*
X335351Y230092D01*
X335434Y230078D01*
X335504Y230064D01*
X335531D01*
X335552Y230057D01*
X335566D01*
X335698Y230043D01*
X335823Y230029D01*
X335927Y230022D01*
X336017Y230015D01*
X336094Y230008D01*
X336191D01*
X336350Y230015D01*
X336496Y230022D01*
X336635Y230043D01*
X336767Y230064D01*
X336892Y230092D01*
X337003Y230119D01*
X337100Y230147D01*
X337190Y230182D01*
X337273Y230216D01*
X337343Y230244D01*
X337405Y230272D01*
X337454Y230300D01*
X337495Y230321D01*
X337523Y230341D01*
X337537Y230348D01*
X337544Y230355D01*
X337634Y230425D01*
X337704Y230501D01*
X337773Y230577D01*
X337829Y230661D01*
X337877Y230744D01*
X337919Y230827D01*
X337947Y230904D01*
X337974Y230987D01*
X338009Y231126D01*
X338023Y231188D01*
X338030Y231243D01*
X338037Y231285D01*
Y230057D01*
Y233950D01*
D02*
G37*
G36*
X381856Y233950D02*
X377512D01*
D01*
X379684D01*
X379448Y233943D01*
X379233Y233915D01*
X379038Y233874D01*
X378948Y233853D01*
X378865Y233832D01*
X378795Y233811D01*
X378726Y233790D01*
X378671Y233770D01*
X378629Y233749D01*
X378587Y233735D01*
X378559Y233721D01*
X378546Y233714D01*
X378539D01*
X378365Y233617D01*
X378212Y233506D01*
X378081Y233395D01*
X377970Y233284D01*
X377886Y233187D01*
X377824Y233110D01*
X377803Y233076D01*
X377789Y233055D01*
X377775Y233041D01*
Y233034D01*
X377685Y232868D01*
X377623Y232687D01*
X377574Y232514D01*
X377546Y232354D01*
X377532Y232278D01*
X377525Y232215D01*
X377518Y232153D01*
Y232097D01*
X377512Y232055D01*
Y232090D01*
Y230008D01*
D01*
Y232000D01*
X377518Y231826D01*
X377539Y231667D01*
X377567Y231514D01*
X377602Y231375D01*
X377643Y231244D01*
X377692Y231126D01*
X377741Y231014D01*
X377796Y230917D01*
X377852Y230827D01*
X377900Y230751D01*
X377949Y230688D01*
X377990Y230633D01*
X378025Y230591D01*
X378060Y230563D01*
X378074Y230543D01*
X378081Y230536D01*
X378192Y230445D01*
X378310Y230362D01*
X378441Y230293D01*
X378566Y230230D01*
X378698Y230182D01*
X378837Y230140D01*
X378962Y230105D01*
X379087Y230078D01*
X379205Y230050D01*
X379316Y230036D01*
X379413Y230022D01*
X379503Y230015D01*
X379573D01*
X379628Y230008D01*
X379670D01*
X379857Y230015D01*
X380038Y230029D01*
X380204Y230057D01*
X380357Y230092D01*
X380503Y230133D01*
X380634Y230182D01*
X380752Y230230D01*
X380863Y230279D01*
X380961Y230328D01*
X381044Y230376D01*
X381113Y230425D01*
X381176Y230466D01*
X381218Y230501D01*
X381252Y230529D01*
X381273Y230543D01*
X381280Y230550D01*
X381384Y230654D01*
X381467Y230772D01*
X381551Y230890D01*
X381613Y231014D01*
X381669Y231133D01*
X381717Y231257D01*
X381752Y231382D01*
X381786Y231500D01*
X381807Y231611D01*
X381828Y231715D01*
X381835Y231806D01*
X381849Y231882D01*
Y231951D01*
X381856Y232000D01*
Y232042D01*
X381842Y232236D01*
X381814Y232423D01*
X381773Y232590D01*
X381724Y232736D01*
X381696Y232798D01*
X381676Y232854D01*
X381655Y232902D01*
X381634Y232944D01*
X381620Y232979D01*
X381606Y232999D01*
X381592Y233013D01*
Y233020D01*
X381481Y233173D01*
X381363Y233312D01*
X381238Y233430D01*
X381113Y233527D01*
X381009Y233603D01*
X380961Y233631D01*
X380919Y233659D01*
X380884Y233673D01*
X380857Y233686D01*
X380843Y233700D01*
X380836D01*
X380648Y233784D01*
X380454Y233846D01*
X380260Y233888D01*
X380079Y233922D01*
X379996Y233929D01*
X379920Y233936D01*
X379850Y233943D01*
X379795D01*
X379746Y233950D01*
X381856D01*
D01*
D02*
G37*
G36*
X372584D02*
X372522D01*
X372286Y233943D01*
X372071Y233915D01*
X371876Y233874D01*
X371786Y233853D01*
X371703Y233832D01*
X371633Y233811D01*
X371564Y233790D01*
X371508Y233770D01*
X371467Y233749D01*
X371425Y233735D01*
X371397Y233721D01*
X371384Y233714D01*
X371376D01*
X371203Y233617D01*
X371050Y233506D01*
X370918Y233395D01*
X370808Y233284D01*
X370724Y233187D01*
X370662Y233110D01*
X370641Y233076D01*
X370627Y233055D01*
X370613Y233041D01*
Y233034D01*
X370523Y232868D01*
X370460Y232687D01*
X370412Y232514D01*
X370384Y232354D01*
X370370Y232278D01*
X370363Y232215D01*
X370356Y232153D01*
Y232097D01*
X370349Y232055D01*
Y232069D01*
Y232000D01*
X370356Y231826D01*
X370377Y231667D01*
X370405Y231514D01*
X370440Y231375D01*
X370481Y231244D01*
X370530Y231126D01*
X370578Y231014D01*
X370634Y230917D01*
X370690Y230827D01*
X370738Y230751D01*
X370787Y230688D01*
X370828Y230633D01*
X370863Y230591D01*
X370898Y230563D01*
X370912Y230543D01*
X370918Y230536D01*
X371029Y230445D01*
X371147Y230362D01*
X371279Y230293D01*
X371404Y230230D01*
X371536Y230182D01*
X371675Y230140D01*
X371800Y230105D01*
X371925Y230078D01*
X372043Y230050D01*
X372154Y230036D01*
X372251Y230022D01*
X372341Y230015D01*
X372411D01*
X372466Y230008D01*
X370349D01*
X372508D01*
X372695Y230015D01*
X372876Y230029D01*
X373042Y230057D01*
X373195Y230092D01*
X373341Y230133D01*
X373472Y230182D01*
X373590Y230230D01*
X373701Y230279D01*
X373799Y230328D01*
X373882Y230376D01*
X373951Y230425D01*
X374014Y230466D01*
X374055Y230501D01*
X374090Y230529D01*
X374111Y230543D01*
X374118Y230550D01*
X374222Y230654D01*
X374305Y230772D01*
X374389Y230890D01*
X374451Y231014D01*
X374506Y231133D01*
X374555Y231257D01*
X374590Y231382D01*
X374624Y231500D01*
X374645Y231611D01*
X374666Y231715D01*
X374673Y231806D01*
X374687Y231882D01*
Y231951D01*
X374694Y232000D01*
Y232076D01*
Y232042D01*
X374680Y232236D01*
X374652Y232423D01*
X374611Y232590D01*
X374562Y232736D01*
X374534Y232798D01*
X374513Y232854D01*
X374493Y232902D01*
X374472Y232944D01*
X374458Y232979D01*
X374444Y232999D01*
X374430Y233013D01*
Y233020D01*
X374319Y233173D01*
X374201Y233312D01*
X374076Y233430D01*
X373951Y233527D01*
X373847Y233603D01*
X373799Y233631D01*
X373757Y233659D01*
X373722Y233673D01*
X373694Y233686D01*
X373681Y233700D01*
X373674D01*
X373486Y233784D01*
X373292Y233846D01*
X373098Y233888D01*
X372917Y233922D01*
X372834Y233929D01*
X372758Y233936D01*
X372688Y233943D01*
X372633D01*
X372584Y233950D01*
D02*
G37*
G36*
X358184Y235359D02*
X355935D01*
Y230099D01*
X360897D01*
Y230376D01*
Y230099D01*
X358163D01*
X358315Y230105D01*
X358461Y230112D01*
X358600Y230126D01*
X358732Y230154D01*
X358857Y230175D01*
X358975Y230203D01*
X359086Y230237D01*
X359183Y230265D01*
X359280Y230300D01*
X359356Y230328D01*
X359433Y230355D01*
X359488Y230383D01*
X359537Y230404D01*
X359572Y230418D01*
X359592Y230425D01*
X359599Y230432D01*
X359710Y230494D01*
X359821Y230570D01*
X359919Y230640D01*
X360016Y230723D01*
X360099Y230799D01*
X360175Y230876D01*
X360252Y230952D01*
X360314Y231028D01*
X360370Y231098D01*
X360418Y231167D01*
X360460Y231223D01*
X360495Y231278D01*
X360522Y231320D01*
X360543Y231348D01*
X360550Y231368D01*
X360557Y231375D01*
X360619Y231493D01*
X360668Y231611D01*
X360717Y231736D01*
X360751Y231854D01*
X360814Y232097D01*
X360835Y232208D01*
X360856Y232312D01*
X360869Y232416D01*
X360876Y232507D01*
X360890Y232590D01*
Y232659D01*
X360897Y232715D01*
Y230376D01*
Y232715D01*
Y232791D01*
X360890Y233027D01*
X360869Y233242D01*
X360828Y233451D01*
X360779Y233638D01*
X360717Y233818D01*
X360640Y233985D01*
X360557Y234138D01*
X360460Y234276D01*
X360363Y234408D01*
X360252Y234526D01*
X360134Y234630D01*
X360016Y234734D01*
X359891Y234825D01*
X359766Y234901D01*
X359634Y234977D01*
X359509Y235040D01*
X359377Y235095D01*
X359245Y235144D01*
X358996Y235227D01*
X358760Y235283D01*
X358649Y235303D01*
X358551Y235317D01*
X358454Y235331D01*
X358371Y235345D01*
X358295Y235352D01*
X358232D01*
X358184Y235359D01*
D02*
G37*
G36*
X342770Y235664D02*
X338613D01*
Y230098D01*
X340174D01*
Y232028D01*
X340188D01*
X341021Y230098D01*
X342770D01*
X341694Y232132D01*
X342707Y233860D01*
X340945D01*
X340188Y232090D01*
X340174D01*
Y235664D01*
X342770D01*
D01*
D02*
G37*
G36*
X327460Y235359D02*
X325212D01*
Y230098D01*
X330174D01*
X327439D01*
X327592Y230105D01*
X327738Y230112D01*
X327877Y230126D01*
X328009Y230154D01*
X328133Y230175D01*
X328251Y230203D01*
X328362Y230237D01*
X328460Y230265D01*
X328557Y230300D01*
X328633Y230328D01*
X328709Y230355D01*
X328765Y230383D01*
X328814Y230404D01*
X328848Y230418D01*
X328869Y230425D01*
X328876Y230432D01*
X328987Y230494D01*
X329098Y230570D01*
X329195Y230640D01*
X329292Y230723D01*
X329376Y230799D01*
X329452Y230876D01*
X329528Y230952D01*
X329591Y231028D01*
X329646Y231098D01*
X329695Y231167D01*
X329736Y231223D01*
X329771Y231278D01*
X329799Y231320D01*
X329820Y231348D01*
X329827Y231368D01*
X329834Y231375D01*
X329896Y231493D01*
X329945Y231611D01*
X329993Y231736D01*
X330028Y231854D01*
X330090Y232097D01*
X330111Y232208D01*
X330132Y232312D01*
X330146Y232416D01*
X330153Y232507D01*
X330167Y232590D01*
Y232659D01*
X330174Y232715D01*
Y232791D01*
X330167Y233027D01*
X330146Y233242D01*
X330104Y233451D01*
X330056Y233638D01*
X329993Y233818D01*
X329917Y233985D01*
X329834Y234138D01*
X329736Y234276D01*
X329639Y234408D01*
X329528Y234526D01*
X329410Y234630D01*
X329292Y234734D01*
X329168Y234825D01*
X329043Y234901D01*
X328911Y234977D01*
X328786Y235040D01*
X328654Y235095D01*
X328522Y235144D01*
X328272Y235227D01*
X328036Y235283D01*
X327925Y235303D01*
X327828Y235317D01*
X327731Y235331D01*
X327648Y235345D01*
X327571Y235352D01*
X327509D01*
X327460Y235359D01*
D02*
G37*
G36*
X376977Y231480D02*
X375235D01*
Y230751D01*
X375242Y230640D01*
X375270Y230536D01*
X375311Y230445D01*
X375353Y230369D01*
X375395Y230307D01*
X375436Y230265D01*
X375464Y230230D01*
X375471Y230223D01*
X375568Y230154D01*
X375672Y230099D01*
X375777Y230064D01*
X375874Y230036D01*
X375957Y230022D01*
X376026Y230015D01*
X376054Y230008D01*
X376089D01*
X376235Y230015D01*
X376366Y230043D01*
X376477Y230071D01*
X376575Y230112D01*
X376644Y230147D01*
X376699Y230182D01*
X376727Y230203D01*
X376741Y230209D01*
X376817Y230293D01*
X376880Y230383D01*
X376922Y230473D01*
X376949Y230557D01*
X376963Y230633D01*
X376977Y230695D01*
Y230751D01*
X376970Y230869D01*
X376942Y230973D01*
X376901Y231063D01*
X376859Y231139D01*
X376811Y231195D01*
X376776Y231244D01*
X376748Y231271D01*
X376734Y231278D01*
X376637Y231348D01*
X376533Y231396D01*
X376429Y231431D01*
X376325Y231452D01*
X376241Y231473D01*
X376165Y231480D01*
X376977D01*
D01*
D02*
G37*
G36*
X375235Y230716D02*
Y230008D01*
D01*
Y230716D01*
D02*
G37*
G36*
X370349Y231757D02*
Y230008D01*
D01*
Y231757D01*
D02*
G37*
G36*
X350383Y233950D02*
X346039D01*
D01*
X348211D01*
X347975Y233943D01*
X347760Y233915D01*
X347565Y233874D01*
X347475Y233853D01*
X347392Y233832D01*
X347323Y233811D01*
X347253Y233790D01*
X347198Y233770D01*
X347156Y233749D01*
X347114Y233735D01*
X347087Y233721D01*
X347073Y233714D01*
X347066D01*
X346892Y233617D01*
X346740Y233506D01*
X346608Y233395D01*
X346497Y233284D01*
X346413Y233187D01*
X346351Y233110D01*
X346330Y233076D01*
X346316Y233055D01*
X346302Y233041D01*
Y233034D01*
X346212Y232868D01*
X346150Y232687D01*
X346101Y232514D01*
X346073Y232354D01*
X346059Y232278D01*
X346053Y232215D01*
X346045Y232153D01*
Y232097D01*
X346039Y232055D01*
Y230008D01*
D01*
Y232000D01*
X346045Y231826D01*
X346066Y231667D01*
X346094Y231514D01*
X346129Y231375D01*
X346170Y231243D01*
X346219Y231126D01*
X346268Y231014D01*
X346323Y230917D01*
X346379Y230827D01*
X346427Y230751D01*
X346476Y230688D01*
X346517Y230633D01*
X346552Y230591D01*
X346587Y230563D01*
X346601Y230543D01*
X346608Y230536D01*
X346719Y230445D01*
X346837Y230362D01*
X346969Y230293D01*
X347094Y230230D01*
X347225Y230182D01*
X347364Y230140D01*
X347489Y230105D01*
X347614Y230078D01*
X347732Y230050D01*
X347843Y230036D01*
X347940Y230022D01*
X348030Y230015D01*
X348100D01*
X348155Y230008D01*
X348197D01*
X348384Y230015D01*
X348565Y230029D01*
X348731Y230057D01*
X348884Y230092D01*
X349030Y230133D01*
X349162Y230182D01*
X349280Y230230D01*
X349391Y230279D01*
X349488Y230328D01*
X349571Y230376D01*
X349640Y230425D01*
X349703Y230466D01*
X349745Y230501D01*
X349779Y230529D01*
X349800Y230543D01*
X349807Y230550D01*
X349911Y230654D01*
X349994Y230772D01*
X350078Y230890D01*
X350140Y231014D01*
X350196Y231133D01*
X350244Y231257D01*
X350279Y231382D01*
X350314Y231500D01*
X350335Y231611D01*
X350355Y231715D01*
X350362Y231806D01*
X350376Y231882D01*
Y231951D01*
X350383Y232000D01*
Y232042D01*
X350369Y232236D01*
X350341Y232423D01*
X350300Y232590D01*
X350251Y232736D01*
X350223Y232798D01*
X350203Y232854D01*
X350182Y232902D01*
X350161Y232944D01*
X350147Y232979D01*
X350133Y232999D01*
X350119Y233013D01*
Y233020D01*
X350008Y233173D01*
X349890Y233312D01*
X349765Y233430D01*
X349640Y233527D01*
X349536Y233603D01*
X349488Y233631D01*
X349446Y233659D01*
X349411Y233672D01*
X349384Y233686D01*
X349370Y233700D01*
X349363D01*
X349176Y233784D01*
X348981Y233846D01*
X348787Y233888D01*
X348606Y233922D01*
X348523Y233929D01*
X348447Y233936D01*
X348377Y233943D01*
X348322D01*
X348273Y233950D01*
X350383D01*
D02*
G37*
G36*
X334435D02*
X330604D01*
D01*
X332589D01*
X332381Y233936D01*
X332186Y233909D01*
X332013Y233867D01*
X331853Y233818D01*
X331791Y233790D01*
X331728Y233770D01*
X331673Y233749D01*
X331631Y233728D01*
X331596Y233714D01*
X331569Y233700D01*
X331555Y233686D01*
X331548D01*
X331381Y233582D01*
X331242Y233464D01*
X331118Y233339D01*
X331020Y233221D01*
X330944Y233117D01*
X330909Y233076D01*
X330889Y233034D01*
X330868Y232999D01*
X330854Y232979D01*
X330840Y232965D01*
Y232958D01*
X330764Y232777D01*
X330701Y232597D01*
X330660Y232416D01*
X330632Y232250D01*
X330625Y232173D01*
X330618Y232104D01*
X330611Y232042D01*
Y231993D01*
X330604Y231951D01*
Y231889D01*
X330611Y231729D01*
X330625Y231577D01*
X330653Y231438D01*
X330687Y231299D01*
X330729Y231181D01*
X330778Y231063D01*
X330826Y230959D01*
X330875Y230869D01*
X330923Y230785D01*
X330972Y230716D01*
X331020Y230654D01*
X331062Y230598D01*
X331097Y230563D01*
X331124Y230529D01*
X331138Y230515D01*
X331145Y230508D01*
X331256Y230418D01*
X331367Y230341D01*
X331492Y230279D01*
X331617Y230216D01*
X331742Y230168D01*
X331874Y230133D01*
X331999Y230098D01*
X332117Y230071D01*
X332235Y230050D01*
X332339Y230036D01*
X332436Y230022D01*
X332520Y230015D01*
X332582D01*
X332637Y230008D01*
X332679D01*
X332971Y230015D01*
X333109Y230029D01*
X333234Y230043D01*
X333359Y230057D01*
X333470Y230078D01*
X333581Y230098D01*
X333671Y230119D01*
X333762Y230140D01*
X333838Y230161D01*
X333900Y230182D01*
X333956Y230196D01*
X334005Y230209D01*
X334032Y230223D01*
X334053Y230230D01*
X334060D01*
Y231230D01*
X333873Y231160D01*
X333692Y231105D01*
X333519Y231070D01*
X333359Y231042D01*
X333290Y231035D01*
X333220Y231028D01*
X333165Y231021D01*
X333116D01*
X333082Y231014D01*
X333026D01*
X332887Y231021D01*
X332762Y231035D01*
X332651Y231056D01*
X332561Y231084D01*
X332485Y231105D01*
X332429Y231126D01*
X332401Y231139D01*
X332388Y231146D01*
X332311Y231202D01*
X332249Y231264D01*
X332200Y231334D01*
X332166Y231396D01*
X332138Y231452D01*
X332124Y231493D01*
X332117Y231521D01*
Y231535D01*
X334435D01*
Y230008D01*
D01*
Y233950D01*
D02*
G37*
G36*
X365505Y233860D02*
X361043D01*
Y228336D01*
D01*
Y233860D01*
X362611Y230112D01*
X362486Y229821D01*
X362459Y229758D01*
X362417Y229710D01*
X362375Y229661D01*
X362334Y229620D01*
X362236Y229557D01*
X362139Y229516D01*
X362049Y229495D01*
X361973Y229481D01*
X361945Y229474D01*
X361903D01*
X361785Y229481D01*
X361723Y229495D01*
X361674Y229509D01*
X361626Y229516D01*
X361591Y229529D01*
X361570Y229536D01*
X361563D01*
X361501Y229557D01*
X361445Y229578D01*
X361397Y229599D01*
X361362Y229620D01*
X361334Y229633D01*
X361307Y229647D01*
X361300Y229661D01*
X361293D01*
Y228488D01*
X361445Y228440D01*
X361522Y228426D01*
X361591Y228405D01*
X361647Y228391D01*
X361695Y228384D01*
X361723Y228377D01*
X361737D01*
X361834Y228363D01*
X361917Y228357D01*
X362001Y228343D01*
X362070D01*
X362133Y228336D01*
X362216D01*
X362341Y228343D01*
X362459Y228350D01*
X362674Y228398D01*
X362771Y228426D01*
X362861Y228461D01*
X362951Y228495D01*
X363028Y228530D01*
X363097Y228565D01*
X363160Y228599D01*
X363215Y228634D01*
X363257Y228662D01*
X363291Y228690D01*
X363319Y228710D01*
X363333Y228717D01*
X363340Y228724D01*
X363423Y228801D01*
X363507Y228891D01*
X363583Y228988D01*
X363659Y229085D01*
X363791Y229300D01*
X363902Y229509D01*
X363951Y229606D01*
X363992Y229703D01*
X364034Y229786D01*
X364062Y229855D01*
X364083Y229918D01*
X364103Y229960D01*
X364117Y229994D01*
Y230001D01*
X365505Y233860D01*
D01*
D02*
G37*
G36*
X389788Y233950D02*
X385548D01*
D01*
X387248D01*
X387075Y233936D01*
X386908Y233909D01*
X386762Y233867D01*
X386631Y233825D01*
X386526Y233777D01*
X386478Y233756D01*
X386443Y233735D01*
X386416Y233714D01*
X386395Y233707D01*
X386381Y233693D01*
X386374D01*
X386235Y233589D01*
X386117Y233478D01*
X386013Y233360D01*
X385923Y233242D01*
X385853Y233138D01*
X385805Y233055D01*
X385784Y233020D01*
X385777Y232999D01*
X385763Y232985D01*
Y232979D01*
X385694Y232798D01*
X385638Y232618D01*
X385603Y232437D01*
X385576Y232264D01*
X385569Y232187D01*
X385562Y232118D01*
X385555Y232055D01*
Y232007D01*
X385548Y231965D01*
Y231903D01*
X385555Y231743D01*
X385569Y231591D01*
X385590Y231445D01*
X385611Y231313D01*
X385645Y231188D01*
X385680Y231070D01*
X385715Y230966D01*
X385756Y230876D01*
X385798Y230785D01*
X385833Y230716D01*
X385867Y230654D01*
X385902Y230598D01*
X385923Y230563D01*
X385944Y230529D01*
X385958Y230515D01*
X385964Y230508D01*
X386048Y230418D01*
X386138Y230341D01*
X386228Y230279D01*
X386325Y230216D01*
X386422Y230168D01*
X386513Y230133D01*
X386610Y230099D01*
X386700Y230071D01*
X386783Y230050D01*
X386867Y230036D01*
X386936Y230022D01*
X386999Y230015D01*
X387047D01*
X387082Y230008D01*
X387116D01*
X387241Y230015D01*
X387359Y230029D01*
X387463Y230057D01*
X387561Y230085D01*
X387637Y230112D01*
X387699Y230140D01*
X387734Y230154D01*
X387748Y230161D01*
X387852Y230223D01*
X387949Y230293D01*
X388026Y230355D01*
X388095Y230425D01*
X388144Y230480D01*
X388185Y230529D01*
X388206Y230557D01*
X388213Y230570D01*
X388234D01*
Y230334D01*
Y230258D01*
X388220Y230189D01*
X388185Y230057D01*
X388130Y229946D01*
X388074Y229849D01*
X388019Y229779D01*
X387963Y229724D01*
X387928Y229689D01*
X387922Y229675D01*
X387915D01*
X387790Y229592D01*
X387651Y229529D01*
X387512Y229481D01*
X387373Y229453D01*
X387255Y229432D01*
X387207Y229425D01*
X387158D01*
X387123Y229418D01*
X387075D01*
X386978Y229425D01*
X386880Y229432D01*
X386783Y229446D01*
X386700Y229467D01*
X386617Y229481D01*
X386561Y229495D01*
X386520Y229502D01*
X386513Y229509D01*
X386506D01*
X386395Y229543D01*
X386291Y229585D01*
X386200Y229626D01*
X386117Y229661D01*
X386055Y229696D01*
X386006Y229724D01*
X385978Y229738D01*
X385964Y229745D01*
Y228516D01*
X386027Y228488D01*
X386096Y228467D01*
X386249Y228426D01*
X386318Y228412D01*
X386374Y228398D01*
X386416Y228391D01*
X386429D01*
X386679Y228357D01*
X386790Y228350D01*
X386901Y228343D01*
X386985Y228336D01*
X387116D01*
X387352Y228343D01*
X387575Y228363D01*
X387783Y228391D01*
X387977Y228433D01*
X388158Y228474D01*
X388317Y228530D01*
X388463Y228586D01*
X388602Y228641D01*
X388713Y228697D01*
X388817Y228752D01*
X388907Y228808D01*
X388976Y228849D01*
X389032Y228891D01*
X389067Y228919D01*
X389094Y228940D01*
X389101Y228946D01*
X389219Y229064D01*
X389330Y229189D01*
X389421Y229328D01*
X389497Y229467D01*
X389566Y229606D01*
X389622Y229745D01*
X389663Y229883D01*
X389705Y230015D01*
X389733Y230140D01*
X389754Y230251D01*
X389768Y230355D01*
X389774Y230445D01*
X389781Y230522D01*
X389788Y230577D01*
Y233867D01*
Y233860D01*
X388234D01*
Y233471D01*
X388213D01*
X388151Y233555D01*
X388081Y233631D01*
X388005Y233693D01*
X387928Y233749D01*
X387845Y233798D01*
X387769Y233832D01*
X387685Y233867D01*
X387609Y233888D01*
X387470Y233922D01*
X387408Y233936D01*
X387352Y233943D01*
X387311Y233950D01*
X389788D01*
D01*
D02*
G37*
G36*
X385548Y231341D02*
Y228336D01*
D01*
Y231341D01*
D02*
G37*
%LPD*%
G36*
X353152Y232798D02*
X353242Y232770D01*
X353312Y232743D01*
X353374Y232701D01*
X353423Y232666D01*
X353450Y232632D01*
X353471Y232604D01*
X353478Y232597D01*
X353527Y232514D01*
X353561Y232423D01*
X353582Y232333D01*
X353603Y232243D01*
X353610Y232167D01*
X353617Y232097D01*
Y232055D01*
Y232049D01*
Y232042D01*
X353610Y231889D01*
X353589Y231757D01*
X353569Y231646D01*
X353541Y231556D01*
X353506Y231480D01*
X353485Y231424D01*
X353464Y231396D01*
X353457Y231382D01*
X353395Y231306D01*
X353326Y231251D01*
X353249Y231209D01*
X353180Y231181D01*
X353117Y231167D01*
X353069Y231160D01*
X353034Y231153D01*
X353020D01*
X352930Y231160D01*
X352847Y231188D01*
X352777Y231223D01*
X352722Y231257D01*
X352680Y231299D01*
X352652Y231327D01*
X352632Y231355D01*
X352625Y231362D01*
X352583Y231445D01*
X352548Y231542D01*
X352527Y231639D01*
X352507Y231729D01*
X352500Y231806D01*
X352493Y231875D01*
Y231917D01*
Y231924D01*
Y231931D01*
Y232007D01*
X352500Y232139D01*
X352514Y232257D01*
X352541Y232354D01*
X352569Y232437D01*
X352597Y232500D01*
X352625Y232548D01*
X352639Y232583D01*
X352645Y232590D01*
X352708Y232659D01*
X352777Y232715D01*
X352847Y232750D01*
X352909Y232777D01*
X352965Y232791D01*
X353013Y232805D01*
X353055D01*
X353152Y232798D01*
D02*
G37*
G36*
X355199Y228370D02*
X352527D01*
Y230487D01*
X352541D01*
X352611Y230404D01*
X352680Y230328D01*
X352764Y230265D01*
X352840Y230209D01*
X352923Y230161D01*
X353006Y230126D01*
X353090Y230092D01*
X353166Y230071D01*
X353312Y230036D01*
X353381Y230022D01*
X353430Y230015D01*
X353478Y230008D01*
X353541D01*
X353714Y230022D01*
X353874Y230050D01*
X354020Y230092D01*
X354145Y230140D01*
X354249Y230182D01*
X354290Y230203D01*
X354325Y230223D01*
X354360Y230244D01*
X354380Y230251D01*
X354387Y230265D01*
X354394D01*
X354526Y230369D01*
X354651Y230494D01*
X354748Y230612D01*
X354832Y230730D01*
X354901Y230841D01*
X354922Y230883D01*
X354943Y230924D01*
X354963Y230959D01*
X354977Y230980D01*
X354984Y230994D01*
Y231001D01*
X355054Y231181D01*
X355109Y231368D01*
X355144Y231556D01*
X355172Y231722D01*
X355179Y231799D01*
X355186Y231868D01*
X355192Y231931D01*
X355199Y231986D01*
Y228370D01*
D02*
G37*
G36*
X384854Y232618D02*
X384930Y232611D01*
X384965Y232604D01*
X384993Y232597D01*
X385014Y232590D01*
X385021D01*
X385125Y232562D01*
X385166Y232555D01*
X385201Y232541D01*
X385229Y232534D01*
X385250Y232527D01*
X385257Y232521D01*
X385263D01*
Y230099D01*
X384000D01*
Y231722D01*
X384007Y231882D01*
X384035Y232021D01*
X384070Y232139D01*
X384118Y232243D01*
X384181Y232333D01*
X384243Y232402D01*
X384313Y232465D01*
X384389Y232514D01*
X384458Y232548D01*
X384528Y232576D01*
X384590Y232597D01*
X384653Y232611D01*
X384701Y232618D01*
X384736Y232625D01*
X384771D01*
X384854Y232618D01*
D02*
G37*
G36*
X338037Y231348D02*
X338023Y231493D01*
X337995Y231625D01*
X337960Y231743D01*
X337912Y231840D01*
X337863Y231917D01*
X337829Y231972D01*
X337801Y232007D01*
X337787Y232021D01*
X337738Y232069D01*
X337683Y232118D01*
X337551Y232201D01*
X337419Y232278D01*
X337280Y232340D01*
X337155Y232389D01*
X337100Y232410D01*
X337058Y232430D01*
X337017Y232444D01*
X336989Y232451D01*
X336968Y232458D01*
X336961D01*
X336857Y232493D01*
X336774Y232521D01*
X336704Y232548D01*
X336649Y232569D01*
X336614Y232583D01*
X336586Y232597D01*
X336572Y232611D01*
X336565D01*
X336531Y232639D01*
X336510Y232666D01*
X336482Y232722D01*
X336468Y232770D01*
Y232777D01*
Y232784D01*
X336475Y232819D01*
X336482Y232847D01*
X336517Y232895D01*
X336545Y232923D01*
X336552Y232930D01*
X336559D01*
X336635Y232965D01*
X336711Y232979D01*
X336746Y232985D01*
X336878D01*
X336954Y232972D01*
X337031Y232965D01*
X337100Y232951D01*
X337162Y232937D01*
X337218Y232930D01*
X337246Y232916D01*
X337260D01*
X337364Y232888D01*
X337454Y232868D01*
X337544Y232840D01*
X337620Y232812D01*
X337683Y232791D01*
X337731Y232770D01*
X337759Y232763D01*
X337773Y232756D01*
Y233804D01*
X337572Y233853D01*
X337378Y233888D01*
X337197Y233915D01*
X337044Y233929D01*
X336975Y233936D01*
X336912Y233943D01*
X336857D01*
X336808Y233950D01*
X338037D01*
Y231348D01*
D02*
G37*
G36*
X379788Y232798D02*
X379878Y232770D01*
X379954Y232736D01*
X380024Y232687D01*
X380079Y232625D01*
X380128Y232562D01*
X380170Y232493D01*
X380197Y232423D01*
X380246Y232278D01*
X380253Y232215D01*
X380267Y232153D01*
Y232104D01*
X380274Y232069D01*
Y232042D01*
Y232035D01*
X380267Y231882D01*
X380246Y231743D01*
X380218Y231625D01*
X380183Y231528D01*
X380142Y231438D01*
X380086Y231368D01*
X380038Y231313D01*
X379982Y231264D01*
X379927Y231230D01*
X379878Y231202D01*
X379829Y231181D01*
X379781Y231167D01*
X379746Y231160D01*
X379718Y231153D01*
X379691D01*
X379587Y231160D01*
X379496Y231188D01*
X379413Y231230D01*
X379344Y231285D01*
X379288Y231348D01*
X379240Y231424D01*
X379198Y231500D01*
X379170Y231577D01*
X379142Y231653D01*
X379129Y231729D01*
X379115Y231806D01*
X379101Y231868D01*
Y231924D01*
X379094Y231965D01*
Y231993D01*
Y232000D01*
X379101Y232139D01*
X379122Y232264D01*
X379149Y232375D01*
X379184Y232465D01*
X379233Y232541D01*
X379281Y232611D01*
X379337Y232659D01*
X379392Y232708D01*
X379441Y232736D01*
X379496Y232763D01*
X379545Y232777D01*
X379593Y232791D01*
X379628Y232798D01*
X379656Y232805D01*
X379684D01*
X379788Y232798D01*
D02*
G37*
G36*
X372626D02*
X372716Y232770D01*
X372792Y232736D01*
X372862Y232687D01*
X372917Y232625D01*
X372966Y232562D01*
X373007Y232493D01*
X373035Y232423D01*
X373084Y232278D01*
X373091Y232215D01*
X373105Y232153D01*
Y232104D01*
X373112Y232069D01*
Y232042D01*
Y232035D01*
X373105Y231882D01*
X373084Y231743D01*
X373056Y231625D01*
X373021Y231528D01*
X372980Y231438D01*
X372924Y231368D01*
X372876Y231313D01*
X372820Y231264D01*
X372764Y231230D01*
X372716Y231202D01*
X372667Y231181D01*
X372619Y231167D01*
X372584Y231160D01*
X372556Y231153D01*
X372529D01*
X372425Y231160D01*
X372334Y231188D01*
X372251Y231230D01*
X372182Y231285D01*
X372126Y231348D01*
X372077Y231424D01*
X372036Y231500D01*
X372008Y231577D01*
X371980Y231653D01*
X371966Y231729D01*
X371953Y231806D01*
X371939Y231868D01*
Y231924D01*
X371932Y231965D01*
Y231993D01*
Y232000D01*
X371939Y232139D01*
X371959Y232264D01*
X371987Y232375D01*
X372022Y232465D01*
X372071Y232541D01*
X372119Y232611D01*
X372175Y232659D01*
X372230Y232708D01*
X372279Y232736D01*
X372334Y232763D01*
X372383Y232777D01*
X372431Y232791D01*
X372466Y232798D01*
X372494Y232805D01*
X372522D01*
X372626Y232798D01*
D02*
G37*
G36*
X358066Y234110D02*
X358197Y234089D01*
X358309Y234061D01*
X358413Y234033D01*
X358496Y233999D01*
X358558Y233971D01*
X358593Y233950D01*
X358607Y233943D01*
X358711Y233874D01*
X358801Y233798D01*
X358878Y233721D01*
X358940Y233645D01*
X358989Y233575D01*
X359023Y233513D01*
X359044Y233478D01*
X359051Y233471D01*
Y233464D01*
X359107Y233346D01*
X359141Y233228D01*
X359169Y233110D01*
X359190Y233006D01*
X359204Y232916D01*
X359211Y232840D01*
Y232812D01*
Y232791D01*
Y232784D01*
Y232777D01*
X359204Y232659D01*
X359197Y232541D01*
X359183Y232437D01*
X359155Y232333D01*
X359134Y232243D01*
X359107Y232160D01*
X359072Y232076D01*
X359044Y232007D01*
X359010Y231944D01*
X358982Y231889D01*
X358947Y231840D01*
X358926Y231799D01*
X358905Y231771D01*
X358885Y231750D01*
X358878Y231736D01*
X358871Y231729D01*
X358801Y231660D01*
X358732Y231604D01*
X358662Y231549D01*
X358586Y231507D01*
X358433Y231438D01*
X358288Y231389D01*
X358163Y231362D01*
X358107Y231355D01*
X358059Y231348D01*
X358017Y231341D01*
X357517D01*
Y234117D01*
X357920D01*
X358066Y234110D01*
D02*
G37*
G36*
X327342Y234110D02*
X327474Y234089D01*
X327585Y234061D01*
X327689Y234033D01*
X327772Y233999D01*
X327835Y233971D01*
X327870Y233950D01*
X327884Y233943D01*
X327988Y233874D01*
X328078Y233798D01*
X328154Y233721D01*
X328217Y233645D01*
X328265Y233575D01*
X328300Y233513D01*
X328321Y233478D01*
X328328Y233471D01*
Y233464D01*
X328383Y233346D01*
X328418Y233228D01*
X328446Y233110D01*
X328467Y233006D01*
X328480Y232916D01*
X328487Y232840D01*
Y232812D01*
Y232791D01*
Y232784D01*
Y232777D01*
X328480Y232659D01*
X328473Y232541D01*
X328460Y232437D01*
X328432Y232333D01*
X328411Y232243D01*
X328383Y232160D01*
X328348Y232076D01*
X328321Y232007D01*
X328286Y231944D01*
X328258Y231889D01*
X328224Y231840D01*
X328203Y231799D01*
X328182Y231771D01*
X328161Y231750D01*
X328154Y231736D01*
X328147Y231729D01*
X328078Y231660D01*
X328009Y231604D01*
X327939Y231549D01*
X327863Y231507D01*
X327710Y231438D01*
X327564Y231389D01*
X327439Y231362D01*
X327384Y231355D01*
X327335Y231348D01*
X327294Y231341D01*
X326794D01*
Y234117D01*
X327197D01*
X327342Y234110D01*
D02*
G37*
G36*
X375964Y231473D02*
X375839Y231452D01*
X375728Y231417D01*
X375638Y231382D01*
X375568Y231341D01*
X375513Y231313D01*
X375485Y231285D01*
X375471Y231278D01*
X375395Y231195D01*
X375332Y231112D01*
X375291Y231021D01*
X375263Y230938D01*
X375249Y230862D01*
X375242Y230806D01*
X375235Y230765D01*
Y231480D01*
X376103D01*
X375964Y231473D01*
D02*
G37*
G36*
X348315Y232798D02*
X348405Y232770D01*
X348481Y232736D01*
X348551Y232687D01*
X348606Y232625D01*
X348655Y232562D01*
X348697Y232493D01*
X348724Y232423D01*
X348773Y232278D01*
X348780Y232215D01*
X348794Y232153D01*
Y232104D01*
X348801Y232069D01*
Y232042D01*
Y232035D01*
X348794Y231882D01*
X348773Y231743D01*
X348745Y231625D01*
X348710Y231528D01*
X348669Y231438D01*
X348613Y231368D01*
X348565Y231313D01*
X348509Y231264D01*
X348454Y231230D01*
X348405Y231202D01*
X348357Y231181D01*
X348308Y231167D01*
X348273Y231160D01*
X348246Y231153D01*
X348218D01*
X348114Y231160D01*
X348023Y231188D01*
X347940Y231230D01*
X347871Y231285D01*
X347815Y231348D01*
X347767Y231424D01*
X347725Y231500D01*
X347697Y231577D01*
X347670Y231653D01*
X347656Y231729D01*
X347642Y231806D01*
X347628Y231868D01*
Y231924D01*
X347621Y231965D01*
Y231993D01*
Y232000D01*
X347628Y232139D01*
X347649Y232264D01*
X347676Y232375D01*
X347711Y232465D01*
X347760Y232541D01*
X347808Y232611D01*
X347864Y232659D01*
X347919Y232708D01*
X347968Y232736D01*
X348023Y232763D01*
X348072Y232777D01*
X348121Y232791D01*
X348155Y232798D01*
X348183Y232805D01*
X348211D01*
X348315Y232798D01*
D02*
G37*
G36*
X332672Y232999D02*
X332742Y232979D01*
X332804Y232944D01*
X332859Y232902D01*
X332901Y232854D01*
X332943Y232798D01*
X332998Y232680D01*
X333026Y232562D01*
X333040Y232507D01*
X333047Y232458D01*
X333054Y232416D01*
Y232382D01*
Y232361D01*
Y232354D01*
X332103D01*
X332117Y232458D01*
X332138Y232548D01*
X332166Y232631D01*
X332193Y232701D01*
X332221Y232756D01*
X332242Y232791D01*
X332256Y232819D01*
X332263Y232826D01*
X332318Y232888D01*
X332367Y232930D01*
X332422Y232965D01*
X332478Y232985D01*
X332520Y232999D01*
X332554Y233006D01*
X332589D01*
X332672Y232999D01*
D02*
G37*
G36*
X334435Y232118D02*
X334428Y232319D01*
X334400Y232500D01*
X334366Y232659D01*
X334331Y232805D01*
X334310Y232861D01*
X334289Y232916D01*
X334268Y232965D01*
X334255Y233006D01*
X334241Y233034D01*
X334227Y233055D01*
X334220Y233069D01*
Y233076D01*
X334130Y233221D01*
X334032Y233353D01*
X333928Y233464D01*
X333824Y233555D01*
X333734Y233624D01*
X333658Y233680D01*
X333630Y233700D01*
X333609Y233707D01*
X333595Y233721D01*
X333588D01*
X333429Y233798D01*
X333255Y233853D01*
X333088Y233895D01*
X332936Y233922D01*
X332859Y233929D01*
X332797Y233936D01*
X332735Y233943D01*
X332686Y233950D01*
X334435D01*
Y232118D01*
D02*
G37*
G36*
X363937Y233659D02*
X363888Y233471D01*
X363847Y233291D01*
X363798Y233124D01*
X363763Y232965D01*
X363729Y232819D01*
X363694Y232687D01*
X363659Y232562D01*
X363632Y232444D01*
X363604Y232340D01*
X363583Y232236D01*
X363562Y232146D01*
X363541Y232069D01*
X363520Y231993D01*
X363507Y231924D01*
X363493Y231868D01*
X363465Y231764D01*
X363444Y231688D01*
X363430Y231625D01*
X363423Y231584D01*
X363416Y231563D01*
X363409Y231542D01*
Y231535D01*
X363396Y231466D01*
X363389Y231410D01*
X363382Y231375D01*
Y231368D01*
Y231362D01*
X363368D01*
X363361Y231396D01*
Y231438D01*
X363340Y231542D01*
X363319Y231653D01*
X363291Y231764D01*
X363264Y231875D01*
X363250Y231917D01*
X363243Y231958D01*
X363236Y231993D01*
X363229Y232021D01*
X363222Y232035D01*
Y232042D01*
X362771Y233860D01*
X363985D01*
X363937Y233659D01*
D02*
G37*
G36*
X387797Y232798D02*
X387880Y232777D01*
X387942Y232743D01*
X387998Y232708D01*
X388046Y232666D01*
X388074Y232639D01*
X388095Y232611D01*
X388102Y232604D01*
X388151Y232527D01*
X388192Y232444D01*
X388220Y232354D01*
X388234Y232271D01*
X388248Y232194D01*
X388255Y232139D01*
Y232097D01*
Y232090D01*
Y232083D01*
Y231951D01*
X388248Y231820D01*
X388234Y231709D01*
X388206Y231604D01*
X388178Y231521D01*
X388151Y231459D01*
X388123Y231410D01*
X388109Y231375D01*
X388102Y231368D01*
X388039Y231299D01*
X387970Y231244D01*
X387901Y231209D01*
X387831Y231181D01*
X387776Y231167D01*
X387720Y231160D01*
X387692Y231153D01*
X387679D01*
X387581Y231160D01*
X387491Y231188D01*
X387422Y231223D01*
X387366Y231257D01*
X387318Y231299D01*
X387290Y231327D01*
X387269Y231355D01*
X387262Y231362D01*
X387221Y231445D01*
X387186Y231542D01*
X387165Y231639D01*
X387144Y231729D01*
X387137Y231813D01*
X387130Y231875D01*
Y231903D01*
Y231924D01*
Y231931D01*
Y231938D01*
X387137Y232076D01*
X387151Y232201D01*
X387179Y232312D01*
X387207Y232402D01*
X387234Y232472D01*
X387262Y232527D01*
X387276Y232555D01*
X387283Y232569D01*
X387346Y232645D01*
X387415Y232708D01*
X387491Y232750D01*
X387561Y232777D01*
X387616Y232791D01*
X387672Y232805D01*
X387713D01*
X387797Y232798D01*
D02*
G37*
D10*
X206051Y235520D02*
G03*
X206051Y235520I-492J0D01*
G01*
X241378Y297126D02*
G03*
X241378Y297126I-492J0D01*
G01*
X328339Y181728D02*
G03*
X328339Y181728I-492J0D01*
G01*
X196339Y182728D02*
G03*
X196339Y182728I-492J0D01*
G01*
X115976Y215992D02*
G03*
X115976Y215992I-492J0D01*
G01*
X113976Y272992D02*
G03*
X113976Y272992I-492J0D01*
G01*
D11*
X215008Y232173D02*
G03*
X215008Y232173I-1181J0D01*
G01*
X250335Y291614D02*
G03*
X250335Y291614I-1181J0D01*
G01*
X324087Y173362D02*
G03*
X324087Y173362I-1181J0D01*
G01*
X192087Y174362D02*
G03*
X192087Y174362I-1181J0D01*
G01*
D12*
X300854Y174579D02*
G03*
X300854Y174579I-197J0D01*
G01*
X163854Y178579D02*
G03*
X163854Y178579I-197J0D01*
G01*
D13*
X228200Y167000D02*
G03*
X228200Y167000I-5700J0D01*
G01*
X213200D02*
G03*
X213200Y167000I-5700J0D01*
G01*
X368700Y157500D02*
G03*
X368700Y157500I-5700J0D01*
G01*
Y141500D02*
G03*
X368700Y141500I-5700J0D01*
G01*
X143200Y157500D02*
G03*
X143200Y157500I-5700J0D01*
G01*
Y141500D02*
G03*
X143200Y141500I-5700J0D01*
G01*
X297700Y232500D02*
G03*
X297700Y232500I-5700J0D01*
G01*
X281700D02*
G03*
X281700Y232500I-5700J0D01*
G01*
X119200Y292000D02*
G03*
X119200Y292000I-5700J0D01*
G01*
X134200D02*
G03*
X134200Y292000I-5700J0D01*
G01*
X287200Y179000D02*
G03*
X287200Y179000I-5700J0D01*
G01*
X272200D02*
G03*
X272200Y179000I-5700J0D01*
G01*
X373700Y290500D02*
G03*
X373700Y290500I-5700J0D01*
G01*
X391200D02*
G03*
X391200Y290500I-5700J0D01*
G01*
X158700Y195000D02*
G03*
X158700Y195000I-5700J0D01*
G01*
Y254500D02*
G03*
X158700Y254500I-5700J0D01*
G01*
X309937Y311752D02*
Y323563D01*
Y331437D02*
Y349547D01*
Y295216D02*
Y303484D01*
X279622Y349547D02*
X309937D01*
X279622Y295216D02*
X309937D01*
X279622D02*
Y349547D01*
X146472Y100709D02*
X225213D01*
X146472Y138110D02*
X225213D01*
X146472Y100709D02*
Y138110D01*
X225213Y100709D02*
Y138110D01*
X299500Y207000D02*
Y208500D01*
Y205500D02*
Y207000D01*
X333000D02*
Y208500D01*
Y205500D02*
Y207000D01*
X366500D02*
Y208500D01*
Y205500D02*
Y207000D01*
X349937Y311752D02*
Y323563D01*
Y331437D02*
Y349547D01*
Y295216D02*
Y303484D01*
X319622Y349547D02*
X349937D01*
X319622Y295216D02*
X349937D01*
X319622D02*
Y349547D01*
X343000Y275500D02*
X351815D01*
Y291000D01*
X279500Y275500D02*
X294000D01*
X279500D02*
Y291000D01*
X222315Y275500D02*
Y291000D01*
X213500Y275500D02*
X222315D01*
X150000D02*
X164500D01*
X150000D02*
Y291000D01*
X238110Y135488D02*
X241063D01*
X238110Y110882D02*
Y135488D01*
X258780Y110882D02*
X261732D01*
Y135488D01*
X258780D02*
X261732D01*
X238110Y110882D02*
X241063D01*
X275185Y138000D02*
Y148000D01*
X353898Y138000D02*
Y148000D01*
X294863Y138000D02*
Y148000D01*
X314541Y138000D02*
Y148000D01*
X334220Y138000D02*
Y148000D01*
X303685Y152500D02*
X353898Y152500D01*
Y148000D02*
Y152500D01*
X275185Y148000D02*
Y152500D01*
X279685D01*
X146500D02*
X151000D01*
X146500Y148000D02*
Y152500D01*
X225213Y148000D02*
Y152500D01*
X175000Y152500D02*
X225213Y152500D01*
X205535Y138000D02*
Y148000D01*
X185856Y138000D02*
Y148000D01*
X166178Y138000D02*
Y148000D01*
X225213Y138000D02*
Y148000D01*
X146500Y138000D02*
Y148000D01*
X275157Y100709D02*
X353898D01*
X275157Y138110D02*
X353898D01*
X275157Y100709D02*
Y138110D01*
X353898Y100709D02*
Y138110D01*
X222437Y311752D02*
Y323563D01*
Y331437D02*
Y349547D01*
Y295216D02*
Y303484D01*
X192122Y349547D02*
X222437D01*
X192122Y295216D02*
X222437D01*
X192122D02*
Y349547D01*
X180437Y311752D02*
Y323563D01*
Y331437D02*
Y349547D01*
Y295216D02*
Y303484D01*
X150122Y349547D02*
X180437D01*
X150122Y295216D02*
X180437D01*
X150122D02*
Y349547D01*
X382591Y175138D02*
X394402D01*
X382591Y195217D02*
X394402D01*
X344402D02*
X356213D01*
X344402Y175138D02*
X356213D01*
X344402D02*
Y195217D01*
X394402Y175138D02*
Y195217D01*
X266000Y207000D02*
Y208500D01*
Y205500D02*
Y207000D01*
X213060Y145166D02*
X212477Y145749D01*
X211310D01*
X210727Y145166D01*
Y142834D01*
X211310Y142251D01*
X212477D01*
X213060Y142834D01*
Y144000D01*
X211894D01*
X214226Y142251D02*
Y145749D01*
X216559Y142251D01*
Y145749D01*
X217725D02*
Y142251D01*
X219474D01*
X220058Y142834D01*
Y145166D01*
X219474Y145749D01*
X217725D01*
X280494Y142251D02*
X281660D01*
X281077D01*
Y145749D01*
X280494Y145166D01*
X285742Y142251D02*
X283410D01*
X285742Y144583D01*
Y145166D01*
X285159Y145749D01*
X283993D01*
X283410Y145166D01*
X286908Y145749D02*
Y143417D01*
X288075Y142251D01*
X289241Y143417D01*
Y145749D01*
X351000Y264500D02*
Y260500D01*
Y264500D02*
X352714D01*
X353285Y264309D01*
X353476Y264119D01*
X353666Y263738D01*
Y263357D01*
X353476Y262976D01*
X353285Y262786D01*
X352714Y262595D01*
X351000D01*
X352333D02*
X353666Y260500D01*
X357037Y264500D02*
X354561D01*
Y260500D01*
X357037D01*
X354561Y262595D02*
X356085D01*
X357703Y264500D02*
X359227Y260500D01*
X360750Y264500D02*
X359227Y260500D01*
X361455Y263547D02*
Y263738D01*
X361645Y264119D01*
X361836Y264309D01*
X362217Y264500D01*
X362978D01*
X363359Y264309D01*
X363550Y264119D01*
X363740Y263738D01*
Y263357D01*
X363550Y262976D01*
X363169Y262405D01*
X361264Y260500D01*
X363931D01*
X365968Y264500D02*
X365397Y264309D01*
X365016Y263738D01*
X364826Y262786D01*
Y262214D01*
X365016Y261262D01*
X365397Y260691D01*
X365968Y260500D01*
X366349D01*
X366920Y260691D01*
X367301Y261262D01*
X367492Y262214D01*
Y262786D01*
X367301Y263738D01*
X366920Y264309D01*
X366349Y264500D01*
X365968D01*
X368577Y263547D02*
Y263738D01*
X368768Y264119D01*
X368958Y264309D01*
X369339Y264500D01*
X370101D01*
X370481Y264309D01*
X370672Y264119D01*
X370862Y263738D01*
Y263357D01*
X370672Y262976D01*
X370291Y262405D01*
X368387Y260500D01*
X371053D01*
X371948Y263738D02*
X372329Y263928D01*
X372900Y264500D01*
Y260500D01*
X376023Y264500D02*
X375452Y264309D01*
X375071Y263738D01*
X374881Y262786D01*
Y262214D01*
X375071Y261262D01*
X375452Y260691D01*
X376023Y260500D01*
X376404D01*
X376975Y260691D01*
X377356Y261262D01*
X377547Y262214D01*
Y262786D01*
X377356Y263738D01*
X376975Y264309D01*
X376404Y264500D01*
X376023D01*
X380727D02*
X378823D01*
X378632Y262786D01*
X378823Y262976D01*
X379394Y263166D01*
X379965D01*
X380537Y262976D01*
X380917Y262595D01*
X381108Y262024D01*
Y261643D01*
X380917Y261072D01*
X380537Y260691D01*
X379965Y260500D01*
X379394D01*
X378823Y260691D01*
X378632Y260881D01*
X378442Y261262D01*
X382003Y263738D02*
X382384Y263928D01*
X382955Y264500D01*
Y260500D01*
X385316Y264500D02*
X387411D01*
X386269Y262976D01*
X386840D01*
X387221Y262786D01*
X387411Y262595D01*
X387602Y262024D01*
Y261643D01*
X387411Y261072D01*
X387030Y260691D01*
X386459Y260500D01*
X385888D01*
X385316Y260691D01*
X385126Y260881D01*
X384936Y261262D01*
X391544Y260500D02*
X390020Y264500D01*
X388497Y260500D01*
X389068Y261834D02*
X390972D01*
X151809Y142251D02*
X152975D01*
X152392D01*
Y145749D01*
X151809Y145166D01*
X157057Y142251D02*
X154725D01*
X157057Y144583D01*
Y145166D01*
X156474Y145749D01*
X155308D01*
X154725Y145166D01*
X158223Y145749D02*
Y143417D01*
X159390Y142251D01*
X160556Y143417D01*
Y145749D01*
X297000Y274000D02*
Y269001D01*
X298047Y272333D02*
Y269001D01*
Y271381D02*
X298762Y272095D01*
X299238Y272333D01*
X299952D01*
X300428Y272095D01*
X300666Y271381D01*
Y269001D01*
X302689Y274000D02*
Y269953D01*
X302927Y269239D01*
X303403Y269001D01*
X303879D01*
X301975Y272333D02*
X303641D01*
X304594Y270905D02*
X307450D01*
Y271381D01*
X307212Y271857D01*
X306974Y272095D01*
X306498Y272333D01*
X305784D01*
X305308Y272095D01*
X304832Y271619D01*
X304594Y270905D01*
Y270429D01*
X304832Y269715D01*
X305308Y269239D01*
X305784Y269001D01*
X306498D01*
X306974Y269239D01*
X307450Y269715D01*
X308521Y272333D02*
Y269001D01*
Y270905D02*
X308759Y271619D01*
X309236Y272095D01*
X309712Y272333D01*
X310426D01*
X312782Y274000D02*
X312306D01*
X311830Y273761D01*
X311592Y273047D01*
Y269001D01*
X310878Y272333D02*
X312544D01*
X316353D02*
Y269001D01*
Y271619D02*
X315877Y272095D01*
X315401Y272333D01*
X314687D01*
X314211Y272095D01*
X313735Y271619D01*
X313496Y270905D01*
Y270429D01*
X313735Y269715D01*
X314211Y269239D01*
X314687Y269001D01*
X315401D01*
X315877Y269239D01*
X316353Y269715D01*
X320543Y271619D02*
X320066Y272095D01*
X319590Y272333D01*
X318876D01*
X318400Y272095D01*
X317924Y271619D01*
X317686Y270905D01*
Y270429D01*
X317924Y269715D01*
X318400Y269239D01*
X318876Y269001D01*
X319590D01*
X320066Y269239D01*
X320543Y269715D01*
X321614Y270905D02*
X324470D01*
Y271381D01*
X324232Y271857D01*
X323994Y272095D01*
X323518Y272333D01*
X322804D01*
X322328Y272095D01*
X321852Y271619D01*
X321614Y270905D01*
Y270429D01*
X321852Y269715D01*
X322328Y269239D01*
X322804Y269001D01*
X323518D01*
X323994Y269239D01*
X324470Y269715D01*
X329707Y272809D02*
Y273047D01*
X329945Y273523D01*
X330183Y273761D01*
X330660Y274000D01*
X331612D01*
X332088Y273761D01*
X332326Y273523D01*
X332564Y273047D01*
Y272571D01*
X332326Y272095D01*
X331850Y271381D01*
X329469Y269001D01*
X332802D01*
X170333Y281999D02*
X169857Y282476D01*
X169142Y282714D01*
X168190D01*
X167476Y282476D01*
X167000Y281999D01*
Y281523D01*
X167238Y281047D01*
X167476Y280809D01*
X167952Y280571D01*
X169380Y280095D01*
X169857Y279857D01*
X170095Y279619D01*
X170333Y279143D01*
Y278429D01*
X169857Y277953D01*
X169142Y277715D01*
X168190D01*
X167476Y277953D01*
X167000Y278429D01*
X172166Y282714D02*
Y278667D01*
X172404Y277953D01*
X172880Y277715D01*
X173356D01*
X171451Y281047D02*
X173118D01*
X174070D02*
Y277715D01*
Y279619D02*
X174308Y280333D01*
X174784Y280809D01*
X175260Y281047D01*
X175974D01*
X179283D02*
Y277715D01*
Y280333D02*
X178807Y280809D01*
X178331Y281047D01*
X177617D01*
X177141Y280809D01*
X176665Y280333D01*
X176427Y279619D01*
Y279143D01*
X176665Y278429D01*
X177141Y277953D01*
X177617Y277715D01*
X178331D01*
X178807Y277953D01*
X179283Y278429D01*
X181092Y282714D02*
X181330Y282476D01*
X181568Y282714D01*
X181330Y282952D01*
X181092Y282714D01*
X181330Y281047D02*
Y277715D01*
X182449Y281047D02*
Y277715D01*
Y280095D02*
X183163Y280809D01*
X183639Y281047D01*
X184353D01*
X184829Y280809D01*
X185068Y280095D01*
Y277715D01*
X193875Y281523D02*
X193637Y281999D01*
X193161Y282476D01*
X192685Y282714D01*
X191733D01*
X191257Y282476D01*
X190781Y281999D01*
X190543Y281523D01*
X190305Y280809D01*
Y279619D01*
X190543Y278905D01*
X190781Y278429D01*
X191257Y277953D01*
X191733Y277715D01*
X192685D01*
X193161Y277953D01*
X193637Y278429D01*
X193875Y278905D01*
Y279619D01*
X192685D02*
X193875D01*
X197874Y281047D02*
Y277715D01*
Y280333D02*
X197398Y280809D01*
X196922Y281047D01*
X196208D01*
X195732Y280809D01*
X195256Y280333D01*
X195018Y279619D01*
Y279143D01*
X195256Y278429D01*
X195732Y277953D01*
X196208Y277715D01*
X196922D01*
X197398Y277953D01*
X197874Y278429D01*
X199207Y281047D02*
Y278667D01*
X199445Y277953D01*
X199922Y277715D01*
X200636D01*
X201112Y277953D01*
X201826Y278667D01*
Y281047D02*
Y277715D01*
X205992Y281047D02*
Y277239D01*
X205754Y276524D01*
X205516Y276286D01*
X205040Y276048D01*
X204325D01*
X203849Y276286D01*
X205992Y280333D02*
X205516Y280809D01*
X205040Y281047D01*
X204325D01*
X203849Y280809D01*
X203373Y280333D01*
X203135Y279619D01*
Y279143D01*
X203373Y278429D01*
X203849Y277953D01*
X204325Y277715D01*
X205040D01*
X205516Y277953D01*
X205992Y278429D01*
X207325Y279619D02*
X210181D01*
Y280095D01*
X209943Y280571D01*
X209705Y280809D01*
X209229Y281047D01*
X208515D01*
X208039Y280809D01*
X207563Y280333D01*
X207325Y279619D01*
Y279143D01*
X207563Y278429D01*
X208039Y277953D01*
X208515Y277715D01*
X209229D01*
X209705Y277953D01*
X210181Y278429D01*
X299833Y281999D02*
X299357Y282476D01*
X298642Y282714D01*
X297690D01*
X296976Y282476D01*
X296500Y281999D01*
Y281523D01*
X296738Y281047D01*
X296976Y280809D01*
X297452Y280571D01*
X298880Y280095D01*
X299357Y279857D01*
X299595Y279619D01*
X299833Y279143D01*
Y278429D01*
X299357Y277953D01*
X298642Y277715D01*
X297690D01*
X296976Y277953D01*
X296500Y278429D01*
X301666Y282714D02*
Y278667D01*
X301904Y277953D01*
X302380Y277715D01*
X302856D01*
X300951Y281047D02*
X302618D01*
X303570D02*
Y277715D01*
Y279619D02*
X303808Y280333D01*
X304284Y280809D01*
X304760Y281047D01*
X305474D01*
X308783D02*
Y277715D01*
Y280333D02*
X308307Y280809D01*
X307831Y281047D01*
X307117D01*
X306641Y280809D01*
X306165Y280333D01*
X305927Y279619D01*
Y279143D01*
X306165Y278429D01*
X306641Y277953D01*
X307117Y277715D01*
X307831D01*
X308307Y277953D01*
X308783Y278429D01*
X310592Y282714D02*
X310830Y282476D01*
X311068Y282714D01*
X310830Y282952D01*
X310592Y282714D01*
X310830Y281047D02*
Y277715D01*
X311949Y281047D02*
Y277715D01*
Y280095D02*
X312663Y280809D01*
X313139Y281047D01*
X313853D01*
X314330Y280809D01*
X314568Y280095D01*
Y277715D01*
X323375Y281523D02*
X323137Y281999D01*
X322661Y282476D01*
X322185Y282714D01*
X321233D01*
X320757Y282476D01*
X320281Y281999D01*
X320043Y281523D01*
X319805Y280809D01*
Y279619D01*
X320043Y278905D01*
X320281Y278429D01*
X320757Y277953D01*
X321233Y277715D01*
X322185D01*
X322661Y277953D01*
X323137Y278429D01*
X323375Y278905D01*
Y279619D01*
X322185D02*
X323375D01*
X327374Y281047D02*
Y277715D01*
Y280333D02*
X326898Y280809D01*
X326422Y281047D01*
X325708D01*
X325232Y280809D01*
X324756Y280333D01*
X324518Y279619D01*
Y279143D01*
X324756Y278429D01*
X325232Y277953D01*
X325708Y277715D01*
X326422D01*
X326898Y277953D01*
X327374Y278429D01*
X328707Y281047D02*
Y278667D01*
X328945Y277953D01*
X329421Y277715D01*
X330136D01*
X330612Y277953D01*
X331326Y278667D01*
Y281047D02*
Y277715D01*
X335492Y281047D02*
Y277239D01*
X335254Y276524D01*
X335016Y276286D01*
X334540Y276048D01*
X333825D01*
X333349Y276286D01*
X335492Y280333D02*
X335016Y280809D01*
X334540Y281047D01*
X333825D01*
X333349Y280809D01*
X332873Y280333D01*
X332635Y279619D01*
Y279143D01*
X332873Y278429D01*
X333349Y277953D01*
X333825Y277715D01*
X334540D01*
X335016Y277953D01*
X335492Y278429D01*
X336825Y279619D02*
X339681D01*
Y280095D01*
X339443Y280571D01*
X339205Y280809D01*
X338729Y281047D01*
X338015D01*
X337539Y280809D01*
X337063Y280333D01*
X336825Y279619D01*
Y279143D01*
X337063Y278429D01*
X337539Y277953D01*
X338015Y277715D01*
X338729D01*
X339205Y277953D01*
X339681Y278429D01*
X341745Y145166D02*
X341162Y145749D01*
X339995D01*
X339412Y145166D01*
Y142834D01*
X339995Y142251D01*
X341162D01*
X341745Y142834D01*
Y144000D01*
X340579D01*
X342911Y142251D02*
Y145749D01*
X345244Y142251D01*
Y145749D01*
X346410D02*
Y142251D01*
X348159D01*
X348743Y142834D01*
Y145166D01*
X348159Y145749D01*
X346410D01*
X191669Y145166D02*
X191086Y145749D01*
X189920D01*
X189337Y145166D01*
Y142834D01*
X189920Y142251D01*
X191086D01*
X191669Y142834D01*
X192836Y142251D02*
Y144583D01*
X194002Y145749D01*
X195168Y144583D01*
Y142251D01*
Y144000D01*
X192836D01*
X196335Y142251D02*
Y145749D01*
X198667Y142251D01*
Y145749D01*
X199834D02*
Y142251D01*
X202166D01*
X320355Y145166D02*
X319771Y145749D01*
X318605D01*
X318022Y145166D01*
Y142834D01*
X318605Y142251D01*
X319771D01*
X320355Y142834D01*
X321521Y142251D02*
Y144583D01*
X322687Y145749D01*
X323853Y144583D01*
Y142251D01*
Y144000D01*
X321521D01*
X325020Y142251D02*
Y145749D01*
X327352Y142251D01*
Y145749D01*
X328519D02*
Y142251D01*
X330851D01*
X231167Y114166D02*
X230501Y113499D01*
Y112167D01*
X231167Y111500D01*
X233833D01*
X234499Y112167D01*
Y113499D01*
X233833Y114166D01*
X234499Y115499D02*
X231834D01*
X230501Y116832D01*
X231834Y118165D01*
X234499D01*
X232500D01*
Y115499D01*
X234499Y119497D02*
X230501D01*
X234499Y122163D01*
X230501D01*
X234499Y123496D02*
Y124829D01*
Y124163D01*
X230501D01*
X231167Y123496D01*
X167500Y274500D02*
Y269500D01*
X168547Y272833D02*
Y269500D01*
Y271881D02*
X169262Y272595D01*
X169738Y272833D01*
X170452D01*
X170928Y272595D01*
X171166Y271881D01*
Y269500D01*
X173189Y274500D02*
Y270453D01*
X173427Y269739D01*
X173903Y269500D01*
X174380D01*
X172475Y272833D02*
X174141D01*
X175094Y271405D02*
X177950D01*
Y271881D01*
X177712Y272357D01*
X177474Y272595D01*
X176998Y272833D01*
X176284D01*
X175808Y272595D01*
X175332Y272119D01*
X175094Y271405D01*
Y270929D01*
X175332Y270215D01*
X175808Y269739D01*
X176284Y269500D01*
X176998D01*
X177474Y269739D01*
X177950Y270215D01*
X179021Y272833D02*
Y269500D01*
Y271405D02*
X179259Y272119D01*
X179736Y272595D01*
X180212Y272833D01*
X180926D01*
X183282Y274500D02*
X182806D01*
X182330Y274261D01*
X182092Y273547D01*
Y269500D01*
X181378Y272833D02*
X183044D01*
X186853D02*
Y269500D01*
Y272119D02*
X186377Y272595D01*
X185901Y272833D01*
X185187D01*
X184711Y272595D01*
X184234Y272119D01*
X183996Y271405D01*
Y270929D01*
X184234Y270215D01*
X184711Y269739D01*
X185187Y269500D01*
X185901D01*
X186377Y269739D01*
X186853Y270215D01*
X191043Y272119D02*
X190567Y272595D01*
X190090Y272833D01*
X189376D01*
X188900Y272595D01*
X188424Y272119D01*
X188186Y271405D01*
Y270929D01*
X188424Y270215D01*
X188900Y269739D01*
X189376Y269500D01*
X190090D01*
X190567Y269739D01*
X191043Y270215D01*
X192114Y271405D02*
X194970D01*
Y271881D01*
X194732Y272357D01*
X194494Y272595D01*
X194018Y272833D01*
X193304D01*
X192828Y272595D01*
X192352Y272119D01*
X192114Y271405D01*
Y270929D01*
X192352Y270215D01*
X192828Y269739D01*
X193304Y269500D01*
X194018D01*
X194494Y269739D01*
X194970Y270215D01*
X199969Y273547D02*
X200445Y273785D01*
X201160Y274500D01*
Y269500D01*
X230000Y152499D02*
X232666D01*
X231333D01*
Y148501D01*
X235998D02*
X234665D01*
X233999Y149167D01*
Y150500D01*
X234665Y151166D01*
X235998D01*
X236665Y150500D01*
Y149834D01*
X233999D01*
X237997Y151166D02*
Y148501D01*
Y149834D01*
X238664Y150500D01*
X239330Y151166D01*
X239997D01*
X241996Y148501D02*
Y151166D01*
X242663D01*
X243329Y150500D01*
Y148501D01*
Y150500D01*
X243995Y151166D01*
X244662Y150500D01*
Y148501D01*
X245995D02*
X247328D01*
X246661D01*
Y151166D01*
X245995D01*
X249327Y148501D02*
Y151166D01*
X251326D01*
X251993Y150500D01*
Y148501D01*
X253992Y151166D02*
X255325D01*
X255992Y150500D01*
Y148501D01*
X253992D01*
X253326Y149167D01*
X253992Y149834D01*
X255992D01*
X257991Y151833D02*
Y151166D01*
X257325D01*
X258657D01*
X257991D01*
Y149167D01*
X258657Y148501D01*
X260657D02*
X261990D01*
X261323D01*
Y151166D01*
X260657D01*
X264655Y148501D02*
X265988D01*
X266655Y149167D01*
Y150500D01*
X265988Y151166D01*
X264655D01*
X263989Y150500D01*
Y149167D01*
X264655Y148501D01*
X267988D02*
Y151166D01*
X269987D01*
X270654Y150500D01*
Y148501D01*
X300591Y145166D02*
X300008Y145749D01*
X298842D01*
X298259Y145166D01*
Y142834D01*
X298842Y142251D01*
X300008D01*
X300591Y142834D01*
X301758Y142251D02*
Y144583D01*
X302924Y145749D01*
X304090Y144583D01*
Y142251D01*
Y144000D01*
X301758D01*
X305257Y142251D02*
Y145749D01*
X307589Y142251D01*
Y145749D01*
X308755D02*
Y142251D01*
Y144000D01*
X311088D01*
Y145749D01*
Y142251D01*
X265667Y114166D02*
X265001Y113499D01*
Y112167D01*
X265667Y111500D01*
X268333D01*
X268999Y112167D01*
Y113499D01*
X268333Y114166D01*
X268999Y115499D02*
X266334D01*
X265001Y116832D01*
X266334Y118165D01*
X268999D01*
X267000D01*
Y115499D01*
X268999Y119497D02*
X265001D01*
X268999Y122163D01*
X265001D01*
X268999Y126162D02*
Y123496D01*
X266334Y126162D01*
X265667D01*
X265001Y125496D01*
Y124163D01*
X265667Y123496D01*
X376000Y170666D02*
Y166667D01*
X377999D01*
X378666Y167333D01*
Y169999D01*
X377999Y170666D01*
X376000D01*
X381998Y166667D02*
X380665D01*
X379999Y167333D01*
Y168667D01*
X380665Y169333D01*
X381998D01*
X382664Y168667D01*
Y168000D01*
X379999D01*
X383997Y170666D02*
Y166667D01*
X385997D01*
X386663Y167333D01*
Y168000D01*
Y168667D01*
X385997Y169333D01*
X383997D01*
X387996D02*
Y167333D01*
X388663Y166667D01*
X390662D01*
Y169333D01*
X393328Y165334D02*
X393994D01*
X394661Y166001D01*
Y169333D01*
X392661D01*
X391995Y168667D01*
Y167333D01*
X392661Y166667D01*
X394661D01*
X171906Y145166D02*
X171323Y145749D01*
X170157D01*
X169574Y145166D01*
Y142834D01*
X170157Y142251D01*
X171323D01*
X171906Y142834D01*
X173073Y142251D02*
Y144583D01*
X174239Y145749D01*
X175405Y144583D01*
Y142251D01*
Y144000D01*
X173073D01*
X176571Y142251D02*
Y145749D01*
X178904Y142251D01*
Y145749D01*
X180070D02*
Y142251D01*
Y144000D01*
X182403D01*
Y145749D01*
Y142251D01*
X202700Y251299D02*
Y247966D01*
X203366Y247300D01*
X204699D01*
X205366Y247966D01*
Y251299D01*
X206699Y247300D02*
X208032D01*
X207365D01*
Y251299D01*
X206699Y250632D01*
X147800Y267699D02*
X150466D01*
X149133D01*
Y263700D01*
X151799D02*
Y267699D01*
X153798D01*
X154464Y267032D01*
Y265699D01*
X153798Y265033D01*
X151799D01*
X155797Y263700D02*
X157130D01*
X156464D01*
Y267699D01*
X155797Y267032D01*
X161795Y267699D02*
X160463Y267032D01*
X159130Y265699D01*
Y264366D01*
X159796Y263700D01*
X161129D01*
X161795Y264366D01*
Y265033D01*
X161129Y265699D01*
X159130D01*
X371502Y143499D02*
X374168D01*
X372835D01*
Y139501D01*
X375501D02*
Y143499D01*
X377500D01*
X378167Y142833D01*
Y141500D01*
X377500Y140833D01*
X375501D01*
X379500Y139501D02*
X380833D01*
X380166D01*
Y143499D01*
X379500Y142833D01*
X385498Y143499D02*
X382832D01*
Y141500D01*
X384165Y142166D01*
X384831D01*
X385498Y141500D01*
Y140167D01*
X384831Y139501D01*
X383498D01*
X382832Y140167D01*
X114502Y143499D02*
X117168D01*
X115835D01*
Y139501D01*
X118501D02*
Y143499D01*
X120500D01*
X121167Y142833D01*
Y141500D01*
X120500Y140833D01*
X118501D01*
X122500Y139501D02*
X123833D01*
X123166D01*
Y143499D01*
X122500Y142833D01*
X127831Y139501D02*
Y143499D01*
X125832Y141500D01*
X128498D01*
X371502Y158999D02*
X374168D01*
X372835D01*
Y155001D01*
X375501D02*
Y158999D01*
X377500D01*
X378167Y158333D01*
Y157000D01*
X377500Y156333D01*
X375501D01*
X379500Y155001D02*
X380833D01*
X380166D01*
Y158999D01*
X379500Y158333D01*
X382832D02*
X383498Y158999D01*
X384831D01*
X385498Y158333D01*
Y157667D01*
X384831Y157000D01*
X384165D01*
X384831D01*
X385498Y156333D01*
Y155667D01*
X384831Y155001D01*
X383498D01*
X382832Y155667D01*
X114502Y159499D02*
X117168D01*
X115835D01*
Y155501D01*
X118501D02*
Y159499D01*
X120500D01*
X121167Y158833D01*
Y157500D01*
X120500Y156834D01*
X118501D01*
X122500Y155501D02*
X123833D01*
X123166D01*
Y159499D01*
X122500Y158833D01*
X128498Y155501D02*
X125832D01*
X128498Y158167D01*
Y158833D01*
X127831Y159499D01*
X126498D01*
X125832Y158833D01*
X147800Y208199D02*
X150466D01*
X149133D01*
Y204200D01*
X151799D02*
Y208199D01*
X153798D01*
X154464Y207532D01*
Y206199D01*
X153798Y205533D01*
X151799D01*
X155797Y204200D02*
X157130D01*
X156464D01*
Y208199D01*
X155797Y207532D01*
X159130Y204200D02*
X160463D01*
X159796D01*
Y208199D01*
X159130Y207532D01*
X362800Y303699D02*
X365466D01*
X364133D01*
Y299700D01*
X366799D02*
Y303699D01*
X368798D01*
X369464Y303032D01*
Y301699D01*
X368798Y301033D01*
X366799D01*
X370797Y299700D02*
X372130D01*
X371464D01*
Y303699D01*
X370797Y303032D01*
X374130D02*
X374796Y303699D01*
X376129D01*
X376796Y303032D01*
Y300366D01*
X376129Y299700D01*
X374796D01*
X374130Y300366D01*
Y303032D01*
X380300Y303699D02*
X382966D01*
X381633D01*
Y299700D01*
X384299D02*
Y303699D01*
X386298D01*
X386965Y303032D01*
Y301699D01*
X386298Y301033D01*
X384299D01*
X388297Y300366D02*
X388964Y299700D01*
X390297D01*
X390963Y300366D01*
Y303032D01*
X390297Y303699D01*
X388964D01*
X388297Y303032D01*
Y302366D01*
X388964Y301699D01*
X390963D01*
X261300Y192199D02*
X263966D01*
X262633D01*
Y188200D01*
X265299D02*
Y192199D01*
X267298D01*
X267965Y191532D01*
Y190199D01*
X267298Y189533D01*
X265299D01*
X269297Y191532D02*
X269964Y192199D01*
X271297D01*
X271963Y191532D01*
Y190866D01*
X271297Y190199D01*
X271963Y189533D01*
Y188866D01*
X271297Y188200D01*
X269964D01*
X269297Y188866D01*
Y189533D01*
X269964Y190199D01*
X269297Y190866D01*
Y191532D01*
X269964Y190199D02*
X271297D01*
X276300Y192199D02*
X278966D01*
X277633D01*
Y188200D01*
X280299D02*
Y192199D01*
X282298D01*
X282964Y191532D01*
Y190199D01*
X282298Y189533D01*
X280299D01*
X284297Y192199D02*
X286963D01*
Y191532D01*
X284297Y188866D01*
Y188200D01*
X202300Y158699D02*
X204966D01*
X203633D01*
Y154700D01*
X206299D02*
Y158699D01*
X208298D01*
X208964Y158032D01*
Y156699D01*
X208298Y156033D01*
X206299D01*
X212963Y158699D02*
X211630Y158032D01*
X210297Y156699D01*
Y155367D01*
X210964Y154700D01*
X212297D01*
X212963Y155367D01*
Y156033D01*
X212297Y156699D01*
X210297D01*
X217300Y158699D02*
X219966D01*
X218633D01*
Y154700D01*
X221299D02*
Y158699D01*
X223298D01*
X223965Y158032D01*
Y156699D01*
X223298Y156033D01*
X221299D01*
X227963Y158699D02*
X225297D01*
Y156699D01*
X226630Y157366D01*
X227297D01*
X227963Y156699D01*
Y155367D01*
X227297Y154700D01*
X225964D01*
X225297Y155367D01*
X108300Y305199D02*
X110966D01*
X109633D01*
Y301200D01*
X112299D02*
Y305199D01*
X114298D01*
X114964Y304532D01*
Y303199D01*
X114298Y302533D01*
X112299D01*
X118297Y301200D02*
Y305199D01*
X116297Y303199D01*
X118963D01*
X123300Y305199D02*
X125966D01*
X124633D01*
Y301200D01*
X127299D02*
Y305199D01*
X129298D01*
X129964Y304532D01*
Y303199D01*
X129298Y302533D01*
X127299D01*
X131297Y304532D02*
X131964Y305199D01*
X133297D01*
X133963Y304532D01*
Y303866D01*
X133297Y303199D01*
X132630D01*
X133297D01*
X133963Y302533D01*
Y301866D01*
X133297Y301200D01*
X131964D01*
X131297Y301866D01*
X270168Y244999D02*
X272834D01*
X271501D01*
Y241001D01*
X274167D02*
Y244999D01*
X276166D01*
X276833Y244333D01*
Y243000D01*
X276166Y242334D01*
X274167D01*
X280832Y241001D02*
X278166D01*
X280832Y243666D01*
Y244333D01*
X280165Y244999D01*
X278832D01*
X278166Y244333D01*
X287335Y244999D02*
X290001D01*
X288668D01*
Y241001D01*
X291334D02*
Y244999D01*
X293333D01*
X293999Y244333D01*
Y243000D01*
X293333Y242334D01*
X291334D01*
X295332Y241001D02*
X296665D01*
X295999D01*
Y244999D01*
X295332Y244333D01*
X256046Y337333D02*
X255380Y337999D01*
X254047D01*
X253380Y337333D01*
Y334667D01*
X254047Y334001D01*
X255380D01*
X256046Y334667D01*
X257379D02*
X258046Y334001D01*
X259378D01*
X260045Y334667D01*
Y337333D01*
X259378Y337999D01*
X258046D01*
X257379Y337333D01*
Y336666D01*
X258046Y336000D01*
X260045D01*
X256046Y323333D02*
X255380Y323999D01*
X254047D01*
X253380Y323333D01*
Y320667D01*
X254047Y320001D01*
X255380D01*
X256046Y320667D01*
X257379Y323333D02*
X258046Y323999D01*
X259378D01*
X260045Y323333D01*
Y322666D01*
X259378Y322000D01*
X260045Y321334D01*
Y320667D01*
X259378Y320001D01*
X258046D01*
X257379Y320667D01*
Y321334D01*
X258046Y322000D01*
X257379Y322666D01*
Y323333D01*
X258046Y322000D02*
X259378D01*
X245834Y337333D02*
X245167Y337999D01*
X243834D01*
X243168Y337333D01*
Y334667D01*
X243834Y334001D01*
X245167D01*
X245834Y334667D01*
X249832Y337999D02*
X247166D01*
Y336000D01*
X248499Y336666D01*
X249166D01*
X249832Y336000D01*
Y334667D01*
X249166Y334001D01*
X247833D01*
X247166Y334667D01*
X245834Y323333D02*
X245167Y323999D01*
X243834D01*
X243168Y323333D01*
Y320667D01*
X243834Y320001D01*
X245167D01*
X245834Y320667D01*
X249166Y320001D02*
Y323999D01*
X247166Y322000D01*
X249832D01*
X163168Y222999D02*
Y219667D01*
X163834Y219001D01*
X165167D01*
X165833Y219667D01*
Y222999D01*
X167166D02*
X169832D01*
Y222333D01*
X167166Y219667D01*
Y219001D01*
X109200Y281299D02*
Y277966D01*
X109866Y277300D01*
X111199D01*
X111866Y277966D01*
Y281299D01*
X115865D02*
X114532Y280632D01*
X113199Y279299D01*
Y277966D01*
X113865Y277300D01*
X115198D01*
X115865Y277966D01*
Y278633D01*
X115198Y279299D01*
X113199D01*
X111200Y224299D02*
Y220966D01*
X111866Y220300D01*
X113199D01*
X113866Y220966D01*
Y224299D01*
X117865D02*
X115199D01*
Y222299D01*
X116532Y222966D01*
X117198D01*
X117865Y222299D01*
Y220966D01*
X117198Y220300D01*
X115865D01*
X115199Y220966D01*
X329668Y176999D02*
Y173667D01*
X330334Y173001D01*
X331667D01*
X332334Y173667D01*
Y176999D01*
X335666Y173001D02*
Y176999D01*
X333666Y175000D01*
X336332D01*
X172999Y177832D02*
X169667D01*
X169001Y177166D01*
Y175833D01*
X169667Y175166D01*
X172999D01*
X172333Y173834D02*
X172999Y173167D01*
Y171834D01*
X172333Y171168D01*
X171667D01*
X171000Y171834D01*
Y172501D01*
Y171834D01*
X170334Y171168D01*
X169667D01*
X169001Y171834D01*
Y173167D01*
X169667Y173834D01*
X253168Y302499D02*
Y299167D01*
X253834Y298501D01*
X255167D01*
X255834Y299167D01*
Y302499D01*
X259832Y298501D02*
X257167D01*
X259832Y301166D01*
Y301833D01*
X259166Y302499D01*
X257833D01*
X257167Y301833D01*
X263001Y106833D02*
X262334Y107499D01*
X261001D01*
X260335Y106833D01*
Y106167D01*
X261001Y105500D01*
X262334D01*
X263001Y104833D01*
Y104167D01*
X262334Y103501D01*
X261001D01*
X260335Y104167D01*
X264334Y107499D02*
Y103501D01*
X265666Y104833D01*
X266999Y103501D01*
Y107499D01*
X268332Y103501D02*
X269665D01*
X268999D01*
Y107499D01*
X268332Y106833D01*
X254002Y162001D02*
Y165999D01*
X256001D01*
X256667Y165333D01*
Y164000D01*
X256001Y163333D01*
X254002D01*
X255334D02*
X256667Y162001D01*
X258000D02*
X259333D01*
X258667D01*
Y165999D01*
X258000Y165333D01*
X261333D02*
X261999Y165999D01*
X263332D01*
X263998Y165333D01*
Y162667D01*
X263332Y162001D01*
X261999D01*
X261333Y162667D01*
Y165333D01*
X238668Y162001D02*
Y165999D01*
X240667D01*
X241334Y165333D01*
Y164000D01*
X240667Y163333D01*
X238668D01*
X240001D02*
X241334Y162001D01*
X242667Y162667D02*
X243333Y162001D01*
X244666D01*
X245332Y162667D01*
Y165333D01*
X244666Y165999D01*
X243333D01*
X242667Y165333D01*
Y164666D01*
X243333Y164000D01*
X245332D01*
X253380Y341001D02*
Y344999D01*
X255380D01*
X256046Y344333D01*
Y343000D01*
X255380Y342334D01*
X253380D01*
X254713D02*
X256046Y341001D01*
X257379Y344333D02*
X258046Y344999D01*
X259378D01*
X260045Y344333D01*
Y343666D01*
X259378Y343000D01*
X260045Y342334D01*
Y341667D01*
X259378Y341001D01*
X258046D01*
X257379Y341667D01*
Y342334D01*
X258046Y343000D01*
X257379Y343666D01*
Y344333D01*
X258046Y343000D02*
X259378D01*
X253380Y327001D02*
Y330999D01*
X255380D01*
X256046Y330333D01*
Y329000D01*
X255380Y328334D01*
X253380D01*
X254713D02*
X256046Y327001D01*
X257379Y330999D02*
X260045D01*
Y330333D01*
X257379Y327667D01*
Y327001D01*
X380668Y212501D02*
Y216499D01*
X382667D01*
X383334Y215833D01*
Y214500D01*
X382667Y213834D01*
X380668D01*
X382001D02*
X383334Y212501D01*
X387332Y216499D02*
X385999Y215833D01*
X384666Y214500D01*
Y213167D01*
X385333Y212501D01*
X386666D01*
X387332Y213167D01*
Y213834D01*
X386666Y214500D01*
X384666D01*
X347668Y212501D02*
Y216499D01*
X349667D01*
X350334Y215833D01*
Y214500D01*
X349667Y213834D01*
X347668D01*
X349001D02*
X350334Y212501D01*
X354332Y216499D02*
X351666D01*
Y214500D01*
X352999Y215166D01*
X353666D01*
X354332Y214500D01*
Y213167D01*
X353666Y212501D01*
X352333D01*
X351666Y213167D01*
X243168Y341001D02*
Y344999D01*
X245167D01*
X245834Y344333D01*
Y343000D01*
X245167Y342334D01*
X243168D01*
X244501D02*
X245834Y341001D01*
X249166D02*
Y344999D01*
X247166Y343000D01*
X249832D01*
X243168Y327001D02*
Y330999D01*
X245167D01*
X245834Y330333D01*
Y329000D01*
X245167Y328334D01*
X243168D01*
X244501D02*
X245834Y327001D01*
X247166Y330333D02*
X247833Y330999D01*
X249166D01*
X249832Y330333D01*
Y329666D01*
X249166Y329000D01*
X248499D01*
X249166D01*
X249832Y328334D01*
Y327667D01*
X249166Y327001D01*
X247833D01*
X247166Y327667D01*
X314168Y212501D02*
Y216499D01*
X316167D01*
X316834Y215833D01*
Y214500D01*
X316167Y213834D01*
X314168D01*
X315501D02*
X316834Y212501D01*
X320832D02*
X318166D01*
X320832Y215166D01*
Y215833D01*
X320166Y216499D01*
X318833D01*
X318166Y215833D01*
X280334Y212501D02*
Y216499D01*
X282334D01*
X283000Y215833D01*
Y214500D01*
X282334Y213834D01*
X280334D01*
X281667D02*
X283000Y212501D01*
X284333D02*
X285666D01*
X284999D01*
Y216499D01*
X284333Y215833D01*
X388168Y134001D02*
Y137999D01*
X389501Y136667D01*
X390834Y137999D01*
Y134001D01*
X392167Y137999D02*
Y134001D01*
Y136000D01*
X394833D01*
Y137999D01*
Y134001D01*
X398165D02*
Y137999D01*
X396166Y136000D01*
X398832D01*
X374668Y309001D02*
Y312999D01*
X376001Y311666D01*
X377334Y312999D01*
Y309001D01*
X378667Y312999D02*
Y309001D01*
Y311000D01*
X381333D01*
Y312999D01*
Y309001D01*
X382666Y312333D02*
X383332Y312999D01*
X384665D01*
X385332Y312333D01*
Y311666D01*
X384665Y311000D01*
X383999D01*
X384665D01*
X385332Y310334D01*
Y309667D01*
X384665Y309001D01*
X383332D01*
X382666Y309667D01*
X114668Y309001D02*
Y312999D01*
X116001Y311666D01*
X117334Y312999D01*
Y309001D01*
X118667Y312999D02*
Y309001D01*
Y311000D01*
X121333D01*
Y312999D01*
Y309001D01*
X125332D02*
X122666D01*
X125332Y311666D01*
Y312333D01*
X124665Y312999D01*
X123332D01*
X122666Y312333D01*
X101835Y133501D02*
Y137499D01*
X103168Y136167D01*
X104501Y137499D01*
Y133501D01*
X105833Y137499D02*
Y133501D01*
Y135500D01*
X108499D01*
Y137499D01*
Y133501D01*
X109832D02*
X111165D01*
X110499D01*
Y137499D01*
X109832Y136833D01*
X380669Y208999D02*
Y205001D01*
X383335D01*
X387334Y208999D02*
X384668D01*
Y205001D01*
X387334D01*
X384668Y207000D02*
X386001D01*
X388667Y208999D02*
Y205001D01*
X390666D01*
X391332Y205667D01*
Y208333D01*
X390666Y208999D01*
X388667D01*
X394665Y205001D02*
Y208999D01*
X392665Y207000D01*
X395331D01*
X347669Y208999D02*
Y205001D01*
X350335D01*
X354334Y208999D02*
X351668D01*
Y205001D01*
X354334D01*
X351668Y207000D02*
X353001D01*
X355666Y208999D02*
Y205001D01*
X357666D01*
X358332Y205667D01*
Y208333D01*
X357666Y208999D01*
X355666D01*
X359665Y208333D02*
X360332Y208999D01*
X361665D01*
X362331Y208333D01*
Y207666D01*
X361665Y207000D01*
X360998D01*
X361665D01*
X362331Y206334D01*
Y205667D01*
X361665Y205001D01*
X360332D01*
X359665Y205667D01*
X314169Y208999D02*
Y205001D01*
X316835D01*
X320834Y208999D02*
X318168D01*
Y205001D01*
X320834D01*
X318168Y207000D02*
X319501D01*
X322166Y208999D02*
Y205001D01*
X324166D01*
X324832Y205667D01*
Y208333D01*
X324166Y208999D01*
X322166D01*
X328831Y205001D02*
X326165D01*
X328831Y207666D01*
Y208333D01*
X328165Y208999D01*
X326832D01*
X326165Y208333D01*
X280335Y208999D02*
Y205001D01*
X283001D01*
X287000Y208999D02*
X284334D01*
Y205001D01*
X287000D01*
X284334Y207000D02*
X285667D01*
X288333Y208999D02*
Y205001D01*
X290332D01*
X290999Y205667D01*
Y208333D01*
X290332Y208999D01*
X288333D01*
X292332Y205001D02*
X293665D01*
X292998D01*
Y208999D01*
X292332Y208333D01*
X294668Y181499D02*
Y177501D01*
X296667D01*
X297334Y178167D01*
Y180833D01*
X296667Y181499D01*
X294668D01*
X301332Y177501D02*
X298667D01*
X301332Y180166D01*
Y180833D01*
X300666Y181499D01*
X299333D01*
X298667Y180833D01*
X158000Y186699D02*
Y182700D01*
X159999D01*
X160666Y183367D01*
Y186032D01*
X159999Y186699D01*
X158000D01*
X161999Y182700D02*
X163332D01*
X162665D01*
Y186699D01*
X161999Y186032D01*
X343835Y170833D02*
X343168Y171499D01*
X341835D01*
X341169Y170833D01*
Y168167D01*
X341835Y167501D01*
X343168D01*
X343835Y168167D01*
X347167Y171499D02*
X345834D01*
X345168Y170833D01*
Y168167D01*
X345834Y167501D01*
X347167D01*
X347834Y168167D01*
Y170833D01*
X347167Y171499D01*
X349166Y167501D02*
Y171499D01*
X351832Y167501D01*
Y171499D01*
X353165D02*
X355831D01*
Y170833D01*
X353165Y168167D01*
Y167501D01*
X357667Y105835D02*
X357001Y105168D01*
Y103835D01*
X357667Y103169D01*
X360333D01*
X360999Y103835D01*
Y105168D01*
X360333Y105835D01*
X357001Y109167D02*
Y107834D01*
X357667Y107168D01*
X360333D01*
X360999Y107834D01*
Y109167D01*
X360333Y109834D01*
X357667D01*
X357001Y109167D01*
X360999Y111167D02*
X357001D01*
X360999Y113832D01*
X357001D01*
Y117831D02*
X357667Y116498D01*
X359000Y115165D01*
X360333D01*
X360999Y115832D01*
Y117165D01*
X360333Y117831D01*
X359666D01*
X359000Y117165D01*
Y115165D01*
X140167Y104835D02*
X139501Y104168D01*
Y102836D01*
X140167Y102169D01*
X142833D01*
X143499Y102836D01*
Y104168D01*
X142833Y104835D01*
X139501Y108167D02*
Y106834D01*
X140167Y106168D01*
X142833D01*
X143499Y106834D01*
Y108167D01*
X142833Y108834D01*
X140167D01*
X139501Y108167D01*
X143499Y110167D02*
X139501D01*
X143499Y112832D01*
X139501D01*
Y116831D02*
Y114165D01*
X141500D01*
X140833Y115498D01*
Y116165D01*
X141500Y116831D01*
X142833D01*
X143499Y116165D01*
Y114832D01*
X142833Y114165D01*
X353667Y297835D02*
X353001Y297168D01*
Y295835D01*
X353667Y295169D01*
X356333D01*
X356999Y295835D01*
Y297168D01*
X356333Y297835D01*
X353001Y301167D02*
Y299834D01*
X353667Y299168D01*
X356333D01*
X356999Y299834D01*
Y301167D01*
X356333Y301834D01*
X353667D01*
X353001Y301167D01*
X356999Y303167D02*
X353001D01*
X356999Y305832D01*
X353001D01*
X356999Y309165D02*
X353001D01*
X355000Y307165D01*
Y309831D01*
X273667Y297835D02*
X273001Y297168D01*
Y295835D01*
X273667Y295169D01*
X276333D01*
X276999Y295835D01*
Y297168D01*
X276333Y297835D01*
X273001Y301167D02*
Y299834D01*
X273667Y299168D01*
X276333D01*
X276999Y299834D01*
Y301167D01*
X276333Y301834D01*
X273667D01*
X273001Y301167D01*
X276999Y303167D02*
X273001D01*
X276999Y305832D01*
X273001D01*
X273667Y307165D02*
X273001Y307832D01*
Y309165D01*
X273667Y309831D01*
X274334D01*
X275000Y309165D01*
Y308498D01*
Y309165D01*
X275666Y309831D01*
X276333D01*
X276999Y309165D01*
Y307832D01*
X276333Y307165D01*
X226167Y297835D02*
X225501Y297168D01*
Y295835D01*
X226167Y295169D01*
X228833D01*
X229499Y295835D01*
Y297168D01*
X228833Y297835D01*
X225501Y301167D02*
Y299834D01*
X226167Y299168D01*
X228833D01*
X229499Y299834D01*
Y301167D01*
X228833Y301834D01*
X226167D01*
X225501Y301167D01*
X229499Y303167D02*
X225501D01*
X229499Y305832D01*
X225501D01*
X229499Y309831D02*
Y307165D01*
X226834Y309831D01*
X226167D01*
X225501Y309165D01*
Y307832D01*
X226167Y307165D01*
X144167Y297501D02*
X143501Y296835D01*
Y295502D01*
X144167Y294835D01*
X146833D01*
X147499Y295502D01*
Y296835D01*
X146833Y297501D01*
X143501Y300834D02*
Y299501D01*
X144167Y298834D01*
X146833D01*
X147499Y299501D01*
Y300834D01*
X146833Y301500D01*
X144167D01*
X143501Y300834D01*
X147499Y302833D02*
X143501D01*
X147499Y305499D01*
X143501D01*
X147499Y306832D02*
Y308165D01*
Y307498D01*
X143501D01*
X144167Y306832D01*
X174501Y209833D02*
X173834Y210499D01*
X172501D01*
X171835Y209833D01*
Y207167D01*
X172501Y206501D01*
X173834D01*
X174501Y207167D01*
X178499Y206501D02*
X175833D01*
X178499Y209166D01*
Y209833D01*
X177833Y210499D01*
X176500D01*
X175833Y209833D01*
X179832Y206501D02*
X181165D01*
X180499D01*
Y210499D01*
X179832Y209833D01*
X227834Y251833D02*
X227168Y252499D01*
X225835D01*
X225168Y251833D01*
Y249167D01*
X225835Y248501D01*
X227168D01*
X227834Y249167D01*
X231833Y248501D02*
X229167D01*
X231833Y251166D01*
Y251833D01*
X231166Y252499D01*
X229834D01*
X229167Y251833D01*
X233166D02*
X233832Y252499D01*
X235165D01*
X235832Y251833D01*
Y249167D01*
X235165Y248501D01*
X233832D01*
X233166Y249167D01*
Y251833D01*
X251167Y239333D02*
X250501Y239999D01*
X249168D01*
X248502Y239333D01*
Y236667D01*
X249168Y236001D01*
X250501D01*
X251167Y236667D01*
X252500Y236001D02*
X253833D01*
X253167D01*
Y239999D01*
X252500Y239333D01*
X255833Y236667D02*
X256499Y236001D01*
X257832D01*
X258498Y236667D01*
Y239333D01*
X257832Y239999D01*
X256499D01*
X255833Y239333D01*
Y238666D01*
X256499Y238000D01*
X258498D01*
X174566Y249632D02*
X173899Y250299D01*
X172566D01*
X171900Y249632D01*
Y246966D01*
X172566Y246300D01*
X173899D01*
X174566Y246966D01*
X175899Y246300D02*
X177232D01*
X176565D01*
Y250299D01*
X175899Y249632D01*
X179231D02*
X179897Y250299D01*
X181230D01*
X181897Y249632D01*
Y248966D01*
X181230Y248299D01*
X181897Y247633D01*
Y246966D01*
X181230Y246300D01*
X179897D01*
X179231Y246966D01*
Y247633D01*
X179897Y248299D01*
X179231Y248966D01*
Y249632D01*
X179897Y248299D02*
X181230D01*
X237167Y179333D02*
X236501Y179999D01*
X235168D01*
X234502Y179333D01*
Y176667D01*
X235168Y176001D01*
X236501D01*
X237167Y176667D01*
X238500Y176001D02*
X239833D01*
X239167D01*
Y179999D01*
X238500Y179333D01*
X241833Y179999D02*
X244498D01*
Y179333D01*
X241833Y176667D01*
Y176001D01*
X221167Y179333D02*
X220501Y179999D01*
X219168D01*
X218502Y179333D01*
Y176667D01*
X219168Y176001D01*
X220501D01*
X221167Y176667D01*
X222500Y176001D02*
X223833D01*
X223167D01*
Y179999D01*
X222500Y179333D01*
X228498Y179999D02*
X227166Y179333D01*
X225833Y178000D01*
Y176667D01*
X226499Y176001D01*
X227832D01*
X228498Y176667D01*
Y177333D01*
X227832Y178000D01*
X225833D01*
X145466Y242832D02*
X144799Y243499D01*
X143466D01*
X142800Y242832D01*
Y240166D01*
X143466Y239500D01*
X144799D01*
X145466Y240166D01*
X146799Y239500D02*
X148132D01*
X147465D01*
Y243499D01*
X146799Y242832D01*
X152797Y243499D02*
X150131D01*
Y241499D01*
X151464Y242166D01*
X152130D01*
X152797Y241499D01*
Y240166D01*
X152130Y239500D01*
X150797D01*
X150131Y240166D01*
X128466Y242832D02*
X127799Y243499D01*
X126467D01*
X125800Y242832D01*
Y240166D01*
X126467Y239500D01*
X127799D01*
X128466Y240166D01*
X129799Y239500D02*
X131132D01*
X130465D01*
Y243499D01*
X129799Y242832D01*
X135130Y239500D02*
Y243499D01*
X133131Y241499D01*
X135797D01*
X111966Y242832D02*
X111299Y243499D01*
X109967D01*
X109300Y242832D01*
Y240166D01*
X109967Y239500D01*
X111299D01*
X111966Y240166D01*
X113299Y239500D02*
X114632D01*
X113965D01*
Y243499D01*
X113299Y242832D01*
X116631D02*
X117297Y243499D01*
X118630D01*
X119297Y242832D01*
Y242166D01*
X118630Y241499D01*
X117964D01*
X118630D01*
X119297Y240833D01*
Y240166D01*
X118630Y239500D01*
X117297D01*
X116631Y240166D01*
X144966Y184632D02*
X144299Y185299D01*
X142966D01*
X142300Y184632D01*
Y181966D01*
X142966Y181300D01*
X144299D01*
X144966Y181966D01*
X146299Y181300D02*
X147632D01*
X146965D01*
Y185299D01*
X146299Y184632D01*
X152297Y181300D02*
X149631D01*
X152297Y183966D01*
Y184632D01*
X151630Y185299D01*
X150297D01*
X149631Y184632D01*
X128466D02*
X127799Y185299D01*
X126467D01*
X125800Y184632D01*
Y181966D01*
X126467Y181300D01*
X127799D01*
X128466Y181966D01*
X129799Y181300D02*
X131132D01*
X130465D01*
Y185299D01*
X129799Y184632D01*
X133131Y181300D02*
X134464D01*
X133797D01*
Y185299D01*
X133131Y184632D01*
X111966D02*
X111299Y185299D01*
X109967D01*
X109300Y184632D01*
Y181966D01*
X109967Y181300D01*
X111299D01*
X111966Y181966D01*
X113299Y181300D02*
X114632D01*
X113965D01*
Y185299D01*
X113299Y184632D01*
X116631D02*
X117297Y185299D01*
X118630D01*
X119297Y184632D01*
Y181966D01*
X118630Y181300D01*
X117297D01*
X116631Y181966D01*
Y184632D01*
X328334Y194333D02*
X327667Y194999D01*
X326334D01*
X325668Y194333D01*
Y191667D01*
X326334Y191001D01*
X327667D01*
X328334Y191667D01*
X329666Y194999D02*
X332332D01*
Y194333D01*
X329666Y191667D01*
Y191001D01*
X172334Y195333D02*
X171667Y195999D01*
X170334D01*
X169668Y195333D01*
Y192667D01*
X170334Y192001D01*
X171667D01*
X172334Y192667D01*
X176332Y195999D02*
X174999Y195333D01*
X173667Y194000D01*
Y192667D01*
X174333Y192001D01*
X175666D01*
X176332Y192667D01*
Y193333D01*
X175666Y194000D01*
X173667D01*
X222667Y268334D02*
X222001Y267667D01*
Y266334D01*
X222667Y265668D01*
X225333D01*
X225999Y266334D01*
Y267667D01*
X225333Y268334D01*
X222667Y269667D02*
X222001Y270333D01*
Y271666D01*
X222667Y272332D01*
X223334D01*
X224000Y271666D01*
Y270999D01*
Y271666D01*
X224666Y272332D01*
X225333D01*
X225999Y271666D01*
Y270333D01*
X225333Y269667D01*
X273167Y261334D02*
X272501Y260667D01*
Y259334D01*
X273167Y258668D01*
X275833D01*
X276499Y259334D01*
Y260667D01*
X275833Y261334D01*
X276499Y265332D02*
Y262667D01*
X273834Y265332D01*
X273167D01*
X272501Y264666D01*
Y263333D01*
X273167Y262667D01*
X247500Y307333D02*
X246834Y307999D01*
X245501D01*
X244834Y307333D01*
Y304667D01*
X245501Y304001D01*
X246834D01*
X247500Y304667D01*
X248833Y304001D02*
X250166D01*
X249499D01*
Y307999D01*
X248833Y307333D01*
D14*
X209890Y199890D02*
Y236110D01*
X246110Y199890D02*
Y236110D01*
X209890D02*
X246110D01*
X209890Y199890D02*
X246110D01*
X294654Y161685D02*
X295342D01*
X294654Y172315D02*
X295342D01*
X300658Y161685D02*
X301346D01*
X300658Y172315D02*
X301346D01*
X294654Y161685D02*
Y172315D01*
X301346Y161685D02*
Y172315D01*
X245216Y264449D02*
X259784D01*
X245216Y295551D02*
X259784D01*
Y264449D02*
Y295551D01*
X245216Y264449D02*
Y295551D01*
X307157Y177299D02*
X326842D01*
X307157Y164701D02*
X326842D01*
Y177299D01*
X307157Y164701D02*
Y177299D01*
X175157Y178299D02*
X194843D01*
X175157Y165701D02*
X194843D01*
Y178299D01*
X175157Y165701D02*
Y178299D01*
X120898Y189811D02*
Y216189D01*
X133102Y189811D02*
Y216189D01*
X120898D02*
X133102D01*
X120898Y189811D02*
X133102D01*
X118898Y246811D02*
Y273189D01*
X131102Y246811D02*
Y273189D01*
X118898D02*
X131102D01*
X118898Y246811D02*
X131102D01*
X164347Y165685D02*
Y176315D01*
X157653Y165685D02*
Y176315D01*
X163657D02*
X164347D01*
X163657Y165685D02*
X164347D01*
X157653Y176315D02*
X158343D01*
X157653Y165685D02*
X158343D01*
X173843Y224169D02*
X177779D01*
X173843D02*
Y225941D01*
Y232831D02*
X177779D01*
X173843Y231059D02*
Y232831D01*
D15*
X223500Y183000D02*
Y186000D01*
X239500Y183000D02*
Y186000D01*
X253500Y242500D02*
Y245500D01*
X272500Y213000D02*
Y216000D01*
X306000Y205500D02*
Y207000D01*
Y208500D01*
Y213000D02*
Y216000D01*
X339500Y205500D02*
Y207000D01*
Y208500D01*
Y213000D02*
Y216000D01*
X373000Y205500D02*
Y207000D01*
Y208500D01*
X272500Y272500D02*
X275500D01*
X241500Y156000D02*
Y159000D01*
X259000Y156000D02*
Y159000D01*
X270000Y327500D02*
Y330500D01*
Y334500D02*
Y337500D01*
X234000Y327500D02*
Y330500D01*
X270000Y320500D02*
Y323500D01*
X234000Y320500D02*
Y323500D01*
X239500Y306500D02*
X242500D01*
X234000Y334500D02*
Y337500D01*
Y341500D02*
Y344500D01*
X270000Y341500D02*
Y344500D01*
X229000Y271500D02*
X232000D01*
X317000Y191500D02*
Y194500D01*
X185000Y192500D02*
Y195500D01*
X373000Y213000D02*
Y216000D01*
X272500Y205500D02*
Y207000D01*
Y208500D01*
X130500Y232000D02*
Y235000D01*
Y173862D02*
Y176862D01*
X176500Y239500D02*
Y242500D01*
X147000Y173862D02*
Y176862D01*
X147500Y232000D02*
Y235000D01*
X218000Y249000D02*
Y252000D01*
X176500Y214500D02*
Y217500D01*
X114000Y173862D02*
Y176862D01*
Y232000D02*
Y235000D01*
D16*
X284657Y291333D02*
Y286620D01*
X282300Y288976D02*
X287013D01*
X296623Y291333D02*
X296099Y291857D01*
X295314Y292119D01*
X294267D01*
X293481Y291857D01*
X292957Y291333D01*
Y290809D01*
X293219Y290286D01*
X293481Y290024D01*
X294005Y289762D01*
X295576Y289238D01*
X296099Y288976D01*
X296361Y288715D01*
X296623Y288191D01*
Y287405D01*
X296099Y286881D01*
X295314Y286620D01*
X294267D01*
X293481Y286881D01*
X292957Y287405D01*
X298377Y292119D02*
X298639Y291857D01*
X298901Y292119D01*
X298639Y292380D01*
X298377Y292119D01*
X298639Y290286D02*
Y286620D01*
X303012Y292119D02*
Y286620D01*
Y289500D02*
X302488Y290024D01*
X301965Y290286D01*
X301179D01*
X300656Y290024D01*
X300132Y289500D01*
X299870Y288715D01*
Y288191D01*
X300132Y287405D01*
X300656Y286881D01*
X301179Y286620D01*
X301965D01*
X302488Y286881D01*
X303012Y287405D01*
X304479Y288715D02*
X307621D01*
Y289238D01*
X307359Y289762D01*
X307097Y290024D01*
X306573Y290286D01*
X305788D01*
X305264Y290024D01*
X304740Y289500D01*
X304479Y288715D01*
Y288191D01*
X304740Y287405D01*
X305264Y286881D01*
X305788Y286620D01*
X306573D01*
X307097Y286881D01*
X307621Y287405D01*
X193800Y288976D02*
X198513D01*
X208123Y291333D02*
X207599Y291857D01*
X206814Y292119D01*
X205767D01*
X204981Y291857D01*
X204457Y291333D01*
Y290809D01*
X204719Y290286D01*
X204981Y290024D01*
X205505Y289762D01*
X207076Y289238D01*
X207599Y288976D01*
X207861Y288715D01*
X208123Y288191D01*
Y287405D01*
X207599Y286881D01*
X206814Y286620D01*
X205767D01*
X204981Y286881D01*
X204457Y287405D01*
X209877Y292119D02*
X210139Y291857D01*
X210401Y292119D01*
X210139Y292380D01*
X209877Y292119D01*
X210139Y290286D02*
Y286620D01*
X214512Y292119D02*
Y286620D01*
Y289500D02*
X213988Y290024D01*
X213465Y290286D01*
X212679D01*
X212156Y290024D01*
X211632Y289500D01*
X211370Y288715D01*
Y288191D01*
X211632Y287405D01*
X212156Y286881D01*
X212679Y286620D01*
X213465D01*
X213988Y286881D01*
X214512Y287405D01*
X215979Y288715D02*
X219121D01*
Y289238D01*
X218859Y289762D01*
X218597Y290024D01*
X218073Y290286D01*
X217288D01*
X216764Y290024D01*
X216240Y289500D01*
X215979Y288715D01*
Y288191D01*
X216240Y287405D01*
X216764Y286881D01*
X217288Y286620D01*
X218073D01*
X218597Y286881D01*
X219121Y287405D01*
X323300Y288976D02*
X328013D01*
X337623Y291333D02*
X337099Y291857D01*
X336314Y292119D01*
X335266D01*
X334481Y291857D01*
X333957Y291333D01*
Y290809D01*
X334219Y290286D01*
X334481Y290024D01*
X335005Y289762D01*
X336576Y289238D01*
X337099Y288976D01*
X337361Y288715D01*
X337623Y288191D01*
Y287405D01*
X337099Y286881D01*
X336314Y286620D01*
X335266D01*
X334481Y286881D01*
X333957Y287405D01*
X339377Y292119D02*
X339639Y291857D01*
X339901Y292119D01*
X339639Y292380D01*
X339377Y292119D01*
X339639Y290286D02*
Y286620D01*
X344012Y292119D02*
Y286620D01*
Y289500D02*
X343489Y290024D01*
X342965Y290286D01*
X342179D01*
X341656Y290024D01*
X341132Y289500D01*
X340870Y288715D01*
Y288191D01*
X341132Y287405D01*
X341656Y286881D01*
X342179Y286620D01*
X342965D01*
X343489Y286881D01*
X344012Y287405D01*
X345479Y288715D02*
X348621D01*
Y289238D01*
X348359Y289762D01*
X348097Y290024D01*
X347573Y290286D01*
X346788D01*
X346264Y290024D01*
X345740Y289500D01*
X345479Y288715D01*
Y288191D01*
X345740Y287405D01*
X346264Y286881D01*
X346788Y286620D01*
X347573D01*
X348097Y286881D01*
X348621Y287405D01*
X155157Y291333D02*
Y286620D01*
X152800Y288976D02*
X157513D01*
X167123Y291333D02*
X166599Y291857D01*
X165814Y292119D01*
X164767D01*
X163981Y291857D01*
X163457Y291333D01*
Y290809D01*
X163719Y290286D01*
X163981Y290024D01*
X164505Y289762D01*
X166076Y289238D01*
X166599Y288976D01*
X166861Y288715D01*
X167123Y288191D01*
Y287405D01*
X166599Y286881D01*
X165814Y286620D01*
X164767D01*
X163981Y286881D01*
X163457Y287405D01*
X168877Y292119D02*
X169139Y291857D01*
X169401Y292119D01*
X169139Y292380D01*
X168877Y292119D01*
X169139Y290286D02*
Y286620D01*
X173512Y292119D02*
Y286620D01*
Y289500D02*
X172988Y290024D01*
X172465Y290286D01*
X171679D01*
X171156Y290024D01*
X170632Y289500D01*
X170370Y288715D01*
Y288191D01*
X170632Y287405D01*
X171156Y286881D01*
X171679Y286620D01*
X172465D01*
X172988Y286881D01*
X173512Y287405D01*
X174979Y288715D02*
X178121D01*
Y289238D01*
X177859Y289762D01*
X177597Y290024D01*
X177073Y290286D01*
X176288D01*
X175764Y290024D01*
X175240Y289500D01*
X174979Y288715D01*
Y288191D01*
X175240Y287405D01*
X175764Y286881D01*
X176288Y286620D01*
X177073D01*
X177597Y286881D01*
X178121Y287405D01*
D17*
X158002Y155166D02*
X157169Y155999D01*
X155502D01*
X154669Y155166D01*
Y151834D01*
X155502Y151001D01*
X157169D01*
X158002Y151834D01*
X159668Y151001D02*
Y154333D01*
X161334Y155999D01*
X163000Y154333D01*
Y151001D01*
Y153500D01*
X159668D01*
X164666Y151001D02*
Y155999D01*
X167998Y151001D01*
Y155999D01*
X169665Y151001D02*
X171331D01*
X170498D01*
Y155999D01*
X169665Y155166D01*
X285500Y256832D02*
Y248834D01*
Y256832D02*
X288166D01*
X289309Y256451D01*
X290070Y255690D01*
X290451Y254928D01*
X290832Y253785D01*
Y251881D01*
X290451Y250738D01*
X290070Y249976D01*
X289309Y249215D01*
X288166Y248834D01*
X285500D01*
X292622Y254166D02*
Y250357D01*
X293003Y249215D01*
X293765Y248834D01*
X294907D01*
X295669Y249215D01*
X296812Y250357D01*
Y254166D02*
Y248834D01*
X303477Y254166D02*
Y248834D01*
Y253024D02*
X302715Y253785D01*
X301954Y254166D01*
X300811D01*
X300049Y253785D01*
X299288Y253024D01*
X298907Y251881D01*
Y251119D01*
X299288Y249976D01*
X300049Y249215D01*
X300811Y248834D01*
X301954D01*
X302715Y249215D01*
X303477Y249976D01*
X305610Y256832D02*
Y248834D01*
X316236Y256832D02*
Y248834D01*
X313570Y256832D02*
X318902D01*
X321759Y254166D02*
X320997Y253785D01*
X320235Y253024D01*
X319855Y251881D01*
Y251119D01*
X320235Y249976D01*
X320997Y249215D01*
X321759Y248834D01*
X322902D01*
X323663Y249215D01*
X324425Y249976D01*
X324806Y251119D01*
Y251881D01*
X324425Y253024D01*
X323663Y253785D01*
X322902Y254166D01*
X321759D01*
X326558D02*
Y248834D01*
Y251881D02*
X326939Y253024D01*
X327700Y253785D01*
X328462Y254166D01*
X329605D01*
X334899D02*
Y246168D01*
Y253024D02*
X334137Y253785D01*
X333376Y254166D01*
X332233D01*
X331471Y253785D01*
X330709Y253024D01*
X330328Y251881D01*
Y251119D01*
X330709Y249976D01*
X331471Y249215D01*
X332233Y248834D01*
X333376D01*
X334137Y249215D01*
X334899Y249976D01*
X337032Y254166D02*
Y250357D01*
X337413Y249215D01*
X338174Y248834D01*
X339317D01*
X340079Y249215D01*
X341221Y250357D01*
Y254166D02*
Y248834D01*
X343316Y251881D02*
X347887D01*
Y252643D01*
X347506Y253404D01*
X347125Y253785D01*
X346363Y254166D01*
X345221D01*
X344459Y253785D01*
X343697Y253024D01*
X343316Y251881D01*
Y251119D01*
X343697Y249976D01*
X344459Y249215D01*
X345221Y248834D01*
X346363D01*
X347125Y249215D01*
X347887Y249976D01*
X361217Y255690D02*
X360455Y256451D01*
X359313Y256832D01*
X357789D01*
X356647Y256451D01*
X355885Y255690D01*
Y254928D01*
X356266Y254166D01*
X356647Y253785D01*
X357408Y253404D01*
X359694Y252643D01*
X360455Y252262D01*
X360836Y251881D01*
X361217Y251119D01*
Y249976D01*
X360455Y249215D01*
X359313Y248834D01*
X357789D01*
X356647Y249215D01*
X355885Y249976D01*
X363007Y251881D02*
X367578D01*
Y252643D01*
X367197Y253404D01*
X366816Y253785D01*
X366054Y254166D01*
X364912D01*
X364150Y253785D01*
X363388Y253024D01*
X363007Y251881D01*
Y251119D01*
X363388Y249976D01*
X364150Y249215D01*
X364912Y248834D01*
X366054D01*
X366816Y249215D01*
X367578Y249976D01*
X369292Y254166D02*
Y248834D01*
Y252643D02*
X370434Y253785D01*
X371196Y254166D01*
X372339D01*
X373100Y253785D01*
X373481Y252643D01*
Y248834D01*
X379766Y253024D02*
X379385Y253785D01*
X378242Y254166D01*
X377099D01*
X375957Y253785D01*
X375576Y253024D01*
X375957Y252262D01*
X376719Y251881D01*
X378623Y251500D01*
X379385Y251119D01*
X379766Y250357D01*
Y249976D01*
X379385Y249215D01*
X378242Y248834D01*
X377099D01*
X375957Y249215D01*
X375576Y249976D01*
X383346Y254166D02*
X382584Y253785D01*
X381822Y253024D01*
X381441Y251881D01*
Y251119D01*
X381822Y249976D01*
X382584Y249215D01*
X383346Y248834D01*
X384488D01*
X385250Y249215D01*
X386012Y249976D01*
X386393Y251119D01*
Y251881D01*
X386012Y253024D01*
X385250Y253785D01*
X384488Y254166D01*
X383346D01*
X388145D02*
Y248834D01*
Y251881D02*
X388526Y253024D01*
X389287Y253785D01*
X390049Y254166D01*
X391192D01*
X286169Y155166D02*
X285335Y155999D01*
X283669D01*
X282836Y155166D01*
Y151834D01*
X283669Y151001D01*
X285335D01*
X286169Y151834D01*
X287835Y151001D02*
Y154333D01*
X289501Y155999D01*
X291167Y154333D01*
Y151001D01*
Y153500D01*
X287835D01*
X292833Y151001D02*
Y155999D01*
X296165Y151001D01*
Y155999D01*
X301164Y151001D02*
X297831D01*
X301164Y154333D01*
Y155166D01*
X300331Y155999D01*
X298664D01*
X297831Y155166D01*
D18*
X344133Y244250D02*
X343800Y244583D01*
X343300Y244749D01*
X342633D01*
X342133Y244583D01*
X341800Y244250D01*
Y243916D01*
X341967Y243583D01*
X342133Y243417D01*
X342466Y243250D01*
X343466Y242917D01*
X343800Y242750D01*
X343966Y242583D01*
X344133Y242250D01*
Y241750D01*
X343800Y241417D01*
X343300Y241250D01*
X342633D01*
X342133Y241417D01*
X341800Y241750D01*
X345416Y244749D02*
Y241917D01*
X345583Y241417D01*
X345916Y241250D01*
X346249D01*
X344916Y243583D02*
X346082D01*
X346749D02*
Y241250D01*
Y242583D02*
X346916Y243083D01*
X347249Y243417D01*
X347582Y243583D01*
X348082D01*
X350398D02*
Y241250D01*
Y243083D02*
X350065Y243417D01*
X349732Y243583D01*
X349232D01*
X348899Y243417D01*
X348565Y243083D01*
X348399Y242583D01*
Y242250D01*
X348565Y241750D01*
X348899Y241417D01*
X349232Y241250D01*
X349732D01*
X350065Y241417D01*
X350398Y241750D01*
X351665Y244749D02*
X351831Y244583D01*
X351998Y244749D01*
X351831Y244916D01*
X351665Y244749D01*
X351831Y243583D02*
Y241250D01*
X352614Y243583D02*
Y241250D01*
Y242917D02*
X353114Y243417D01*
X353448Y243583D01*
X353947D01*
X354281Y243417D01*
X354447Y242917D01*
Y241250D01*
X355364Y242750D02*
X358363D01*
X361896Y243916D02*
X361729Y244250D01*
X361396Y244583D01*
X361063Y244749D01*
X360396D01*
X360063Y244583D01*
X359730Y244250D01*
X359563Y243916D01*
X359396Y243417D01*
Y242583D01*
X359563Y242083D01*
X359730Y241750D01*
X360063Y241417D01*
X360396Y241250D01*
X361063D01*
X361396Y241417D01*
X361729Y241750D01*
X361896Y242083D01*
Y242583D01*
X361063D02*
X361896D01*
X364695Y243583D02*
Y241250D01*
Y243083D02*
X364362Y243417D01*
X364029Y243583D01*
X363529D01*
X363195Y243417D01*
X362862Y243083D01*
X362696Y242583D01*
Y242250D01*
X362862Y241750D01*
X363195Y241417D01*
X363529Y241250D01*
X364029D01*
X364362Y241417D01*
X364695Y241750D01*
X365628Y243583D02*
Y241917D01*
X365795Y241417D01*
X366128Y241250D01*
X366628D01*
X366961Y241417D01*
X367461Y241917D01*
Y243583D02*
Y241250D01*
X370377Y243583D02*
Y240917D01*
X370211Y240417D01*
X370044Y240250D01*
X369711Y240084D01*
X369211D01*
X368878Y240250D01*
X370377Y243083D02*
X370044Y243417D01*
X369711Y243583D01*
X369211D01*
X368878Y243417D01*
X368544Y243083D01*
X368378Y242583D01*
Y242250D01*
X368544Y241750D01*
X368878Y241417D01*
X369211Y241250D01*
X369711D01*
X370044Y241417D01*
X370377Y241750D01*
X371310Y242583D02*
X373310D01*
Y242917D01*
X373143Y243250D01*
X372977Y243417D01*
X372643Y243583D01*
X372144D01*
X371810Y243417D01*
X371477Y243083D01*
X371310Y242583D01*
Y242250D01*
X371477Y241750D01*
X371810Y241417D01*
X372144Y241250D01*
X372643D01*
X372977Y241417D01*
X373310Y241750D01*
X374060Y242750D02*
X377059D01*
X378092Y244749D02*
Y241250D01*
Y244749D02*
X379592D01*
X380092Y244583D01*
X380258Y244416D01*
X380425Y244083D01*
Y243750D01*
X380258Y243417D01*
X380092Y243250D01*
X379592Y243083D01*
X378092D02*
X379592D01*
X380092Y242917D01*
X380258Y242750D01*
X380425Y242417D01*
Y241917D01*
X380258Y241583D01*
X380092Y241417D01*
X379592Y241250D01*
X378092D01*
X383208Y243583D02*
Y241250D01*
Y243083D02*
X382874Y243417D01*
X382541Y243583D01*
X382041D01*
X381708Y243417D01*
X381375Y243083D01*
X381208Y242583D01*
Y242250D01*
X381375Y241750D01*
X381708Y241417D01*
X382041Y241250D01*
X382541D01*
X382874Y241417D01*
X383208Y241750D01*
X385974Y243083D02*
X385807Y243417D01*
X385307Y243583D01*
X384807D01*
X384308Y243417D01*
X384141Y243083D01*
X384308Y242750D01*
X384641Y242583D01*
X385474Y242417D01*
X385807Y242250D01*
X385974Y241917D01*
Y241750D01*
X385807Y241417D01*
X385307Y241250D01*
X384807D01*
X384308Y241417D01*
X384141Y241750D01*
X386707Y242583D02*
X388707D01*
Y242917D01*
X388540Y243250D01*
X388373Y243417D01*
X388040Y243583D01*
X387540D01*
X387207Y243417D01*
X386874Y243083D01*
X386707Y242583D01*
Y242250D01*
X386874Y241750D01*
X387207Y241417D01*
X387540Y241250D01*
X388040D01*
X388373Y241417D01*
X388707Y241750D01*
X391456Y244749D02*
Y241250D01*
Y243083D02*
X391123Y243417D01*
X390790Y243583D01*
X390290D01*
X389956Y243417D01*
X389623Y243083D01*
X389456Y242583D01*
Y242250D01*
X389623Y241750D01*
X389956Y241417D01*
X390290Y241250D01*
X390790D01*
X391123Y241417D01*
X391456Y241750D01*
D19*
X369500Y199546D02*
D03*
M02*
